G04*
G04 #@! TF.GenerationSoftware,Altium Limited,Altium Designer,18.1.7 (191)*
G04*
G04 Layer_Physical_Order=2*
G04 Layer_Color=16711680*
%FSLAX43Y43*%
%MOMM*%
G71*
G01*
G75*
%ADD14C,0.500*%
%ADD15C,0.200*%
G04:AMPARAMS|DCode=33|XSize=1mm|YSize=0.9mm|CornerRadius=0.113mm|HoleSize=0mm|Usage=FLASHONLY|Rotation=90.000|XOffset=0mm|YOffset=0mm|HoleType=Round|Shape=RoundedRectangle|*
%AMROUNDEDRECTD33*
21,1,1.000,0.675,0,0,90.0*
21,1,0.775,0.900,0,0,90.0*
1,1,0.225,0.338,0.388*
1,1,0.225,0.338,-0.388*
1,1,0.225,-0.338,-0.388*
1,1,0.225,-0.338,0.388*
%
%ADD33ROUNDEDRECTD33*%
G04:AMPARAMS|DCode=38|XSize=1mm|YSize=0.9mm|CornerRadius=0.113mm|HoleSize=0mm|Usage=FLASHONLY|Rotation=180.000|XOffset=0mm|YOffset=0mm|HoleType=Round|Shape=RoundedRectangle|*
%AMROUNDEDRECTD38*
21,1,1.000,0.675,0,0,180.0*
21,1,0.775,0.900,0,0,180.0*
1,1,0.225,-0.388,0.338*
1,1,0.225,0.388,0.338*
1,1,0.225,0.388,-0.338*
1,1,0.225,-0.388,-0.338*
%
%ADD38ROUNDEDRECTD38*%
%ADD46C,0.300*%
%ADD47C,0.800*%
%ADD48C,1.300*%
%ADD49C,0.600*%
%ADD50C,0.900*%
%ADD51R,3.250X2.150*%
%ADD52R,1.000X2.150*%
%ADD53R,1.550X0.600*%
%ADD54O,1.550X0.600*%
G04:AMPARAMS|DCode=55|XSize=2.3mm|YSize=1.8mm|CornerRadius=0.225mm|HoleSize=0mm|Usage=FLASHONLY|Rotation=0.000|XOffset=0mm|YOffset=0mm|HoleType=Round|Shape=RoundedRectangle|*
%AMROUNDEDRECTD55*
21,1,2.300,1.350,0,0,0.0*
21,1,1.850,1.800,0,0,0.0*
1,1,0.450,0.925,-0.675*
1,1,0.450,-0.925,-0.675*
1,1,0.450,-0.925,0.675*
1,1,0.450,0.925,0.675*
%
%ADD55ROUNDEDRECTD55*%
%ADD56R,1.300X1.050*%
%ADD57R,0.300X1.500*%
%ADD58R,1.500X0.300*%
G04:AMPARAMS|DCode=59|XSize=0.6mm|YSize=0.7mm|CornerRadius=0.075mm|HoleSize=0mm|Usage=FLASHONLY|Rotation=90.000|XOffset=0mm|YOffset=0mm|HoleType=Round|Shape=RoundedRectangle|*
%AMROUNDEDRECTD59*
21,1,0.600,0.550,0,0,90.0*
21,1,0.450,0.700,0,0,90.0*
1,1,0.150,0.275,0.225*
1,1,0.150,0.275,-0.225*
1,1,0.150,-0.275,-0.225*
1,1,0.150,-0.275,0.225*
%
%ADD59ROUNDEDRECTD59*%
G04:AMPARAMS|DCode=60|XSize=1.8mm|YSize=1.15mm|CornerRadius=0.144mm|HoleSize=0mm|Usage=FLASHONLY|Rotation=270.000|XOffset=0mm|YOffset=0mm|HoleType=Round|Shape=RoundedRectangle|*
%AMROUNDEDRECTD60*
21,1,1.800,0.863,0,0,270.0*
21,1,1.513,1.150,0,0,270.0*
1,1,0.288,-0.431,-0.756*
1,1,0.288,-0.431,0.756*
1,1,0.288,0.431,0.756*
1,1,0.288,0.431,-0.756*
%
%ADD60ROUNDEDRECTD60*%
%ADD61C,0.600*%
%ADD62C,1.000*%
G36*
X22947Y36796D02*
X22996Y36679D01*
X22265Y35948D01*
X22155Y35933D01*
X21997Y35868D01*
X21861Y35764D01*
X21757Y35628D01*
X21692Y35470D01*
X21669Y35300D01*
X21692Y35130D01*
X21757Y34972D01*
X21861Y34836D01*
X21997Y34732D01*
X22155Y34667D01*
X22325Y34644D01*
X22495Y34667D01*
X22606Y34713D01*
X22716Y34735D01*
X22915Y34867D01*
X23114Y35067D01*
X23248Y35021D01*
X23262Y34918D01*
X23348Y34711D01*
X23484Y34534D01*
X23661Y34398D01*
X23868Y34312D01*
X24090Y34283D01*
X24312Y34312D01*
X24519Y34398D01*
X24696Y34534D01*
X24832Y34711D01*
X24918Y34918D01*
X24947Y35140D01*
X24918Y35362D01*
X24832Y35569D01*
X24769Y35651D01*
X24832Y35778D01*
X25888D01*
X25951Y35651D01*
X25888Y35569D01*
X25802Y35362D01*
X25773Y35140D01*
X25802Y34918D01*
X25888Y34711D01*
X26024Y34534D01*
X26201Y34398D01*
X26408Y34312D01*
X26630Y34283D01*
X26852Y34312D01*
X27059Y34398D01*
X27236Y34534D01*
X27372Y34711D01*
X27458Y34918D01*
X27487Y35140D01*
X27458Y35362D01*
X27372Y35569D01*
X27309Y35651D01*
X27372Y35778D01*
X34448D01*
X34511Y35651D01*
X34448Y35569D01*
X34362Y35362D01*
X34333Y35140D01*
X34362Y34918D01*
X34448Y34711D01*
X34584Y34534D01*
X34761Y34398D01*
X34968Y34312D01*
X35190Y34283D01*
X35412Y34312D01*
X35619Y34398D01*
X35796Y34534D01*
X35932Y34711D01*
X36018Y34918D01*
X36047Y35140D01*
X36018Y35362D01*
X35932Y35569D01*
X35869Y35651D01*
X35932Y35778D01*
X36988D01*
X37051Y35651D01*
X36988Y35569D01*
X36902Y35362D01*
X36873Y35140D01*
X36902Y34918D01*
X36988Y34711D01*
X37124Y34534D01*
X37301Y34398D01*
X37508Y34312D01*
X37730Y34283D01*
X37952Y34312D01*
X38159Y34398D01*
X38336Y34534D01*
X38472Y34711D01*
X38558Y34918D01*
X38587Y35140D01*
X38558Y35362D01*
X38472Y35569D01*
X38409Y35651D01*
X38472Y35778D01*
X39528D01*
X39591Y35651D01*
X39528Y35569D01*
X39442Y35362D01*
X39413Y35140D01*
X39442Y34918D01*
X39528Y34711D01*
X39664Y34534D01*
X39841Y34398D01*
X40048Y34312D01*
X40270Y34283D01*
X40492Y34312D01*
X40699Y34398D01*
X40876Y34534D01*
X41012Y34711D01*
X41098Y34918D01*
X41127Y35140D01*
X41098Y35362D01*
X41012Y35569D01*
X40949Y35651D01*
X41012Y35778D01*
X42068D01*
X42131Y35651D01*
X42068Y35569D01*
X41982Y35362D01*
X41953Y35140D01*
X41982Y34918D01*
X42068Y34711D01*
X42204Y34534D01*
X42381Y34398D01*
X42588Y34312D01*
X42810Y34283D01*
X43032Y34312D01*
X43239Y34398D01*
X43416Y34534D01*
X43552Y34711D01*
X43638Y34918D01*
X43667Y35140D01*
X43638Y35362D01*
X43552Y35569D01*
X43489Y35651D01*
X43552Y35778D01*
X44608D01*
X44671Y35651D01*
X44608Y35569D01*
X44522Y35362D01*
X44493Y35140D01*
X44522Y34918D01*
X44608Y34711D01*
X44744Y34534D01*
X44921Y34398D01*
X45128Y34312D01*
X45350Y34283D01*
X45572Y34312D01*
X45779Y34398D01*
X45956Y34534D01*
X46092Y34711D01*
X46178Y34918D01*
X46207Y35140D01*
X46178Y35362D01*
X46092Y35569D01*
X46029Y35651D01*
X46092Y35778D01*
X47408D01*
X47912Y35274D01*
Y31850D01*
X47958Y31616D01*
X47975Y31591D01*
X47975Y31589D01*
X47885Y31462D01*
X45807D01*
X45573Y31415D01*
X45375Y31283D01*
X43767Y29675D01*
X43635Y29477D01*
X43588Y29243D01*
Y28669D01*
X43567Y28617D01*
X43544Y28447D01*
X43567Y28277D01*
X43632Y28119D01*
X43736Y27984D01*
X43872Y27879D01*
X44030Y27814D01*
X44200Y27792D01*
X44370Y27814D01*
X44528Y27879D01*
X44664Y27984D01*
X44768Y28119D01*
X44833Y28277D01*
X44856Y28447D01*
X44833Y28617D01*
X44812Y28669D01*
Y28989D01*
X46061Y30238D01*
X46690D01*
X46790Y30090D01*
X46955Y29979D01*
X47150Y29940D01*
X47345Y29979D01*
X47510Y30090D01*
X47610Y30238D01*
X49872D01*
X50167Y29942D01*
X50366Y29810D01*
X50600Y29763D01*
X53171D01*
X53488Y29446D01*
Y28949D01*
X53421Y28904D01*
X53345Y28790D01*
X53318Y28656D01*
Y27144D01*
X53345Y27010D01*
X53421Y26896D01*
X53425Y26893D01*
X53458Y26721D01*
X53444Y26700D01*
X52700D01*
Y24150D01*
X53588D01*
Y18653D01*
X52140Y17205D01*
X52127Y17206D01*
X52011Y17256D01*
X51988Y17432D01*
X51902Y17639D01*
X51766Y17816D01*
X51589Y17952D01*
X51382Y18038D01*
X51160Y18067D01*
X50938Y18038D01*
X50731Y17952D01*
X50554Y17816D01*
X50418Y17639D01*
X50332Y17432D01*
X50303Y17210D01*
X50332Y16988D01*
X50418Y16781D01*
X50554Y16604D01*
X50731Y16468D01*
X50938Y16382D01*
X51160Y16353D01*
X51382Y16382D01*
X51589Y16468D01*
X51711Y16562D01*
X51838Y16499D01*
Y16213D01*
X51151Y15526D01*
X50938Y15498D01*
X50731Y15412D01*
X50554Y15276D01*
X50418Y15099D01*
X50332Y14892D01*
X50303Y14670D01*
X50332Y14448D01*
X50418Y14241D01*
X50554Y14064D01*
X50731Y13928D01*
X50938Y13842D01*
X51160Y13813D01*
X51382Y13842D01*
X51589Y13928D01*
X51766Y14064D01*
X51902Y14241D01*
X51988Y14448D01*
X52016Y14661D01*
X52834Y15479D01*
X52860Y15486D01*
X52977Y15474D01*
X52993Y15465D01*
X53094Y15334D01*
X53271Y15198D01*
X53478Y15112D01*
X53700Y15083D01*
X53922Y15112D01*
X54129Y15198D01*
X54306Y15334D01*
X54442Y15511D01*
X54528Y15718D01*
X54552Y15901D01*
X54679Y15892D01*
Y11000D01*
X52300Y11000D01*
X52275Y11127D01*
X52379Y11170D01*
X52578Y11322D01*
X52730Y11521D01*
X52826Y11752D01*
X52858Y12000D01*
X52826Y12248D01*
X52730Y12479D01*
X52578Y12678D01*
X52379Y12830D01*
X52148Y12926D01*
X51900Y12958D01*
X51652Y12926D01*
X51421Y12830D01*
X51222Y12678D01*
X51070Y12479D01*
X50974Y12248D01*
X50942Y12000D01*
X50974Y11752D01*
X51070Y11521D01*
X51222Y11322D01*
X51421Y11170D01*
X51590Y11100D01*
X51573Y10970D01*
X51413Y10949D01*
X51034Y10847D01*
X50670Y10696D01*
X50330Y10500D01*
X50018Y10260D01*
X49740Y9982D01*
X49500Y9670D01*
X49304Y9330D01*
X49153Y8966D01*
X49051Y8587D01*
X49000Y8197D01*
X49000Y8000D01*
X49000Y7803D01*
X49051Y7413D01*
X49153Y7034D01*
X49304Y6670D01*
X49500Y6330D01*
X49740Y6018D01*
X50018Y5740D01*
X50330Y5500D01*
X50670Y5304D01*
X51034Y5153D01*
X51413Y5051D01*
X51803Y5000D01*
X52000D01*
X54679Y5000D01*
Y204D01*
X204D01*
Y2525D01*
X331Y2568D01*
X442Y2422D01*
X641Y2270D01*
X872Y2174D01*
X1120Y2142D01*
X1368Y2174D01*
X1599Y2270D01*
X1798Y2422D01*
X1950Y2621D01*
X2046Y2852D01*
X2078Y3100D01*
X2046Y3348D01*
X1950Y3579D01*
X1798Y3778D01*
X1599Y3930D01*
X1368Y4026D01*
X1120Y4058D01*
X872Y4026D01*
X641Y3930D01*
X442Y3778D01*
X331Y3632D01*
X204Y3675D01*
Y5000D01*
X3197D01*
X3587Y5051D01*
X3867Y5127D01*
X3933Y5013D01*
X3592Y4671D01*
X3568Y4668D01*
X3361Y4582D01*
X3184Y4446D01*
X3048Y4269D01*
X2962Y4062D01*
X2933Y3840D01*
X2962Y3618D01*
X3048Y3411D01*
X3184Y3234D01*
X3361Y3098D01*
X3568Y3012D01*
X3790Y2983D01*
X4012Y3012D01*
X4219Y3098D01*
X4396Y3234D01*
X4532Y3411D01*
X4618Y3618D01*
X4647Y3840D01*
X4618Y4062D01*
X4532Y4269D01*
X4396Y4446D01*
X4395Y4465D01*
X6548Y6618D01*
X10575D01*
X10712Y6645D01*
X10827Y6723D01*
X12527Y8423D01*
X12605Y8538D01*
X12632Y8675D01*
Y9801D01*
X12755Y9924D01*
X12925Y9890D01*
X13875D01*
X14070Y9929D01*
X14235Y10040D01*
X14238Y10043D01*
X14500D01*
Y9500D01*
X14700Y9300D01*
X15700D01*
X15900Y9500D01*
Y10300D01*
X15886Y10314D01*
X15906Y10413D01*
Y11087D01*
X15882Y11209D01*
X15813Y11313D01*
X15709Y11382D01*
X15599Y11404D01*
X15574Y11438D01*
X15533Y11533D01*
X15571Y11590D01*
X15610Y11785D01*
X15571Y11980D01*
X15460Y12145D01*
X15295Y12256D01*
X15100Y12295D01*
X14905Y12256D01*
X14740Y12145D01*
X14660Y12027D01*
X14238D01*
X14235Y12030D01*
X14070Y12141D01*
X13875Y12180D01*
X12925D01*
X12737Y12142D01*
X12715Y12142D01*
X12610Y12207D01*
Y12403D01*
X12715Y12468D01*
X12737Y12468D01*
X12925Y12430D01*
X13875D01*
X14070Y12469D01*
X14191Y12550D01*
X14350D01*
X14352Y12546D01*
X14517Y12436D01*
X14712Y12397D01*
X14908Y12436D01*
X15073Y12546D01*
X15183Y12712D01*
X15222Y12907D01*
X15183Y13102D01*
X15120Y13197D01*
X15140Y13364D01*
X15160Y13377D01*
X15271Y13543D01*
X15310Y13738D01*
X15271Y13933D01*
X15222Y14006D01*
X15196Y14125D01*
X15254Y14169D01*
X15360Y14239D01*
X15471Y14405D01*
X15510Y14600D01*
X15471Y14795D01*
X15360Y14960D01*
X15195Y15071D01*
X15000Y15110D01*
X14805Y15071D01*
X14804Y15071D01*
X14382Y15492D01*
X14346Y15675D01*
X14235Y15840D01*
X14070Y15951D01*
X13875Y15990D01*
X12925D01*
X12737Y15952D01*
X12715Y15952D01*
X12610Y16017D01*
Y17156D01*
X12974Y17520D01*
X14375D01*
X14394Y17401D01*
Y17243D01*
X14414Y17144D01*
X14400Y17130D01*
Y16330D01*
X14600Y16130D01*
X15600D01*
X15800Y16330D01*
Y17130D01*
X15786Y17144D01*
X15806Y17243D01*
Y17917D01*
X15782Y18039D01*
X15713Y18143D01*
X15609Y18212D01*
X15488Y18236D01*
X14738D01*
X14702Y18272D01*
X14586Y18350D01*
X14449Y18377D01*
X14375D01*
Y18520D01*
X12425D01*
Y17980D01*
X12074Y17629D01*
X11906Y17632D01*
X11905Y17633D01*
X9679Y19858D01*
X4679Y19858D01*
X3944Y20594D01*
X4026Y20792D01*
X4058Y21040D01*
X4026Y21288D01*
X3930Y21519D01*
X3778Y21718D01*
X3579Y21870D01*
X3348Y21966D01*
X3100Y21998D01*
X2852Y21966D01*
X2621Y21870D01*
X2606Y21858D01*
X204Y21858D01*
Y31000D01*
X3000D01*
X3000Y31000D01*
X3000Y31000D01*
X3197Y31000D01*
X3587Y31051D01*
X3966Y31153D01*
X4330Y31304D01*
X4670Y31500D01*
X4982Y31740D01*
X5260Y32018D01*
X5500Y32330D01*
X5696Y32670D01*
X5847Y33034D01*
X5949Y33413D01*
X6000Y33803D01*
Y34000D01*
X6000Y36796D01*
X22947Y36796D01*
D02*
G37*
%LPC*%
G36*
X13374Y36457D02*
X11020D01*
X10883Y36430D01*
X10768Y36352D01*
X10365Y35950D01*
X10198Y35928D01*
X9991Y35842D01*
X9814Y35706D01*
X9678Y35529D01*
X9592Y35322D01*
X9563Y35100D01*
X9592Y34878D01*
X9678Y34671D01*
X9814Y34494D01*
X9991Y34358D01*
X10198Y34272D01*
X10420Y34243D01*
X10642Y34272D01*
X10849Y34358D01*
X11026Y34494D01*
X11162Y34671D01*
X11248Y34878D01*
X11277Y35100D01*
X11248Y35322D01*
X11162Y35529D01*
X11072Y35647D01*
X11168Y35743D01*
X12222D01*
X12285Y35616D01*
X12218Y35529D01*
X12132Y35322D01*
X12103Y35100D01*
X12132Y34878D01*
X12218Y34671D01*
X12354Y34494D01*
X12531Y34358D01*
X12738Y34272D01*
X12960Y34243D01*
X13182Y34272D01*
X13389Y34358D01*
X13480Y34428D01*
X14383Y33525D01*
X14324Y33405D01*
X14230Y33417D01*
X14008Y33388D01*
X13801Y33302D01*
X13624Y33166D01*
X13488Y32989D01*
X13402Y32782D01*
X13373Y32560D01*
X13402Y32338D01*
X13488Y32131D01*
X13624Y31954D01*
X13801Y31818D01*
X14008Y31732D01*
X14230Y31703D01*
X14452Y31732D01*
X14659Y31818D01*
X14786Y31915D01*
X14913Y31853D01*
Y30746D01*
X14940Y30610D01*
X15018Y30494D01*
X15088Y30423D01*
X15026Y30306D01*
X15001Y30311D01*
X14806Y30272D01*
X14640Y30162D01*
X14573Y30062D01*
X14561D01*
X14396Y30172D01*
X14201Y30211D01*
X14006Y30172D01*
X13840Y30062D01*
X13730Y29897D01*
X13691Y29701D01*
X13730Y29506D01*
X13840Y29341D01*
X14006Y29230D01*
X14201Y29192D01*
X14265Y29204D01*
X14443Y29026D01*
X14437Y28960D01*
X14326Y28795D01*
X14287Y28600D01*
X14326Y28405D01*
X14437Y28239D01*
X14602Y28129D01*
X14797Y28090D01*
X14992Y28129D01*
X15158Y28239D01*
X15194Y28294D01*
X15522D01*
X17322Y26494D01*
X17281Y26355D01*
X17140Y26260D01*
X17029Y26095D01*
X16990Y25900D01*
X17029Y25705D01*
X17140Y25540D01*
X17305Y25429D01*
X17494Y25391D01*
Y25046D01*
X17367Y24976D01*
X17200Y25010D01*
X17005Y24971D01*
X16839Y24860D01*
X16729Y24695D01*
X16690Y24500D01*
X16729Y24305D01*
X16839Y24139D01*
X17005Y24029D01*
X17094Y24011D01*
Y23120D01*
X17094Y23120D01*
X17117Y23003D01*
X17184Y22904D01*
X17544Y22543D01*
Y21746D01*
X17417Y21677D01*
X17250Y21710D01*
X17055Y21671D01*
X16890Y21560D01*
X16887Y21557D01*
X16616D01*
X16577Y21684D01*
X16660Y21740D01*
X16771Y21905D01*
X16810Y22100D01*
X16771Y22295D01*
X16660Y22460D01*
X16495Y22571D01*
X16300Y22610D01*
X16105Y22571D01*
X16009Y22507D01*
X15586D01*
X15500Y22600D01*
Y23400D01*
X15300Y23600D01*
X14300D01*
X14100Y23400D01*
Y22600D01*
X14014Y22507D01*
X13698D01*
X13452Y22752D01*
X13337Y22830D01*
X13200Y22857D01*
X11818D01*
X11800Y22900D01*
Y23900D01*
X11600Y24100D01*
X11800Y24300D01*
Y25300D01*
X11600Y25500D01*
X10800D01*
X10786Y25486D01*
X10688Y25506D01*
X10012D01*
X9891Y25482D01*
X9787Y25413D01*
X9718Y25310D01*
X9295D01*
X9270Y25330D01*
Y25808D01*
X6730D01*
X6712Y25927D01*
Y27513D01*
X7587Y28388D01*
X8478D01*
X8530Y28367D01*
X8700Y28344D01*
X8870Y28367D01*
X9028Y28432D01*
X9164Y28536D01*
X9268Y28672D01*
X9333Y28830D01*
X9356Y29000D01*
X9333Y29170D01*
X9268Y29328D01*
X9164Y29464D01*
X9028Y29568D01*
X8870Y29633D01*
X8700Y29656D01*
X8530Y29633D01*
X8478Y29612D01*
X7333D01*
X7099Y29565D01*
X6901Y29433D01*
X5667Y28199D01*
X5535Y28001D01*
X5488Y27767D01*
Y22700D01*
X5535Y22466D01*
X5667Y22267D01*
X6167Y21767D01*
X6366Y21635D01*
X6600Y21588D01*
X7178D01*
X7230Y21567D01*
X7400Y21544D01*
X7570Y21567D01*
X7639Y21595D01*
X7650Y21593D01*
X12891D01*
X13037Y21447D01*
X12991Y21313D01*
X12855Y21286D01*
X12690Y21175D01*
X12579Y21010D01*
X12540Y20815D01*
X12579Y20620D01*
X12690Y20454D01*
X12785Y20391D01*
X12855Y20344D01*
X12818Y20228D01*
X12780Y20171D01*
X12741Y19976D01*
X12780Y19781D01*
X12890Y19615D01*
X13056Y19505D01*
X13251Y19466D01*
X13446Y19505D01*
X13611Y19615D01*
X13648Y19670D01*
X14073D01*
X14959Y18784D01*
X14959Y18784D01*
X15059Y18717D01*
X15176Y18694D01*
X17268D01*
X19520Y16442D01*
X19495Y16287D01*
X19443Y16252D01*
X19017Y15826D01*
X18939Y15711D01*
X18912Y15574D01*
Y14209D01*
X17876Y13173D01*
X17798Y13057D01*
X17771Y12920D01*
Y10415D01*
X17066Y9710D01*
X16989Y9594D01*
X16962Y9458D01*
Y7556D01*
X15538Y6132D01*
X13758D01*
X13621Y6105D01*
X13506Y6027D01*
X13175Y5697D01*
X8240D01*
X8103Y5670D01*
X7988Y5592D01*
X6883Y4487D01*
X6759Y4582D01*
X6552Y4668D01*
X6330Y4697D01*
X6108Y4668D01*
X5901Y4582D01*
X5724Y4446D01*
X5588Y4269D01*
X5502Y4062D01*
X5473Y3840D01*
X5502Y3618D01*
X5588Y3411D01*
X5724Y3234D01*
X5901Y3098D01*
X6108Y3012D01*
X6330Y2983D01*
X6552Y3012D01*
X6759Y3098D01*
X6936Y3234D01*
X7072Y3411D01*
X7116Y3517D01*
X7243Y3491D01*
Y2072D01*
X7171Y2042D01*
X6994Y1906D01*
X6858Y1729D01*
X6772Y1522D01*
X6743Y1300D01*
X6772Y1078D01*
X6858Y871D01*
X6994Y694D01*
X7171Y558D01*
X7378Y472D01*
X7600Y443D01*
X7822Y472D01*
X8029Y558D01*
X8206Y694D01*
X8342Y871D01*
X8428Y1078D01*
X8457Y1300D01*
X8428Y1522D01*
X8342Y1729D01*
X8206Y1906D01*
X8029Y2042D01*
X7957Y2072D01*
Y3491D01*
X8084Y3517D01*
X8128Y3411D01*
X8264Y3234D01*
X8441Y3098D01*
X8648Y3012D01*
X8870Y2983D01*
X9092Y3012D01*
X9299Y3098D01*
X9476Y3234D01*
X9612Y3411D01*
X9642Y3483D01*
X9792D01*
X10688Y2588D01*
X10803Y2510D01*
X10940Y2483D01*
X10938Y2357D01*
X10840D01*
X10703Y2330D01*
X10588Y2252D01*
X10434Y2098D01*
X10362Y2128D01*
X10140Y2157D01*
X9918Y2128D01*
X9711Y2042D01*
X9534Y1906D01*
X9398Y1729D01*
X9312Y1522D01*
X9283Y1300D01*
X9312Y1078D01*
X9398Y871D01*
X9534Y694D01*
X9711Y558D01*
X9918Y472D01*
X10140Y443D01*
X10362Y472D01*
X10569Y558D01*
X10746Y694D01*
X10882Y871D01*
X10968Y1078D01*
X10997Y1300D01*
X10968Y1522D01*
X10967Y1525D01*
X11055Y1643D01*
X15446D01*
X15582Y1670D01*
X15698Y1748D01*
X16238Y2288D01*
X17649D01*
X17785Y2315D01*
X17901Y2392D01*
X18576Y3067D01*
X18692Y3055D01*
X18718Y3030D01*
X20390Y1358D01*
X20383Y1300D01*
X20412Y1078D01*
X20498Y871D01*
X20634Y694D01*
X20811Y558D01*
X21018Y472D01*
X21240Y443D01*
X21462Y472D01*
X21669Y558D01*
X21846Y694D01*
X21982Y871D01*
X22068Y1078D01*
X22097Y1300D01*
X22068Y1522D01*
X21982Y1729D01*
X21846Y1906D01*
X21669Y2042D01*
X21462Y2128D01*
X21240Y2157D01*
X21018Y2128D01*
X20811Y2042D01*
X20757Y2001D01*
X19893Y2865D01*
X19952Y2985D01*
X19970Y2983D01*
X20192Y3012D01*
X20399Y3098D01*
X20576Y3234D01*
X20712Y3411D01*
X20798Y3618D01*
X20827Y3840D01*
X20798Y4062D01*
X20712Y4269D01*
X20576Y4446D01*
X20399Y4582D01*
X20192Y4668D01*
X19970Y4697D01*
X19952Y4695D01*
X19857Y4779D01*
Y5197D01*
X20952Y6293D01*
X21030Y6408D01*
X21057Y6545D01*
Y11150D01*
X22260D01*
Y12391D01*
X22280Y12405D01*
X22453Y12372D01*
X22491Y12315D01*
X22656Y12205D01*
X22851Y12166D01*
X23046Y12205D01*
X23212Y12315D01*
X23322Y12481D01*
X23347Y12605D01*
X23476Y12697D01*
X23485Y12695D01*
X23680Y12734D01*
X23846Y12844D01*
X23956Y13010D01*
X23995Y13205D01*
X23956Y13400D01*
X23846Y13565D01*
X23680Y13676D01*
X23485Y13715D01*
X23481Y13714D01*
X22942Y14252D01*
X22827Y14330D01*
X22690Y14357D01*
X22260D01*
Y14875D01*
X21310D01*
Y15125D01*
X22260D01*
Y15154D01*
X22342Y15170D01*
X22457Y15248D01*
X22662Y15453D01*
X22740Y15568D01*
X22764Y15693D01*
X23404D01*
X24818Y14279D01*
Y11606D01*
X24845Y11469D01*
X24853Y11457D01*
Y10550D01*
X24835D01*
Y9600D01*
Y8650D01*
X24853D01*
Y7600D01*
X24600D01*
X24400Y7400D01*
Y6400D01*
X24600Y6200D01*
X25400D01*
X25414Y6214D01*
X25513Y6194D01*
X25852D01*
X25901Y6077D01*
X25021Y5197D01*
X24636D01*
X24499Y5170D01*
X24383Y5092D01*
X24082Y4791D01*
X23960Y4828D01*
X23952Y4870D01*
X23841Y5035D01*
X23707Y5125D01*
Y7350D01*
X24462Y8106D01*
X24540Y8221D01*
X24567Y8358D01*
Y8650D01*
X24585D01*
Y9600D01*
Y10550D01*
X22860D01*
Y9634D01*
X22853Y9600D01*
Y9132D01*
X22630Y8909D01*
X22626Y8910D01*
X22431Y8871D01*
X22266Y8761D01*
X22155Y8595D01*
X22116Y8400D01*
X22155Y8205D01*
X22266Y8040D01*
X22407Y7945D01*
X22433Y7921D01*
X22456Y7795D01*
X22420Y7742D01*
X22393Y7605D01*
Y4682D01*
X22288Y4668D01*
X22081Y4582D01*
X21904Y4446D01*
X21768Y4269D01*
X21682Y4062D01*
X21653Y3840D01*
X21682Y3618D01*
X21768Y3411D01*
X21904Y3234D01*
X22081Y3098D01*
X22288Y3012D01*
X22510Y2983D01*
X22732Y3012D01*
X22939Y3098D01*
X23116Y3234D01*
X23252Y3411D01*
X23296Y3517D01*
X23423Y3491D01*
Y2072D01*
X23351Y2042D01*
X23174Y1906D01*
X23038Y1729D01*
X22952Y1522D01*
X22923Y1300D01*
X22952Y1078D01*
X23038Y871D01*
X23174Y694D01*
X23351Y558D01*
X23558Y472D01*
X23780Y443D01*
X24002Y472D01*
X24209Y558D01*
X24386Y694D01*
X24522Y871D01*
X24608Y1078D01*
X24637Y1300D01*
X24608Y1522D01*
X24522Y1729D01*
X24386Y1906D01*
X24209Y2042D01*
X24137Y2072D01*
Y3491D01*
X24264Y3517D01*
X24308Y3411D01*
X24444Y3234D01*
X24621Y3098D01*
X24828Y3012D01*
X25050Y2983D01*
X25272Y3012D01*
X25479Y3098D01*
X25656Y3234D01*
X25792Y3411D01*
X25878Y3618D01*
X25907Y3840D01*
X25878Y4062D01*
X25797Y4257D01*
X27962Y6421D01*
X28040Y6537D01*
X28067Y6674D01*
Y8650D01*
X28853D01*
Y6425D01*
X28880Y6288D01*
X28958Y6173D01*
X29733Y5397D01*
Y3426D01*
X29760Y3289D01*
X29838Y3173D01*
X30423Y2588D01*
X30539Y2510D01*
X30676Y2483D01*
X33917D01*
X34339Y2061D01*
X34331Y1935D01*
X34294Y1906D01*
X34158Y1729D01*
X34072Y1522D01*
X34043Y1300D01*
X34072Y1078D01*
X34158Y871D01*
X34294Y694D01*
X34471Y558D01*
X34678Y472D01*
X34900Y443D01*
X35122Y472D01*
X35329Y558D01*
X35506Y694D01*
X35642Y871D01*
X35728Y1078D01*
X35757Y1300D01*
X35728Y1522D01*
X35642Y1729D01*
X35543Y1859D01*
X35607Y1983D01*
X36252D01*
X36642Y1594D01*
X36612Y1522D01*
X36583Y1300D01*
X36612Y1078D01*
X36698Y871D01*
X36834Y694D01*
X37011Y558D01*
X37218Y472D01*
X37440Y443D01*
X37662Y472D01*
X37869Y558D01*
X38046Y694D01*
X38182Y871D01*
X38268Y1078D01*
X38297Y1300D01*
X38268Y1522D01*
X38182Y1729D01*
X38046Y1906D01*
X37869Y2042D01*
X37662Y2128D01*
X37440Y2157D01*
X37218Y2128D01*
X37146Y2098D01*
X36800Y2445D01*
X36811Y2562D01*
X36837Y2588D01*
X37732Y3483D01*
X37938D01*
X37968Y3411D01*
X38104Y3234D01*
X38281Y3098D01*
X38488Y3012D01*
X38710Y2983D01*
X38932Y3012D01*
X39139Y3098D01*
X39316Y3234D01*
X39452Y3411D01*
X39538Y3618D01*
X39567Y3840D01*
X39563Y3875D01*
X39677Y3982D01*
X39707Y3976D01*
X41533D01*
X41576Y3849D01*
X41482Y3778D01*
X41330Y3579D01*
X41234Y3348D01*
X41202Y3100D01*
X41234Y2852D01*
X41330Y2621D01*
X41482Y2422D01*
X41681Y2270D01*
X41912Y2174D01*
X42160Y2142D01*
X42408Y2174D01*
X42639Y2270D01*
X42838Y2422D01*
X42990Y2621D01*
X43086Y2852D01*
X43118Y3100D01*
X43086Y3348D01*
X42990Y3579D01*
X42981Y3590D01*
X43077Y3674D01*
X44163Y2588D01*
X44279Y2510D01*
X44416Y2483D01*
X45285D01*
X45422Y2510D01*
X45537Y2588D01*
X46433Y3483D01*
X46598D01*
X46628Y3411D01*
X46764Y3234D01*
X46941Y3098D01*
X47148Y3012D01*
X47370Y2983D01*
X47592Y3012D01*
X47799Y3098D01*
X47886Y3165D01*
X48013Y3102D01*
Y2805D01*
X48040Y2669D01*
X48118Y2553D01*
X48283Y2388D01*
Y2072D01*
X48211Y2042D01*
X48034Y1906D01*
X47898Y1729D01*
X47812Y1522D01*
X47783Y1300D01*
X47812Y1078D01*
X47898Y871D01*
X48034Y694D01*
X48211Y558D01*
X48418Y472D01*
X48640Y443D01*
X48862Y472D01*
X49069Y558D01*
X49246Y694D01*
X49382Y871D01*
X49468Y1078D01*
X49497Y1300D01*
X49468Y1522D01*
X49382Y1729D01*
X49246Y1906D01*
X49069Y2042D01*
X48997Y2072D01*
Y2215D01*
X49114Y2264D01*
X50330Y1048D01*
X50378Y1016D01*
X50438Y871D01*
X50574Y694D01*
X50751Y558D01*
X50958Y472D01*
X51180Y443D01*
X51402Y472D01*
X51609Y558D01*
X51786Y694D01*
X51922Y871D01*
X52008Y1078D01*
X52037Y1300D01*
X52008Y1522D01*
X51922Y1729D01*
X51786Y1906D01*
X51609Y2042D01*
X51402Y2128D01*
X51180Y2157D01*
X50958Y2128D01*
X50751Y2042D01*
X50574Y1906D01*
X50487Y1901D01*
X49345Y3042D01*
X49429Y3137D01*
X49481Y3098D01*
X49688Y3012D01*
X49910Y2983D01*
X50132Y3012D01*
X50339Y3098D01*
X50516Y3234D01*
X50652Y3411D01*
X50738Y3618D01*
X50753Y3727D01*
X50887Y3773D01*
X51072Y3588D01*
X51188Y3510D01*
X51324Y3483D01*
X51678D01*
X51708Y3411D01*
X51844Y3234D01*
X52021Y3098D01*
X52228Y3012D01*
X52450Y2983D01*
X52672Y3012D01*
X52879Y3098D01*
X53056Y3234D01*
X53192Y3411D01*
X53278Y3618D01*
X53307Y3840D01*
X53278Y4062D01*
X53192Y4269D01*
X53056Y4446D01*
X52879Y4582D01*
X52672Y4668D01*
X52450Y4697D01*
X52228Y4668D01*
X52021Y4582D01*
X51844Y4446D01*
X51708Y4269D01*
X51678Y4197D01*
X51472D01*
X50352Y5317D01*
X50236Y5394D01*
X50100Y5421D01*
X49829D01*
X48608Y6642D01*
X48492Y6720D01*
X48356Y6747D01*
X42527D01*
X42465Y6874D01*
X42570Y7011D01*
X42666Y7242D01*
X42698Y7490D01*
X42666Y7738D01*
X42570Y7969D01*
X42418Y8168D01*
X42219Y8320D01*
X41988Y8416D01*
X41740Y8448D01*
X41492Y8416D01*
X41261Y8320D01*
X41062Y8168D01*
X40910Y7969D01*
X40814Y7738D01*
X40782Y7490D01*
X40814Y7242D01*
X40910Y7011D01*
X41015Y6874D01*
X40953Y6747D01*
X40673D01*
X40327Y7092D01*
X40211Y7170D01*
X40075Y7197D01*
X37027D01*
X36571Y7652D01*
X36456Y7730D01*
X36319Y7757D01*
X33448D01*
X33067Y8138D01*
Y8650D01*
X33085D01*
Y9600D01*
Y10550D01*
X29912D01*
X29852Y10662D01*
X29871Y10690D01*
X29910Y10885D01*
X29871Y11080D01*
X29760Y11245D01*
X29595Y11356D01*
X29400Y11395D01*
X29205Y11356D01*
X29040Y11245D01*
X29037Y11242D01*
X28885D01*
X28748Y11215D01*
X28659Y11155D01*
X28535Y11182D01*
X28518Y11202D01*
X28410Y11362D01*
X28245Y11473D01*
X28050Y11511D01*
X27855Y11473D01*
X27690Y11362D01*
X27579Y11197D01*
X27540Y11002D01*
X27579Y10806D01*
X27666Y10677D01*
X27615Y10550D01*
X27067D01*
Y10942D01*
X27040Y11078D01*
X26962Y11194D01*
X26910Y11246D01*
X26911Y11251D01*
X26872Y11446D01*
X26762Y11611D01*
X26596Y11722D01*
X26401Y11760D01*
X26345Y11749D01*
X26268Y11863D01*
X26296Y11905D01*
X26335Y12100D01*
X26296Y12295D01*
X26185Y12460D01*
X26020Y12571D01*
X25825Y12610D01*
X25659Y12577D01*
X25532Y12647D01*
Y14427D01*
X25505Y14563D01*
X25427Y14679D01*
X23804Y16302D01*
X23688Y16380D01*
X23552Y16407D01*
X22767D01*
Y20549D01*
X22862Y20567D01*
X23027Y20678D01*
X23091Y20773D01*
X23110Y20786D01*
X23643Y21319D01*
X24313D01*
X24316Y21316D01*
X24481Y21205D01*
X24676Y21166D01*
X24871Y21205D01*
X25037Y21316D01*
X25147Y21481D01*
X25186Y21676D01*
X25147Y21871D01*
X25037Y22037D01*
X24871Y22147D01*
X24676Y22186D01*
X24481Y22147D01*
X24316Y22037D01*
X24313Y22033D01*
X23495D01*
X23359Y22006D01*
X23243Y21928D01*
X22830Y21516D01*
X22667Y21548D01*
X22662Y21547D01*
X22457Y21752D01*
X22342Y21830D01*
X22260Y21846D01*
Y21875D01*
X21310D01*
Y22125D01*
X22260D01*
Y22143D01*
X22412D01*
X22549Y22170D01*
X22664Y22248D01*
X23162Y22746D01*
X23240Y22861D01*
X23267Y22998D01*
Y24002D01*
X23240Y24139D01*
X23162Y24254D01*
X23084Y24333D01*
X23133Y24450D01*
X23720D01*
X23758Y24323D01*
X23740Y24310D01*
X23629Y24145D01*
X23590Y23950D01*
X23629Y23755D01*
X23740Y23590D01*
X23905Y23479D01*
X24100Y23440D01*
X24295Y23479D01*
X24460Y23590D01*
X24571Y23755D01*
X24589Y23843D01*
X25093D01*
X25153Y23731D01*
X25129Y23695D01*
X25090Y23500D01*
X25129Y23305D01*
X25239Y23139D01*
X25405Y23029D01*
X25600Y22990D01*
X25795Y23029D01*
X25960Y23139D01*
X26071Y23305D01*
X26110Y23500D01*
X26105Y23523D01*
X26108Y23525D01*
X26151Y23522D01*
X26257Y23489D01*
X26350Y23350D01*
X26515Y23239D01*
X26710Y23200D01*
X26905Y23239D01*
X27070Y23350D01*
X27181Y23515D01*
X27217Y23697D01*
X27239Y23721D01*
X27336Y23778D01*
X27366Y23763D01*
X27389Y23645D01*
X27500Y23480D01*
X27665Y23369D01*
X27860Y23330D01*
X28055Y23369D01*
X28220Y23480D01*
X28331Y23645D01*
X28370Y23840D01*
X28331Y24035D01*
X28220Y24200D01*
X28055Y24311D01*
X27995Y24323D01*
X28007Y24450D01*
X28085D01*
Y25400D01*
X28335D01*
Y24450D01*
X30085D01*
Y25400D01*
X30335D01*
Y24450D01*
X30570D01*
X30619Y24333D01*
X29673Y23387D01*
X29595Y23439D01*
X29400Y23478D01*
X29205Y23439D01*
X29040Y23329D01*
X28929Y23163D01*
X28890Y22968D01*
X28929Y22773D01*
X29040Y22608D01*
X29205Y22497D01*
X29400Y22458D01*
X29595Y22497D01*
X29760Y22608D01*
X29764Y22612D01*
X29895Y22639D01*
X30011Y22716D01*
X30206Y22911D01*
X30345Y22871D01*
X30439Y22730D01*
X30605Y22619D01*
X30800Y22580D01*
X30995Y22619D01*
X31160Y22730D01*
X31271Y22895D01*
X31303Y23058D01*
X31372Y23103D01*
X31483Y23059D01*
X31502Y23043D01*
X31529Y22905D01*
X31639Y22739D01*
X31805Y22629D01*
X32000Y22590D01*
X32195Y22629D01*
X32360Y22739D01*
X32471Y22905D01*
X32479Y22943D01*
X32720D01*
X32813Y22816D01*
X32790Y22700D01*
X32829Y22505D01*
X32939Y22339D01*
X33105Y22229D01*
X33300Y22190D01*
X33495Y22229D01*
X33660Y22339D01*
X33771Y22505D01*
X33810Y22700D01*
X33771Y22895D01*
X33762Y22908D01*
X34061Y23206D01*
X34178Y23144D01*
X34159Y23050D01*
X34198Y22855D01*
X34309Y22690D01*
X34474Y22579D01*
X34669Y22540D01*
X34864Y22579D01*
X35030Y22690D01*
X35140Y22855D01*
X35179Y23049D01*
X35223Y23091D01*
X35267Y23133D01*
X35380Y23098D01*
X35389Y23055D01*
X35500Y22890D01*
X35552Y22854D01*
X35558Y22698D01*
X35026Y22166D01*
X34932Y22147D01*
X34766Y22037D01*
X34656Y21871D01*
X34617Y21676D01*
X34656Y21481D01*
X34766Y21316D01*
X34932Y21205D01*
X35127Y21166D01*
X35322Y21205D01*
X35487Y21316D01*
X35598Y21481D01*
X35637Y21676D01*
X35621Y21752D01*
X36013Y22143D01*
X36160D01*
Y21150D01*
Y21125D01*
X37110D01*
X38060D01*
Y21143D01*
X42650D01*
X42787Y21170D01*
X42902Y21248D01*
X43949Y22294D01*
X45464D01*
X45467Y22291D01*
X45632Y22180D01*
X45827Y22141D01*
X46022Y22180D01*
X46188Y22291D01*
X46244Y22375D01*
X46277D01*
X46368Y22314D01*
X46406Y22307D01*
X46516Y22233D01*
X46750Y22186D01*
X47055D01*
X47290Y22233D01*
X47488Y22366D01*
X49206Y24084D01*
X49250Y24150D01*
X49500D01*
Y26700D01*
X49037D01*
Y28987D01*
X49057Y29018D01*
X49072Y29091D01*
X49088Y29116D01*
X49135Y29350D01*
X49088Y29584D01*
X49072Y29609D01*
X49057Y29682D01*
X48997Y29773D01*
X48906Y29834D01*
X48867Y29842D01*
X48757Y29915D01*
X48523Y29962D01*
X48289Y29915D01*
X48179Y29842D01*
X48141Y29834D01*
X48050Y29773D01*
X47989Y29682D01*
X47988Y29678D01*
X47860Y29486D01*
X47813Y29252D01*
Y26637D01*
X47212D01*
Y26851D01*
X47279Y26896D01*
X47355Y27010D01*
X47382Y27144D01*
Y28656D01*
X47355Y28790D01*
X47279Y28904D01*
X47165Y28980D01*
X47031Y29007D01*
X46169D01*
X46035Y28980D01*
X45921Y28904D01*
X45845Y28790D01*
X45818Y28656D01*
Y27144D01*
X45845Y27010D01*
X45921Y26896D01*
X45988Y26851D01*
Y26637D01*
X44197D01*
X44145Y26658D01*
X43975Y26681D01*
X43805Y26658D01*
X43647Y26593D01*
X43511Y26489D01*
X43407Y26353D01*
X43342Y26195D01*
X43319Y26025D01*
X43342Y25855D01*
X43407Y25697D01*
X43511Y25561D01*
X43647Y25457D01*
X43805Y25392D01*
X43975Y25369D01*
X44145Y25392D01*
X44197Y25413D01*
X47962D01*
X47992Y25368D01*
X48053Y25307D01*
X47972Y25208D01*
X47917Y25245D01*
X47722Y25284D01*
X47527Y25245D01*
X47362Y25134D01*
X47251Y24969D01*
X47212Y24774D01*
X47213Y24770D01*
X46924Y24481D01*
X43857D01*
X43720Y24453D01*
X43605Y24376D01*
X42358Y23130D01*
X42260Y23211D01*
X42275Y23234D01*
X42308Y23400D01*
Y24750D01*
X42275Y24916D01*
X42265Y24933D01*
X42220Y25046D01*
X42220Y25132D01*
Y26033D01*
X39680D01*
Y25017D01*
X39635Y24933D01*
X39625Y24916D01*
X39625Y24916D01*
X39623Y24909D01*
X39493Y24907D01*
X39300Y25100D01*
X38300D01*
X38100Y24900D01*
Y24100D01*
X38114Y24086D01*
X38094Y23988D01*
Y23963D01*
X38060Y23850D01*
X37144D01*
X37110Y23857D01*
X36823D01*
X36527Y24152D01*
X36412Y24230D01*
X36275Y24257D01*
X35601D01*
X35567Y24298D01*
Y25400D01*
X35560Y25434D01*
Y26350D01*
X35677Y26375D01*
X35860D01*
Y26893D01*
X36008D01*
X36028Y26791D01*
X36097Y26687D01*
X36201Y26618D01*
X36322Y26594D01*
X37097D01*
X37219Y26618D01*
X37323Y26687D01*
X37392Y26791D01*
X37416Y26913D01*
Y27587D01*
X37396Y27686D01*
X37410Y27700D01*
Y28500D01*
X37210Y28700D01*
X36210D01*
X36010Y28500D01*
Y27803D01*
X35883Y27716D01*
X35860Y27725D01*
Y27825D01*
X34160D01*
X34067Y27907D01*
Y27950D01*
X34040Y28087D01*
X33962Y28202D01*
X33560Y28605D01*
Y29577D01*
X33560Y29675D01*
X33677Y29700D01*
X34043D01*
X34160Y29675D01*
X34160Y29573D01*
Y28225D01*
X35860D01*
Y29675D01*
X34505D01*
X34452Y29802D01*
X34550Y29900D01*
Y30900D01*
X34350Y31100D01*
X33550D01*
X33536Y31086D01*
X33438Y31106D01*
X32763D01*
X32641Y31082D01*
X32537Y31013D01*
X32468Y30909D01*
X32444Y30788D01*
Y30013D01*
X32468Y29891D01*
X32527Y29802D01*
X32510Y29738D01*
X32477Y29675D01*
X31860D01*
Y28716D01*
X31743Y28667D01*
X31710Y28700D01*
X30710D01*
X30643Y28633D01*
X30516Y28686D01*
Y29288D01*
X30492Y29409D01*
X30423Y29513D01*
X30319Y29582D01*
X30198Y29606D01*
X29603D01*
X29578Y29644D01*
X29536Y29733D01*
X29556Y29881D01*
X29533Y30050D01*
X29468Y30208D01*
X29364Y30344D01*
X29228Y30448D01*
X29070Y30514D01*
X28900Y30536D01*
X28730Y30514D01*
X28572Y30448D01*
X28436Y30344D01*
X28332Y30208D01*
X28311Y30156D01*
X27877Y29723D01*
X27769Y29561D01*
X27697Y29513D01*
X27628Y29409D01*
X27604Y29288D01*
Y28686D01*
X27477Y28633D01*
X27410Y28700D01*
X26410D01*
X26348Y28638D01*
X25482Y29504D01*
X25366Y29581D01*
X25229Y29608D01*
X25163D01*
X25160Y29612D01*
X24995Y29723D01*
X24800Y29761D01*
X24605Y29723D01*
X24440Y29612D01*
X24329Y29447D01*
X24290Y29252D01*
X24329Y29057D01*
X24440Y28891D01*
X24605Y28781D01*
X24800Y28742D01*
X24995Y28781D01*
X25115Y28861D01*
X26129Y27848D01*
X26210Y27793D01*
Y27700D01*
X26224Y27686D01*
X26204Y27587D01*
Y26913D01*
X26228Y26791D01*
X26297Y26687D01*
X26401Y26618D01*
X26522Y26594D01*
X27297D01*
X27353Y26548D01*
Y26350D01*
X25556D01*
X25540Y26432D01*
X25462Y26547D01*
X24757Y27252D01*
X24642Y27330D01*
X24505Y27357D01*
X21993D01*
X18697Y30653D01*
Y32513D01*
X18824Y32575D01*
X18961Y32470D01*
X19192Y32374D01*
X19440Y32342D01*
X19688Y32374D01*
X19919Y32470D01*
X20118Y32622D01*
X20270Y32821D01*
X20366Y33052D01*
X20398Y33300D01*
X20366Y33548D01*
X20270Y33779D01*
X20118Y33978D01*
X19919Y34130D01*
X19688Y34226D01*
X19440Y34258D01*
X19192Y34226D01*
X18961Y34130D01*
X18762Y33978D01*
X18610Y33779D01*
X18536Y33600D01*
X18397Y33559D01*
X17811Y34145D01*
X17871Y34265D01*
X18040Y34243D01*
X18262Y34272D01*
X18469Y34358D01*
X18646Y34494D01*
X18782Y34671D01*
X18868Y34878D01*
X18897Y35100D01*
X18868Y35322D01*
X18782Y35529D01*
X18646Y35706D01*
X18469Y35842D01*
X18262Y35928D01*
X18040Y35957D01*
X17818Y35928D01*
X17611Y35842D01*
X17434Y35706D01*
X17298Y35529D01*
X17212Y35322D01*
X17183Y35100D01*
X17212Y34878D01*
X17298Y34671D01*
X17397Y34541D01*
X17333Y34417D01*
X16688D01*
X16298Y34806D01*
X16328Y34878D01*
X16357Y35100D01*
X16328Y35322D01*
X16242Y35529D01*
X16106Y35706D01*
X15929Y35842D01*
X15722Y35928D01*
X15500Y35957D01*
X15278Y35928D01*
X15071Y35842D01*
X14894Y35706D01*
X14758Y35529D01*
X14672Y35322D01*
X14657Y35213D01*
X14523Y35167D01*
X14317Y35374D01*
Y35514D01*
X14290Y35651D01*
X14212Y35767D01*
X13627Y36352D01*
X13511Y36430D01*
X13374Y36457D01*
D02*
G37*
G36*
X46750Y34298D02*
X46502Y34266D01*
X46271Y34170D01*
X46072Y34018D01*
X45920Y33819D01*
X45824Y33588D01*
X45792Y33340D01*
X45824Y33092D01*
X45920Y32861D01*
X46072Y32662D01*
X46271Y32510D01*
X46502Y32414D01*
X46750Y32382D01*
X46998Y32414D01*
X47229Y32510D01*
X47428Y32662D01*
X47580Y32861D01*
X47676Y33092D01*
X47708Y33340D01*
X47676Y33588D01*
X47580Y33819D01*
X47428Y34018D01*
X47229Y34170D01*
X46998Y34266D01*
X46750Y34298D01*
D02*
G37*
G36*
X30570D02*
X30322Y34266D01*
X30091Y34170D01*
X29892Y34018D01*
X29740Y33819D01*
X29644Y33588D01*
X29612Y33340D01*
X29644Y33092D01*
X29740Y32861D01*
X29892Y32662D01*
X30091Y32510D01*
X30322Y32414D01*
X30570Y32382D01*
X30818Y32414D01*
X31049Y32510D01*
X31248Y32662D01*
X31400Y32861D01*
X31496Y33092D01*
X31528Y33340D01*
X31496Y33588D01*
X31400Y33819D01*
X31248Y34018D01*
X31049Y34170D01*
X30818Y34266D01*
X30570Y34298D01*
D02*
G37*
G36*
X44080Y33457D02*
X43858Y33428D01*
X43651Y33342D01*
X43474Y33206D01*
X43338Y33029D01*
X43252Y32822D01*
X43223Y32600D01*
X43252Y32378D01*
X43338Y32171D01*
X43474Y31994D01*
X43651Y31858D01*
X43858Y31772D01*
X44080Y31743D01*
X44302Y31772D01*
X44509Y31858D01*
X44686Y31994D01*
X44822Y32171D01*
X44908Y32378D01*
X44937Y32600D01*
X44908Y32822D01*
X44822Y33029D01*
X44686Y33206D01*
X44509Y33342D01*
X44302Y33428D01*
X44080Y33457D01*
D02*
G37*
G36*
X41540D02*
X41318Y33428D01*
X41111Y33342D01*
X40934Y33206D01*
X40798Y33029D01*
X40712Y32822D01*
X40683Y32600D01*
X40712Y32378D01*
X40798Y32171D01*
X40934Y31994D01*
X41111Y31858D01*
X41318Y31772D01*
X41540Y31743D01*
X41762Y31772D01*
X41969Y31858D01*
X42146Y31994D01*
X42282Y32171D01*
X42368Y32378D01*
X42397Y32600D01*
X42368Y32822D01*
X42282Y33029D01*
X42146Y33206D01*
X41969Y33342D01*
X41762Y33428D01*
X41540Y33457D01*
D02*
G37*
G36*
X39000D02*
X38778Y33428D01*
X38571Y33342D01*
X38394Y33206D01*
X38258Y33029D01*
X38172Y32822D01*
X38143Y32600D01*
X38172Y32378D01*
X38258Y32171D01*
X38394Y31994D01*
X38571Y31858D01*
X38778Y31772D01*
X39000Y31743D01*
X39222Y31772D01*
X39429Y31858D01*
X39606Y31994D01*
X39742Y32171D01*
X39828Y32378D01*
X39857Y32600D01*
X39828Y32822D01*
X39742Y33029D01*
X39606Y33206D01*
X39429Y33342D01*
X39222Y33428D01*
X39000Y33457D01*
D02*
G37*
G36*
X36460D02*
X36238Y33428D01*
X36031Y33342D01*
X35854Y33206D01*
X35718Y33029D01*
X35632Y32822D01*
X35603Y32600D01*
X35632Y32378D01*
X35718Y32171D01*
X35854Y31994D01*
X36031Y31858D01*
X36238Y31772D01*
X36460Y31743D01*
X36682Y31772D01*
X36889Y31858D01*
X37066Y31994D01*
X37202Y32171D01*
X37288Y32378D01*
X37317Y32600D01*
X37288Y32822D01*
X37202Y33029D01*
X37066Y33206D01*
X36889Y33342D01*
X36682Y33428D01*
X36460Y33457D01*
D02*
G37*
G36*
X33920D02*
X33698Y33428D01*
X33491Y33342D01*
X33314Y33206D01*
X33178Y33029D01*
X33092Y32822D01*
X33063Y32600D01*
X33092Y32378D01*
X33178Y32171D01*
X33314Y31994D01*
X33491Y31858D01*
X33698Y31772D01*
X33920Y31743D01*
X34142Y31772D01*
X34349Y31858D01*
X34526Y31994D01*
X34662Y32171D01*
X34748Y32378D01*
X34777Y32600D01*
X34748Y32822D01*
X34662Y33029D01*
X34526Y33206D01*
X34349Y33342D01*
X34142Y33428D01*
X33920Y33457D01*
D02*
G37*
G36*
X27900D02*
X27678Y33428D01*
X27471Y33342D01*
X27294Y33206D01*
X27158Y33029D01*
X27072Y32822D01*
X27043Y32600D01*
X27072Y32378D01*
X27158Y32171D01*
X27294Y31994D01*
X27471Y31858D01*
X27678Y31772D01*
X27900Y31743D01*
X28122Y31772D01*
X28329Y31858D01*
X28506Y31994D01*
X28642Y32171D01*
X28728Y32378D01*
X28757Y32600D01*
X28728Y32822D01*
X28642Y33029D01*
X28506Y33206D01*
X28329Y33342D01*
X28122Y33428D01*
X27900Y33457D01*
D02*
G37*
G36*
X25360D02*
X25138Y33428D01*
X24931Y33342D01*
X24754Y33206D01*
X24618Y33029D01*
X24532Y32822D01*
X24503Y32600D01*
X24532Y32378D01*
X24618Y32171D01*
X24754Y31994D01*
X24931Y31858D01*
X25138Y31772D01*
X25360Y31743D01*
X25582Y31772D01*
X25789Y31858D01*
X25966Y31994D01*
X26102Y32171D01*
X26188Y32378D01*
X26217Y32600D01*
X26188Y32822D01*
X26102Y33029D01*
X25966Y33206D01*
X25789Y33342D01*
X25582Y33428D01*
X25360Y33457D01*
D02*
G37*
G36*
X22820D02*
X22598Y33428D01*
X22391Y33342D01*
X22214Y33206D01*
X22078Y33029D01*
X21992Y32822D01*
X21963Y32600D01*
X21992Y32378D01*
X22078Y32171D01*
X22214Y31994D01*
X22391Y31858D01*
X22598Y31772D01*
X22820Y31743D01*
X23042Y31772D01*
X23249Y31858D01*
X23426Y31994D01*
X23562Y32171D01*
X23648Y32378D01*
X23677Y32600D01*
X23648Y32822D01*
X23562Y33029D01*
X23426Y33206D01*
X23249Y33342D01*
X23042Y33428D01*
X22820Y33457D01*
D02*
G37*
G36*
X11690Y33417D02*
X11468Y33388D01*
X11261Y33302D01*
X11084Y33166D01*
X10948Y32989D01*
X10862Y32782D01*
X10833Y32560D01*
X10862Y32338D01*
X10948Y32131D01*
X11084Y31954D01*
X11261Y31818D01*
X11468Y31732D01*
X11690Y31703D01*
X11912Y31732D01*
X12119Y31818D01*
X12296Y31954D01*
X12432Y32131D01*
X12518Y32338D01*
X12547Y32560D01*
X12518Y32782D01*
X12432Y32989D01*
X12296Y33166D01*
X12119Y33302D01*
X11912Y33388D01*
X11690Y33417D01*
D02*
G37*
G36*
X3060Y30568D02*
X2812Y30536D01*
X2581Y30440D01*
X2382Y30288D01*
X2230Y30089D01*
X2134Y29858D01*
X2102Y29610D01*
X2134Y29362D01*
X2230Y29131D01*
X2382Y28932D01*
X2581Y28780D01*
X2812Y28684D01*
X3060Y28652D01*
X3308Y28684D01*
X3539Y28780D01*
X3738Y28932D01*
X3890Y29131D01*
X3986Y29362D01*
X4018Y29610D01*
X3986Y29858D01*
X3890Y30089D01*
X3738Y30288D01*
X3539Y30440D01*
X3308Y30536D01*
X3060Y30568D01*
D02*
G37*
G36*
X1260Y29067D02*
X1038Y29038D01*
X831Y28952D01*
X654Y28816D01*
X518Y28639D01*
X432Y28432D01*
X403Y28210D01*
X432Y27988D01*
X518Y27781D01*
X654Y27604D01*
X831Y27468D01*
X1038Y27382D01*
X1260Y27353D01*
X1482Y27382D01*
X1689Y27468D01*
X1866Y27604D01*
X2002Y27781D01*
X2088Y27988D01*
X2117Y28210D01*
X2088Y28432D01*
X2002Y28639D01*
X1866Y28816D01*
X1689Y28952D01*
X1482Y29038D01*
X1260Y29067D01*
D02*
G37*
G36*
X3800Y27797D02*
X3578Y27768D01*
X3371Y27682D01*
X3194Y27546D01*
X3058Y27369D01*
X2972Y27162D01*
X2943Y26940D01*
X2972Y26718D01*
X3058Y26511D01*
X3194Y26334D01*
X3371Y26198D01*
X3578Y26112D01*
X3800Y26083D01*
X4022Y26112D01*
X4229Y26198D01*
X4406Y26334D01*
X4542Y26511D01*
X4628Y26718D01*
X4657Y26940D01*
X4628Y27162D01*
X4542Y27369D01*
X4406Y27546D01*
X4229Y27682D01*
X4022Y27768D01*
X3800Y27797D01*
D02*
G37*
G36*
X1260Y26527D02*
X1038Y26498D01*
X831Y26412D01*
X654Y26276D01*
X518Y26099D01*
X432Y25892D01*
X403Y25670D01*
X432Y25448D01*
X518Y25241D01*
X654Y25064D01*
X831Y24928D01*
X1038Y24842D01*
X1260Y24813D01*
X1482Y24842D01*
X1689Y24928D01*
X1866Y25064D01*
X2002Y25241D01*
X2088Y25448D01*
X2117Y25670D01*
X2088Y25892D01*
X2002Y26099D01*
X1866Y26276D01*
X1689Y26412D01*
X1482Y26498D01*
X1260Y26527D01*
D02*
G37*
G36*
X3800Y25257D02*
X3578Y25228D01*
X3371Y25142D01*
X3194Y25006D01*
X3058Y24829D01*
X2972Y24622D01*
X2943Y24400D01*
X2972Y24178D01*
X3058Y23971D01*
X3194Y23794D01*
X3371Y23658D01*
X3578Y23572D01*
X3800Y23543D01*
X4022Y23572D01*
X4229Y23658D01*
X4406Y23794D01*
X4542Y23971D01*
X4628Y24178D01*
X4657Y24400D01*
X4628Y24622D01*
X4542Y24829D01*
X4406Y25006D01*
X4229Y25142D01*
X4022Y25228D01*
X3800Y25257D01*
D02*
G37*
G36*
X38060Y20875D02*
X37110D01*
X36160D01*
Y19857D01*
X35563D01*
X35560Y19860D01*
X35395Y19971D01*
X35200Y20010D01*
X35005Y19971D01*
X34840Y19860D01*
X34729Y19695D01*
X34690Y19500D01*
X34593Y19395D01*
X34474Y19371D01*
X34308Y19260D01*
X34198Y19095D01*
X34159Y18900D01*
X34198Y18705D01*
X34284Y18576D01*
X34339Y18460D01*
X34229Y18295D01*
X34190Y18100D01*
X34229Y17905D01*
X34339Y17739D01*
X34505Y17629D01*
X34682Y17594D01*
X34803Y17473D01*
X34754Y17356D01*
X32575D01*
X32575Y17356D01*
X32458Y17333D01*
X32359Y17266D01*
X32359Y17266D01*
X31939Y16847D01*
X31875Y16860D01*
X31680Y16821D01*
X31515Y16710D01*
X31404Y16545D01*
X31365Y16350D01*
X31404Y16155D01*
X31491Y16024D01*
X31550Y15910D01*
X31439Y15745D01*
X31400Y15550D01*
X31439Y15355D01*
X31550Y15190D01*
X31715Y15079D01*
X31910Y15040D01*
X32105Y15079D01*
X32270Y15190D01*
X32381Y15355D01*
X32417Y15534D01*
X33202Y16319D01*
X36041D01*
X36119Y16267D01*
X36160Y16259D01*
Y16125D01*
X37110D01*
X38060D01*
Y16650D01*
Y17819D01*
X38177Y17868D01*
X39546Y16500D01*
X39505Y16439D01*
X39466Y16244D01*
X39505Y16049D01*
X39616Y15883D01*
X39781Y15773D01*
X39976Y15734D01*
X40171Y15773D01*
X40337Y15883D01*
X40447Y16049D01*
X40486Y16244D01*
X40447Y16439D01*
X40337Y16604D01*
X40326Y16612D01*
X40306Y16710D01*
X40229Y16826D01*
X38302Y18752D01*
X38187Y18830D01*
X38060Y18855D01*
Y19274D01*
X38177Y19323D01*
X39513Y17988D01*
X39529Y17905D01*
X39640Y17740D01*
X39805Y17629D01*
X40000Y17590D01*
X40195Y17629D01*
X40360Y17740D01*
X40471Y17905D01*
X40510Y18100D01*
X40471Y18295D01*
X40360Y18460D01*
X40195Y18571D01*
X40000Y18610D01*
X39916Y18593D01*
X39184Y19326D01*
X39232Y19443D01*
X39477D01*
X39480Y19440D01*
X39645Y19329D01*
X39840Y19290D01*
X40035Y19329D01*
X40200Y19440D01*
X40311Y19605D01*
X40350Y19800D01*
X40311Y19995D01*
X40200Y20160D01*
X40035Y20271D01*
X39840Y20310D01*
X39645Y20271D01*
X39480Y20160D01*
X39477Y20157D01*
X39060D01*
X38464Y20752D01*
X38349Y20830D01*
X38212Y20857D01*
X38060D01*
Y20875D01*
D02*
G37*
G36*
X47025Y20804D02*
X46475D01*
X46368Y20782D01*
X46277Y20721D01*
X46216Y20631D01*
X46195Y20523D01*
Y20209D01*
X46132Y20128D01*
X46067Y19970D01*
X46044Y19800D01*
X46067Y19630D01*
X46132Y19472D01*
X46236Y19336D01*
X46372Y19232D01*
X46530Y19167D01*
X46700Y19144D01*
X46870Y19167D01*
X47028Y19232D01*
X47164Y19336D01*
X47268Y19472D01*
X47333Y19630D01*
X47356Y19800D01*
X47333Y19970D01*
X47301Y20049D01*
X47305Y20073D01*
Y20523D01*
X47284Y20631D01*
X47223Y20721D01*
X47132Y20782D01*
X47025Y20804D01*
D02*
G37*
G36*
X38060Y15875D02*
X37110D01*
X36160D01*
Y15857D01*
X35476D01*
X35411Y15844D01*
X35327Y15861D01*
X35132Y15822D01*
X34966Y15711D01*
X34900Y15612D01*
X34740Y15566D01*
X34722Y15578D01*
X34527Y15617D01*
X34332Y15578D01*
X34166Y15467D01*
X34056Y15302D01*
X34017Y15107D01*
X33905Y15021D01*
X33782Y14997D01*
X33616Y14886D01*
X33506Y14721D01*
X33467Y14526D01*
X33506Y14331D01*
X33616Y14165D01*
X33782Y14055D01*
X33977Y14016D01*
X34172Y14055D01*
X34337Y14165D01*
X34471Y14167D01*
X34504Y14134D01*
X34504Y14134D01*
X34604Y14067D01*
X34721Y14044D01*
X35589D01*
X35637Y13927D01*
X35218Y13507D01*
X35202Y13510D01*
X35007Y13472D01*
X34841Y13361D01*
X34731Y13196D01*
X34726Y13171D01*
X34628Y13130D01*
X34588Y13131D01*
X34461Y13157D01*
X34388D01*
X34385Y13160D01*
X34220Y13271D01*
X34025Y13310D01*
X33830Y13271D01*
X33665Y13160D01*
X33554Y12995D01*
X33515Y12800D01*
X33548Y12634D01*
X33478Y12507D01*
X33263D01*
X33210Y12585D01*
X33045Y12696D01*
X32850Y12735D01*
X32655Y12696D01*
X32490Y12585D01*
X32379Y12420D01*
X32340Y12225D01*
X32354Y12155D01*
X32237Y12093D01*
X31984Y12346D01*
X31985Y12350D01*
X31946Y12545D01*
X31835Y12710D01*
X31670Y12821D01*
X31475Y12860D01*
X31280Y12821D01*
X31115Y12710D01*
X31004Y12545D01*
X30965Y12350D01*
X31004Y12155D01*
X31115Y11990D01*
X31280Y11879D01*
X31475Y11840D01*
X31479Y11841D01*
X31999Y11321D01*
X32115Y11244D01*
X32252Y11216D01*
X33567D01*
X33635Y11089D01*
X33606Y11046D01*
X33568Y10858D01*
X33458Y10747D01*
X33380Y10632D01*
X33364Y10550D01*
X33335D01*
Y9600D01*
Y8650D01*
X33853D01*
Y8620D01*
X33880Y8483D01*
X33958Y8368D01*
X34078Y8248D01*
X34193Y8170D01*
X34330Y8143D01*
X35505D01*
X35642Y8170D01*
X35757Y8248D01*
X37312Y9803D01*
X37390Y9918D01*
X37409Y10015D01*
X37520Y10090D01*
X37631Y10255D01*
X37670Y10450D01*
X37631Y10645D01*
X37520Y10810D01*
X37355Y10921D01*
X37160Y10960D01*
X36965Y10921D01*
X36800Y10810D01*
X36689Y10645D01*
X36650Y10450D01*
X36689Y10255D01*
X36703Y10234D01*
Y10203D01*
X35677Y9177D01*
X35560Y9226D01*
Y9566D01*
X35567Y9600D01*
Y10204D01*
X35588Y10309D01*
Y11054D01*
X35715Y11152D01*
X35761Y11143D01*
X37110D01*
X37144Y11150D01*
X38060D01*
Y11643D01*
X40300D01*
X40437Y11670D01*
X40552Y11748D01*
X40706Y11902D01*
X40778Y11872D01*
X41000Y11843D01*
X41222Y11872D01*
X41429Y11958D01*
X41606Y12094D01*
X41742Y12271D01*
X41828Y12478D01*
X41857Y12700D01*
X41848Y12767D01*
X41969Y12827D01*
X42858Y11937D01*
X42798Y11859D01*
X42712Y11652D01*
X42683Y11430D01*
X42712Y11208D01*
X42798Y11001D01*
X42934Y10824D01*
X43111Y10688D01*
X43318Y10602D01*
X43540Y10573D01*
X43762Y10602D01*
X43969Y10688D01*
X44146Y10824D01*
X44282Y11001D01*
X44368Y11208D01*
X44397Y11430D01*
X44368Y11652D01*
X44282Y11859D01*
X44146Y12036D01*
X43969Y12172D01*
X43762Y12258D01*
X43540Y12287D01*
X43520Y12285D01*
X42079Y13726D01*
X42127Y13843D01*
X44121D01*
X44129Y13805D01*
X44239Y13639D01*
X44405Y13529D01*
X44600Y13490D01*
X44795Y13529D01*
X44855Y13421D01*
X44866Y13381D01*
X44811Y13299D01*
X44773Y13104D01*
X44811Y12909D01*
X44922Y12744D01*
X45087Y12633D01*
X45282Y12594D01*
X45478Y12633D01*
X45643Y12744D01*
X45753Y12909D01*
X45792Y13104D01*
X45753Y13299D01*
X45643Y13465D01*
X45639Y13467D01*
Y14237D01*
X45612Y14373D01*
X45535Y14489D01*
X45071Y14952D01*
X44956Y15030D01*
X44819Y15057D01*
X40172D01*
X40035Y15030D01*
X39919Y14952D01*
X38824Y13857D01*
X38060D01*
Y14650D01*
Y15650D01*
Y15875D01*
D02*
G37*
G36*
X41000Y11017D02*
X40778Y10988D01*
X40571Y10902D01*
X40394Y10766D01*
X40258Y10589D01*
X40172Y10382D01*
X40143Y10160D01*
X40172Y9938D01*
X40258Y9731D01*
X40394Y9554D01*
X40571Y9418D01*
X40778Y9332D01*
X41000Y9303D01*
X41222Y9332D01*
X41429Y9418D01*
X41606Y9554D01*
X41742Y9731D01*
X41828Y9938D01*
X41857Y10160D01*
X41828Y10382D01*
X41742Y10589D01*
X41606Y10766D01*
X41429Y10902D01*
X41222Y10988D01*
X41000Y11017D01*
D02*
G37*
G36*
X28420Y4058D02*
X28172Y4026D01*
X27941Y3930D01*
X27742Y3778D01*
X27590Y3579D01*
X27494Y3348D01*
X27462Y3100D01*
X27494Y2852D01*
X27590Y2621D01*
X27742Y2422D01*
X27941Y2270D01*
X28172Y2174D01*
X28420Y2142D01*
X28668Y2174D01*
X28899Y2270D01*
X29098Y2422D01*
X29250Y2621D01*
X29346Y2852D01*
X29378Y3100D01*
X29346Y3348D01*
X29250Y3579D01*
X29098Y3778D01*
X28899Y3930D01*
X28668Y4026D01*
X28420Y4058D01*
D02*
G37*
G36*
X46100Y2157D02*
X45878Y2128D01*
X45671Y2042D01*
X45494Y1906D01*
X45358Y1729D01*
X45272Y1522D01*
X45243Y1300D01*
X45272Y1078D01*
X45358Y871D01*
X45494Y694D01*
X45671Y558D01*
X45878Y472D01*
X46100Y443D01*
X46322Y472D01*
X46529Y558D01*
X46706Y694D01*
X46842Y871D01*
X46928Y1078D01*
X46957Y1300D01*
X46928Y1522D01*
X46842Y1729D01*
X46706Y1906D01*
X46529Y2042D01*
X46322Y2128D01*
X46100Y2157D01*
D02*
G37*
G36*
X32360D02*
X32138Y2128D01*
X31931Y2042D01*
X31754Y1906D01*
X31618Y1729D01*
X31532Y1522D01*
X31503Y1300D01*
X31532Y1078D01*
X31618Y871D01*
X31754Y694D01*
X31931Y558D01*
X32138Y472D01*
X32360Y443D01*
X32582Y472D01*
X32789Y558D01*
X32966Y694D01*
X33102Y871D01*
X33188Y1078D01*
X33217Y1300D01*
X33188Y1522D01*
X33102Y1729D01*
X32966Y1906D01*
X32789Y2042D01*
X32582Y2128D01*
X32360Y2157D01*
D02*
G37*
G36*
X18700D02*
X18478Y2128D01*
X18271Y2042D01*
X18094Y1906D01*
X17958Y1729D01*
X17872Y1522D01*
X17843Y1300D01*
X17872Y1078D01*
X17958Y871D01*
X18094Y694D01*
X18271Y558D01*
X18478Y472D01*
X18700Y443D01*
X18922Y472D01*
X19129Y558D01*
X19306Y694D01*
X19442Y871D01*
X19528Y1078D01*
X19557Y1300D01*
X19528Y1522D01*
X19442Y1729D01*
X19306Y1906D01*
X19129Y2042D01*
X18922Y2128D01*
X18700Y2157D01*
D02*
G37*
G36*
X5060D02*
X4838Y2128D01*
X4631Y2042D01*
X4454Y1906D01*
X4318Y1729D01*
X4232Y1522D01*
X4203Y1300D01*
X4232Y1078D01*
X4318Y871D01*
X4454Y694D01*
X4631Y558D01*
X4838Y472D01*
X5060Y443D01*
X5282Y472D01*
X5489Y558D01*
X5666Y694D01*
X5802Y871D01*
X5888Y1078D01*
X5917Y1300D01*
X5888Y1522D01*
X5802Y1729D01*
X5666Y1906D01*
X5489Y2042D01*
X5282Y2128D01*
X5060Y2157D01*
D02*
G37*
%LPD*%
D14*
X40683Y23800D02*
X41700D01*
X40533Y23650D02*
X40683Y23800D01*
X38800Y23650D02*
X40533D01*
X46600Y19900D02*
X46700Y19800D01*
X25700Y6900D02*
X25850D01*
D15*
X35963Y14950D02*
X37110D01*
X34527Y15107D02*
X34529D01*
X34721Y14350D02*
X35929D01*
X34571Y14500D02*
X34721Y14350D01*
X34002Y14500D02*
X34571D01*
X31910Y15550D02*
X32000D01*
X31875Y16350D02*
X32575Y17050D01*
X13251Y19976D02*
X14200D01*
X15176Y19000D01*
X13362Y20582D02*
X14159D01*
X13129Y20815D02*
X13362Y20582D01*
X13050Y20815D02*
X13129D01*
X15176Y19000D02*
X17395D01*
X15341Y19400D02*
X17560D01*
X14159Y20582D02*
X15341Y19400D01*
X15471Y20044D02*
X15515Y20000D01*
X17526D01*
X35929Y14350D02*
X36079Y14500D01*
X35763Y14750D02*
X35963Y14950D01*
X34886Y14750D02*
X35763D01*
X34529Y15107D02*
X34886Y14750D01*
X33977Y14526D02*
X34002Y14500D01*
X36079D02*
X37110D01*
X32000Y15550D02*
X33075Y16625D01*
X36161D01*
X36236Y16550D01*
X37060D02*
X37110Y16500D01*
X36236Y16550D02*
X37060D01*
X32575Y17050D02*
X37060D01*
X37110Y17000D01*
Y14950D02*
Y15000D01*
X37060Y14450D02*
X37110Y14500D01*
X17526Y20000D02*
X20026Y17500D01*
X17560Y19400D02*
X19960Y17000D01*
X17395Y19000D02*
X19895Y16500D01*
X17400Y23120D02*
X17850Y22670D01*
Y20951D02*
Y22670D01*
X17826Y20928D02*
X17850Y20951D01*
X17826Y20265D02*
Y20928D01*
Y20265D02*
X20092Y18000D01*
X17800Y23286D02*
X18250Y22836D01*
Y20786D02*
Y22836D01*
X18226Y20762D02*
X18250Y20786D01*
X18226Y20431D02*
Y20762D01*
Y20431D02*
X20157Y18500D01*
X18650Y20620D02*
Y23001D01*
X18200Y23451D02*
X18650Y23001D01*
X18800Y23700D02*
X19050Y23450D01*
Y20739D02*
Y23450D01*
Y20739D02*
X20239Y19550D01*
X18626Y20597D02*
X20223Y19000D01*
X18626Y20597D02*
X18626D01*
X18626D02*
X18650Y20620D01*
X19460Y20894D02*
Y24789D01*
Y20894D02*
X20354Y20000D01*
X19860Y21060D02*
Y24954D01*
Y21060D02*
X20370Y20550D01*
X20260Y21226D02*
Y25120D01*
Y21226D02*
X20486Y21000D01*
X17400Y23120D02*
Y24300D01*
X17800Y23286D02*
Y25600D01*
X18200Y23451D02*
Y24500D01*
X18400Y24700D01*
X17500Y25900D02*
X17800Y25600D01*
X15001Y29801D02*
X15578D01*
X14701Y29201D02*
X15613D01*
X14201Y29701D02*
X14701Y29201D01*
X14797Y28600D02*
X15649D01*
X14201Y29701D02*
X14227D01*
X15578Y29801D02*
X20260Y25120D01*
X15613Y29201D02*
X19860Y24954D01*
X15649Y28600D02*
X19460Y24789D01*
X7490Y14210D02*
X8000D01*
X19895Y16500D02*
X21310D01*
X19960Y17000D02*
X21310D01*
X20026Y17500D02*
X21310D01*
X17200Y24500D02*
X17400Y24300D01*
X20092Y18000D02*
X21310D01*
X20157Y18500D02*
X21310D01*
X20486Y21000D02*
X21310D01*
X20370Y20550D02*
X21260D01*
X20354Y20000D02*
X21310D01*
X20239Y19550D02*
X21260D01*
X20223Y19000D02*
X21310D01*
X21260Y20550D02*
X21310Y20500D01*
X21260Y19550D02*
X21310Y19500D01*
D33*
X24150Y6900D02*
D03*
X25850D02*
D03*
X10350Y24800D02*
D03*
X12050D02*
D03*
X10350Y23400D02*
D03*
X12050D02*
D03*
X34800Y30400D02*
D03*
X33100D02*
D03*
D38*
X5750Y10950D02*
D03*
Y12650D02*
D03*
X15200Y9050D02*
D03*
Y10750D02*
D03*
X15100Y17580D02*
D03*
Y15880D02*
D03*
X6050Y18650D02*
D03*
Y16950D02*
D03*
X28310Y28950D02*
D03*
Y27250D02*
D03*
X29810Y28950D02*
D03*
Y27250D02*
D03*
X31210Y28950D02*
D03*
Y27250D02*
D03*
X36710Y28950D02*
D03*
Y27250D02*
D03*
X38800Y25350D02*
D03*
Y23650D02*
D03*
X26910Y28950D02*
D03*
Y27250D02*
D03*
X14800Y23850D02*
D03*
Y22150D02*
D03*
D46*
X8240Y5340D02*
X13323D01*
X13758Y5775D01*
X15686D01*
X17319Y7408D02*
Y9458D01*
X15686Y5775D02*
X17319Y7408D01*
X17819Y7201D02*
Y9251D01*
X15893Y5275D02*
X17819Y7201D01*
X13965Y5275D02*
X15893D01*
X13530Y4840D02*
X13965Y5275D01*
X35125Y21790D02*
X35155D01*
X22410Y15925D02*
Y21295D01*
X43200Y8500D02*
X43600Y8900D01*
X33210Y8705D02*
X33985Y7930D01*
X14889Y17580D02*
X15100D01*
X14449Y18020D02*
X14889Y17580D01*
X13400Y18020D02*
X14449D01*
X44819Y14700D02*
X45282Y14237D01*
Y13104D02*
Y14237D01*
X40172Y14700D02*
X44819D01*
X24800Y29252D02*
X25229D01*
X26381Y28100D01*
X43891Y23451D02*
X46077D01*
X42440Y22000D02*
X43891Y23451D01*
X43801Y22651D02*
X45827D01*
X42650Y21500D02*
X43801Y22651D01*
X42233Y22500D02*
X43857Y24124D01*
X47072D01*
X47722Y24774D01*
X37110Y21500D02*
X42650D01*
X39053Y22500D02*
X42233D01*
X38902Y22651D02*
X39053Y22500D01*
X38210Y23060D02*
X38800Y23650D01*
X38210Y22705D02*
Y23060D01*
X38018Y22513D02*
X38210Y22705D01*
X38018Y22500D02*
Y22513D01*
X38912Y19800D02*
X39840D01*
X38212Y20500D02*
X38912Y19800D01*
X37110Y20500D02*
X38212D01*
X38005Y20000D02*
X39905Y18100D01*
X40000D01*
X37110Y20000D02*
X38005D01*
X37110Y22000D02*
X42440D01*
X37110Y22500D02*
X38018D01*
X23350Y4806D02*
Y7498D01*
Y4806D02*
X23481Y4675D01*
X27710Y6674D02*
Y9600D01*
X25376Y4340D02*
X27710Y6674D01*
X25215Y4340D02*
X25376D01*
X25050Y4175D02*
X25215Y4340D01*
X25050Y3840D02*
Y4175D01*
X27210Y6881D02*
Y9600D01*
X25169Y4840D02*
X27210Y6881D01*
X24636Y4840D02*
X25169D01*
X35327Y15351D02*
X35476Y15500D01*
X37110D01*
X35305Y13090D02*
X36215Y14000D01*
X37110D01*
X35216Y13001D02*
X35305Y13090D01*
X34404Y12150D02*
X35231Y11323D01*
Y10309D02*
Y11323D01*
X35210Y10288D02*
X35231Y10309D01*
X35210Y9600D02*
Y10288D01*
X34273Y11573D02*
X34731Y11116D01*
X32252Y11573D02*
X34273D01*
X32925Y12150D02*
X34404D01*
X34461Y12800D02*
X35761Y11500D01*
X34025Y12800D02*
X34461D01*
X35761Y11500D02*
X37110D01*
X35202Y13001D02*
X35216D01*
X34731Y10516D02*
Y11116D01*
X34710Y10495D02*
X34731Y10516D01*
X32850Y12225D02*
X32925Y12150D01*
X31475Y12350D02*
X32252Y11573D01*
X28710Y10710D02*
X28885Y10885D01*
X29400D01*
X28000Y11002D02*
X28210Y10792D01*
X32820Y10885D02*
X33210Y10495D01*
Y9600D02*
Y10495D01*
X34066Y10851D02*
X34077D01*
X33710Y10495D02*
X34066Y10851D01*
X33710Y9600D02*
Y10495D01*
X34027Y10900D02*
X34077Y10851D01*
X34710Y9600D02*
Y10495D01*
X37060Y10055D02*
Y10450D01*
X34330Y8500D02*
X35505D01*
X33985Y7930D02*
X40624D01*
X35505Y8500D02*
X37060Y10055D01*
X34210Y8620D02*
X34330Y8500D01*
X28710Y9600D02*
Y10710D01*
X34700Y18081D02*
Y18100D01*
X35500Y18200D02*
X35700D01*
X34669Y18900D02*
X34719Y18850D01*
X35619Y19000D02*
X37110D01*
X35469Y18850D02*
X35619Y19000D01*
X34719Y18850D02*
X35469D01*
X35200Y19500D02*
X37110D01*
X34700Y18081D02*
X35281Y17500D01*
X37110D01*
X35900Y18000D02*
X37110D01*
X35700Y18200D02*
X35900Y18000D01*
X35155Y21790D02*
X35865Y22500D01*
X35127Y21676D02*
Y21788D01*
X35125Y21790D02*
X35127Y21788D01*
X35865Y22500D02*
X37110D01*
X23495Y21676D02*
X24676D01*
X22858Y21038D02*
X23495Y21676D01*
X22667Y21038D02*
X22858D01*
X35860Y23250D02*
X36110Y23000D01*
X37110D01*
X36675Y23500D02*
X37110D01*
X36275Y23900D02*
X36675Y23500D01*
X35519Y23900D02*
X36275D01*
X34669Y23050D02*
X35519Y23900D01*
X25175Y11606D02*
Y14427D01*
X24710Y7710D02*
Y9600D01*
X24150Y7150D02*
X24710Y7710D01*
X24150Y6900D02*
Y7150D01*
X18894Y6860D02*
Y8250D01*
X9940Y3840D02*
X10940Y2840D01*
X8870Y3840D02*
X9940D01*
X19695Y16000D02*
X21310D01*
X19269Y15574D02*
X19695Y16000D01*
X19269Y14061D02*
Y15574D01*
X18128Y12920D02*
X19269Y14061D01*
X18128Y10267D02*
Y12920D01*
X17319Y9458D02*
X18128Y10267D01*
X18319Y9044D02*
X19128Y9853D01*
X18319Y6994D02*
Y9044D01*
X16025Y4700D02*
X18319Y6994D01*
X16234Y4200D02*
X18894Y6860D01*
X18628Y12713D02*
X20415Y14500D01*
X18628Y10060D02*
Y12713D01*
X17819Y9251D02*
X18628Y10060D01*
X20415Y14500D02*
X21310D01*
X13440Y12900D02*
X13447Y12907D01*
X22851Y12676D02*
Y12854D01*
X22205Y13500D02*
X22851Y12854D01*
X21310Y13500D02*
X22205D01*
X22690Y14000D02*
X23485Y13205D01*
X21310Y14000D02*
X22690D01*
X23552Y16050D02*
X25175Y14427D01*
X22535Y16050D02*
X23552D01*
X22410Y15925D02*
X22535Y16050D01*
X25751Y10981D02*
Y12026D01*
X25825Y12100D01*
X22410Y15705D02*
Y15925D01*
X22205Y15500D02*
X22410Y15705D01*
X19128Y12127D02*
X20001Y13000D01*
X19128Y9853D02*
Y12127D01*
X19628Y11920D02*
X20208Y12500D01*
X19628Y6887D02*
Y11920D01*
X20415Y12000D02*
X21310D01*
X20200Y11785D02*
X20415Y12000D01*
X20200Y6752D02*
Y11785D01*
X20208Y12500D02*
X21310D01*
X14770Y14600D02*
X15000D01*
X20001Y13000D02*
X21310D01*
X13890Y15480D02*
X14770Y14600D01*
X8456Y4840D02*
X13530D01*
X14097Y4700D02*
X16025D01*
X13237Y3840D02*
X14097Y4700D01*
X11410Y3840D02*
X13237D01*
X14304Y4200D02*
X16234D01*
X18470Y5729D02*
X19628Y6887D01*
X18470Y3466D02*
Y5729D01*
X18970Y5522D02*
X20200Y6752D01*
X18970Y3283D02*
Y5522D01*
X19500Y5345D02*
X20700Y6545D01*
X19500Y4310D02*
Y5345D01*
X20700Y6545D02*
Y11475D01*
X10940Y2840D02*
X12944D01*
X14304Y4200D01*
X16090Y2644D02*
X17649D01*
X15446Y2000D02*
X16090Y2644D01*
X17649D02*
X18470Y3466D01*
X10840Y2000D02*
X15446D01*
X6400Y6975D02*
X10575D01*
X3790Y4365D02*
X6400Y6975D01*
X3790Y3840D02*
Y4365D01*
X10575Y6975D02*
X12275Y8675D01*
Y9949D01*
X12726Y10400D01*
X19500Y4310D02*
X19970Y3840D01*
X18970Y3283D02*
X20953Y1300D01*
X10140D02*
X10840Y2000D01*
X23210Y8984D02*
Y9600D01*
X22626Y8400D02*
X23210Y8984D01*
X23710Y8565D02*
Y9600D01*
X22750Y7605D02*
X23710Y8565D01*
X22750Y4333D02*
Y7605D01*
X24210Y8358D02*
Y9600D01*
X23350Y7498D02*
X24210Y8358D01*
X26401Y11251D02*
X26710Y10942D01*
Y9600D02*
Y10942D01*
X25751Y10981D02*
X26210Y10523D01*
Y9600D02*
Y10523D01*
X25175Y11606D02*
X25210Y11571D01*
Y9600D02*
Y11571D01*
X42923Y4333D02*
X44416Y2840D01*
X39707Y4333D02*
X42923D01*
X39200Y4840D02*
X39707Y4333D01*
X40075Y6840D02*
X40525Y6390D01*
X36879Y6840D02*
X40075D01*
X36319Y7400D02*
X36879Y6840D01*
X39860Y6340D02*
X40360Y5840D01*
X36460Y6340D02*
X39860D01*
X36300Y6500D02*
X36460Y6340D01*
X33301Y7400D02*
X36319D01*
X32710Y7991D02*
X33301Y7400D01*
X40153Y5340D02*
X47991D01*
X39653Y5840D02*
X40153Y5340D01*
X36027Y5840D02*
X39653D01*
X39946Y4840D02*
X47784D01*
X39446Y5340D02*
X39946Y4840D01*
X35820Y5340D02*
X39446D01*
X35567Y4840D02*
X39200D01*
X34967Y6900D02*
X36027Y5840D01*
X34760Y6400D02*
X35820Y5340D01*
X32773Y6400D02*
X34760D01*
X34567Y5840D02*
X35567Y4840D01*
X32626Y5840D02*
X34567D01*
X37584Y3840D02*
X38710D01*
X36584Y2840D02*
X37584Y3840D01*
X35756Y2840D02*
X36584D01*
X35130Y3466D02*
X35756Y2840D01*
X35130Y3466D02*
Y4570D01*
X34360Y5340D02*
X35130Y4570D01*
X32418Y5340D02*
X34360D01*
X36400Y2340D02*
X37440Y1300D01*
X35549Y2340D02*
X36400D01*
X34630Y3259D02*
X35549Y2340D01*
X34630Y3259D02*
Y4306D01*
X34096Y4840D02*
X34630Y4306D01*
X32211Y4840D02*
X34096D01*
X34900Y1300D02*
Y2005D01*
X34065Y2840D02*
X34900Y2005D01*
X30676Y2840D02*
X34065D01*
X40360Y5840D02*
X48198D01*
X40525Y6390D02*
X48356D01*
X32981Y6900D02*
X34967D01*
X32710Y7991D02*
Y9600D01*
X32210Y7671D02*
X32981Y6900D01*
X32210Y7671D02*
Y9600D01*
X31710Y7463D02*
X32773Y6400D01*
X31710Y7463D02*
Y9600D01*
X31210Y7256D02*
X32626Y5840D01*
X31210Y7256D02*
Y9600D01*
X30710Y7048D02*
X32418Y5340D01*
X30710Y7048D02*
Y9600D01*
X30210Y6841D02*
X32211Y4840D01*
X30210Y6841D02*
Y9600D01*
X30090Y3426D02*
Y5545D01*
X29210Y6425D02*
X30090Y5545D01*
X29210Y6425D02*
Y9600D01*
X29710Y6634D02*
X32504Y3840D01*
X29710Y6634D02*
Y9600D01*
X32504Y3840D02*
X33630D01*
X30090Y3426D02*
X30676Y2840D01*
X33210Y8705D02*
Y9600D01*
X34210Y8620D02*
Y9600D01*
X40624Y7930D02*
X41284Y8590D01*
X42286Y8500D02*
X43200D01*
X42196Y8590D02*
X42286Y8500D01*
X41284Y8590D02*
X42196D01*
X14135Y21200D02*
X17250D01*
X17250Y21200D01*
X14328Y14210D02*
X14800Y13738D01*
X13400Y14210D02*
X14328D01*
X13789Y21200D02*
X14135D01*
X13039Y21950D02*
X13789Y21200D01*
X7650Y21950D02*
X13039D01*
X7400Y22200D02*
X7650Y21950D01*
X13550Y22150D02*
X14800D01*
X13200Y22500D02*
X13550Y22150D01*
X11350Y22500D02*
X13200D01*
X18340Y30505D02*
X21845Y27000D01*
X17840Y30298D02*
X21638Y26500D01*
X16770Y30660D02*
X21430Y26000D01*
X15770Y30953D02*
X21223Y25500D01*
X15270Y30746D02*
X21016Y25000D01*
X13374Y36100D02*
X13960Y35514D01*
X11020Y36100D02*
X13374D01*
X17840Y30298D02*
Y32904D01*
X17184Y33560D02*
X17840Y32904D01*
X18340Y30505D02*
Y33111D01*
X17391Y34060D02*
X18340Y33111D01*
X16540Y34060D02*
X17391D01*
X15626Y33560D02*
X17184D01*
X20953Y1300D02*
X21240D01*
X50100Y5064D02*
X51324Y3840D01*
X49681Y5064D02*
X50100D01*
X48356Y6390D02*
X49681Y5064D01*
X13447Y12907D02*
X14712D01*
X12726Y10400D02*
X13400D01*
X12253Y10873D02*
X12726Y10400D01*
X12253Y10873D02*
Y17303D01*
X12970Y18020D01*
X13400D01*
Y15480D02*
X13890D01*
X13400Y11670D02*
X14985D01*
X15100Y11785D01*
X14850Y10400D02*
X15200Y10750D01*
X13400Y12940D02*
X13440Y12900D01*
X44400Y14200D02*
X44600Y14000D01*
X40379Y14200D02*
X44400D01*
X44600Y14000D02*
X44600Y14000D01*
X53700Y15796D02*
Y15940D01*
X44416Y2840D02*
X45285D01*
X46285Y3840D01*
X47370D01*
X48198Y5840D02*
X49910Y4128D01*
X47991Y5340D02*
X48870Y4461D01*
X47784Y4840D02*
X48370Y4254D01*
X25710Y8705D02*
X26100Y8315D01*
Y8280D02*
Y8315D01*
X49910Y3840D02*
Y4128D01*
X27700Y27250D02*
X27710Y27240D01*
Y25400D02*
Y27240D01*
X26381Y28100D02*
X28960D01*
X15270Y30746D02*
Y32238D01*
X15770Y30953D02*
Y32643D01*
X16770Y30660D02*
Y32560D01*
X9800Y24750D02*
X9850Y24800D01*
X37110Y19500D02*
X37110Y19500D01*
X51324Y3840D02*
X52450D01*
X48370Y2805D02*
Y4254D01*
Y2805D02*
X48640Y2535D01*
X48870Y3012D02*
Y4461D01*
Y3012D02*
X50582Y1300D01*
X48640D02*
Y2535D01*
X50582Y1300D02*
X51180D01*
X19919Y15305D02*
X20224Y15000D01*
X21310D01*
X22205Y21500D02*
X22410Y21295D01*
X21310Y21500D02*
X22205D01*
X31091Y24300D02*
X32505D01*
X29759Y22968D02*
X31091Y24300D01*
X29400Y22968D02*
X29759D01*
X31510Y23800D02*
X32722D01*
X30800Y23090D02*
X31510Y23800D01*
X9850Y24800D02*
X10350D01*
X9800D02*
X9850D01*
X9800Y24800D02*
X9800Y24800D01*
X10450Y23400D02*
X11350Y22500D01*
X16250Y22150D02*
X16300Y22100D01*
X14800Y22150D02*
X16250D01*
X6740Y3840D02*
X8240Y5340D01*
X6330Y3840D02*
X6740D01*
X7600Y1300D02*
Y3984D01*
X8456Y4840D01*
X11410Y3840D02*
Y3910D01*
X39976Y16244D02*
Y16574D01*
X38050Y18500D02*
X39976Y16574D01*
X37110Y18500D02*
X38050D01*
X41600Y13700D02*
X43468Y11832D01*
X40586Y13700D02*
X41600D01*
X40300Y12000D02*
X41000Y12700D01*
X37110Y12000D02*
X40300D01*
X39386Y12500D02*
X40586Y13700D01*
X37110Y12500D02*
X39386D01*
X39179Y13000D02*
X40379Y14200D01*
X37110Y13000D02*
X39179D01*
X38972Y13500D02*
X40172Y14700D01*
X37110Y13500D02*
X38972D01*
X21310Y15500D02*
X22205D01*
X13400Y10400D02*
X14850D01*
X15500Y35100D02*
X16540Y34060D01*
X15500Y35100D02*
Y35500D01*
X24505Y27000D02*
X25210Y26295D01*
X21845Y27000D02*
X24505D01*
X25210Y25400D02*
Y26295D01*
X28960Y28100D02*
X29810Y27250D01*
X21016Y25000D02*
X21205D01*
X21223Y25500D02*
X21412D01*
X21430Y26000D02*
X23000D01*
X21638Y26500D02*
X24100D01*
X16770Y32560D02*
Y32960D01*
X22910Y22998D02*
Y24002D01*
X21412Y25500D02*
X22910Y24002D01*
X21205Y25000D02*
X22410Y23795D01*
X12979Y35500D02*
X13460Y35019D01*
X12960Y35500D02*
X12979D01*
X14548Y32960D02*
X15270Y32238D01*
X14230Y32960D02*
X14548D01*
X22410Y23205D02*
Y23795D01*
X13960Y35226D02*
Y35514D01*
X13460Y34953D02*
Y35019D01*
X10420Y35500D02*
X11020Y36100D01*
X13960Y35226D02*
X15626Y33560D01*
X13460Y34953D02*
X15770Y32643D01*
X28210Y9600D02*
Y10792D01*
X33300Y22700D02*
Y22950D01*
X34050Y23700D01*
X34612D01*
X35210Y24298D01*
Y25400D01*
X32000Y23100D02*
Y23200D01*
X32100Y23300D01*
X32929D01*
X33829Y24200D01*
X34405D01*
X34710Y24505D01*
Y25400D01*
X32722Y23800D02*
X33210Y24288D01*
Y25400D01*
X32505Y24300D02*
X32710Y24505D01*
Y25400D01*
X27210Y24490D02*
X27860Y23840D01*
X27210Y24490D02*
Y25400D01*
X26710Y23710D02*
Y25400D01*
X25600Y23500D02*
Y23688D01*
X26210Y24298D01*
Y25400D01*
X24100Y23950D02*
X24350Y24200D01*
X25405D01*
X25710Y24505D01*
Y25400D01*
X29810Y28950D02*
X29810Y28950D01*
X28310Y28950D02*
X29810D01*
X28310Y27250D02*
X28710Y26850D01*
Y25400D02*
Y26850D01*
X23100Y22200D02*
X23100Y22200D01*
X25210Y7540D02*
Y9600D01*
Y7540D02*
X25850Y6900D01*
X25710Y8705D02*
Y9600D01*
X23780Y3984D02*
X24636Y4840D01*
X23780Y1300D02*
Y3984D01*
X22510Y4093D02*
X22750Y4333D01*
X22510Y3840D02*
Y4093D01*
X6200Y15500D02*
X7490Y14210D01*
X4170Y15500D02*
X6200D01*
X6079Y13700D02*
X6600Y13179D01*
X4250Y13700D02*
X6079D01*
X6600Y12600D02*
Y13179D01*
X7530Y11670D02*
X8000D01*
X6600Y12600D02*
X7530Y11670D01*
X6600Y11150D02*
Y11800D01*
X5750Y12650D02*
X6600Y11800D01*
X7570Y9130D02*
X8000D01*
X5870Y18370D02*
X6140Y18640D01*
X6600Y11150D02*
X7350Y10400D01*
X8000D01*
X7733Y12940D02*
X8000D01*
X6113Y14560D02*
X7733Y12940D01*
X1300Y14560D02*
X6113D01*
X4984Y16100D02*
X6900D01*
X7520Y15480D02*
X8000D01*
X6900Y16100D02*
X7520Y15480D01*
X6050Y16950D02*
X6250Y16750D01*
X8000D01*
X6140Y18640D02*
X6760Y18020D01*
X8000D01*
X23000Y26000D02*
X23210Y25790D01*
X24100Y26500D02*
X24210Y26390D01*
X22412Y22500D02*
X22910Y22998D01*
X21310Y22500D02*
X22412D01*
X22205Y23000D02*
X22410Y23205D01*
X21310Y23000D02*
X22205D01*
X29810Y27250D02*
X29810Y27250D01*
X31210D01*
X31210Y27250D02*
X31210Y27250D01*
X31210Y25400D02*
Y27250D01*
X24210Y25400D02*
Y26390D01*
X23210Y25400D02*
Y25790D01*
X35010Y27100D02*
X35160Y27250D01*
X36710D01*
X32710Y28950D02*
X33100Y29340D01*
Y30400D01*
X34210Y26300D02*
X35010Y27100D01*
X34210Y25400D02*
Y26300D01*
X32710Y28950D02*
X33710Y27950D01*
Y25400D02*
Y27950D01*
X3060Y11640D02*
X5060D01*
X2800Y11900D02*
X3060Y11640D01*
X5060D02*
X5750Y10950D01*
X5390Y12290D02*
X5750Y12650D01*
X4800Y12290D02*
X5390D01*
X5750Y10950D02*
X7570Y9130D01*
X3840Y13290D02*
X4250Y13700D01*
X3840Y15830D02*
X4170Y15500D01*
X1300Y19496D02*
Y19640D01*
Y19496D02*
X3426Y17370D01*
X4421D01*
X4841Y16950D01*
X6050D01*
X1570Y16830D02*
X4254D01*
X1300Y17100D02*
X1570Y16830D01*
X4254D02*
X4984Y16100D01*
X3840Y18370D02*
X5870D01*
D47*
X54200Y18400D02*
Y27800D01*
X45807Y30850D02*
X50125D01*
X44200Y29243D02*
X45807Y30850D01*
X44200Y28447D02*
Y29243D01*
X47055Y22798D02*
X48774Y24516D01*
X46600Y26025D02*
X48425D01*
X43975D02*
X46600D01*
X48774Y24516D02*
Y25702D01*
X48425Y26025D02*
Y29252D01*
Y25800D02*
X48523Y25702D01*
X48774D01*
X46750Y22798D02*
X47055D01*
X50125Y30850D02*
X50600Y30375D01*
X53424D01*
X54100Y29699D01*
X48425Y29252D02*
X48523Y29350D01*
X46600Y26025D02*
Y27900D01*
X46600Y27900D02*
X46600Y27900D01*
X48523Y31850D02*
Y35528D01*
X47661Y36390D02*
X48523Y35528D01*
X23572Y36390D02*
X47661D01*
X54100Y27900D02*
Y29699D01*
X22325Y35300D02*
X22482D01*
X23572Y36390D01*
X6100Y27767D02*
X7333Y29000D01*
X8700D01*
X6100Y22700D02*
Y27767D01*
Y22700D02*
X6600Y22200D01*
X7400D01*
X51160Y14670D02*
X52450Y15960D01*
Y16650D01*
X54200Y18400D01*
X54100Y27900D02*
X54200Y27800D01*
X27700Y27250D02*
X28310D01*
X26910D02*
X27700D01*
X28310Y28950D02*
Y29291D01*
X28900Y29881D01*
D48*
X52450Y3840D02*
D03*
X51180Y1300D02*
D03*
X49910Y3840D02*
D03*
X48640Y1300D02*
D03*
X47370Y3840D02*
D03*
X46100Y1300D02*
D03*
X44830Y3840D02*
D03*
X43560Y1300D02*
D03*
X38710Y3840D02*
D03*
X37440Y1300D02*
D03*
X36170Y3840D02*
D03*
X34900Y1300D02*
D03*
X33630Y3840D02*
D03*
X32360Y1300D02*
D03*
X31090Y3840D02*
D03*
X29820Y1300D02*
D03*
X25050Y3840D02*
D03*
X23780Y1300D02*
D03*
X22510Y3840D02*
D03*
X21240Y1300D02*
D03*
X19970Y3840D02*
D03*
X18700Y1300D02*
D03*
X17430Y3840D02*
D03*
X16160Y1300D02*
D03*
X11410Y3840D02*
D03*
X10140Y1300D02*
D03*
X8870Y3840D02*
D03*
X7600Y1300D02*
D03*
X6330Y3840D02*
D03*
X5060Y1300D02*
D03*
X3790Y3840D02*
D03*
X2520Y1300D02*
D03*
X43540Y8890D02*
D03*
X41000Y10160D02*
D03*
X43540Y11430D02*
D03*
X41000Y12700D02*
D03*
X53700Y13400D02*
D03*
X51160Y14670D02*
D03*
X53700Y15940D02*
D03*
X51160Y17210D02*
D03*
X36460Y32600D02*
D03*
X37730Y35140D02*
D03*
X39000Y32600D02*
D03*
X40270Y35140D02*
D03*
X41540Y32600D02*
D03*
X42810Y35140D02*
D03*
X44080Y32600D02*
D03*
X45350Y35140D02*
D03*
X35190D02*
D03*
X33920Y32600D02*
D03*
X22820D02*
D03*
X24090Y35140D02*
D03*
X25360Y32600D02*
D03*
X26630Y35140D02*
D03*
X27900Y32600D02*
D03*
X29170Y35140D02*
D03*
X1260Y28210D02*
D03*
X3800Y26940D02*
D03*
X1260Y25670D02*
D03*
X3800Y24400D02*
D03*
X3840Y13290D02*
D03*
X1300Y14560D02*
D03*
X3840Y15830D02*
D03*
X1300Y17100D02*
D03*
X3840Y18370D02*
D03*
X1300Y19640D02*
D03*
X9150Y32560D02*
D03*
X10420Y35100D02*
D03*
X11690Y32560D02*
D03*
X12960Y35100D02*
D03*
X14230Y32560D02*
D03*
X15500Y35100D02*
D03*
X16770Y32560D02*
D03*
X18040Y35100D02*
D03*
D49*
X17117Y15450D02*
D03*
X13488Y7991D02*
D03*
X15446D02*
D03*
X34527Y15107D02*
D03*
X31910Y15550D02*
D03*
X31875Y16350D02*
D03*
X13251Y19976D02*
D03*
X15639Y20037D02*
D03*
X45282Y13104D02*
D03*
X24800Y29252D02*
D03*
X46077Y23451D02*
D03*
X45827Y22651D02*
D03*
X44377Y24776D02*
D03*
X38902Y22651D02*
D03*
X47722Y24774D02*
D03*
X47150Y30450D02*
D03*
X23481Y4675D02*
D03*
X35327Y15351D02*
D03*
X33977Y14526D02*
D03*
X34475Y16025D02*
D03*
X35202Y13001D02*
D03*
X34025Y12800D02*
D03*
X32850Y12225D02*
D03*
X31475Y12350D02*
D03*
X29400Y10885D02*
D03*
X32720Y10860D02*
D03*
X34077Y10851D02*
D03*
X37160Y10450D02*
D03*
X34700Y18100D02*
D03*
X35500Y18200D02*
D03*
X34669Y18900D02*
D03*
X35200Y19500D02*
D03*
X41275Y26200D02*
D03*
X44416Y27275D02*
D03*
X39975Y26200D02*
D03*
X40625Y26200D02*
D03*
X41700Y24525D02*
D03*
X35127Y21676D02*
D03*
X24676D02*
D03*
X35860Y23250D02*
D03*
X27336Y11670D02*
D03*
X13050Y20815D02*
D03*
X22851Y12676D02*
D03*
X23485Y13205D02*
D03*
X25825Y12100D02*
D03*
X15000Y14600D02*
D03*
X18969Y8250D02*
D03*
X22626Y8400D02*
D03*
X26401Y11251D02*
D03*
X39840Y19800D02*
D03*
X24137Y10949D02*
D03*
X36300Y6500D02*
D03*
X33516Y8229D02*
D03*
X23100Y33900D02*
D03*
X22100D02*
D03*
X21000D02*
D03*
X36000Y24895D02*
D03*
X17250Y21200D02*
D03*
X7158Y20567D02*
D03*
X32720Y15334D02*
D03*
X33900Y20836D02*
D03*
X52000Y24500D02*
D03*
Y25400D02*
D03*
Y26300D02*
D03*
Y27400D02*
D03*
Y28400D02*
D03*
X52148Y19095D02*
D03*
X51100Y19137D02*
D03*
X50100Y19095D02*
D03*
X45200Y27275D02*
D03*
X14800Y13738D02*
D03*
X15001Y29801D02*
D03*
X14797Y28600D02*
D03*
X12700Y28888D02*
D03*
X14201Y29701D02*
D03*
X4800Y31000D02*
D03*
X12000Y26500D02*
D03*
X15000D02*
D03*
X28436Y8100D02*
D03*
X14500Y7997D02*
D03*
X16200Y15471D02*
D03*
X14712Y12907D02*
D03*
X14135Y21200D02*
D03*
X15100Y11785D02*
D03*
X44600Y14000D02*
D03*
X26100Y8280D02*
D03*
X41700Y23800D02*
D03*
X22667Y21038D02*
D03*
X23025Y15400D02*
D03*
X19919Y15305D02*
D03*
X30800Y23090D02*
D03*
X29400Y22968D02*
D03*
X9800Y22600D02*
D03*
X9800Y24800D02*
D03*
X12700Y30500D02*
D03*
Y29688D02*
D03*
X12000Y23500D02*
D03*
Y25000D02*
D03*
X13500Y23500D02*
D03*
X15000D02*
D03*
Y25000D02*
D03*
X13500Y26500D02*
D03*
Y25000D02*
D03*
X39976Y16244D02*
D03*
X40000Y18100D02*
D03*
X28050Y11002D02*
D03*
X34669Y23050D02*
D03*
X33300Y22700D02*
D03*
X32000Y23100D02*
D03*
X27860Y23840D02*
D03*
X26710Y23710D02*
D03*
X25600Y23500D02*
D03*
X24100Y23950D02*
D03*
X23100Y22200D02*
D03*
X17500Y25900D02*
D03*
X18400Y24700D02*
D03*
X17200Y24500D02*
D03*
X18800Y23700D02*
D03*
X16300Y22100D02*
D03*
X4800Y12290D02*
D03*
X2800Y11900D02*
D03*
D50*
X43975Y26025D02*
D03*
X22325Y35300D02*
D03*
X8700Y29000D02*
D03*
X44200Y28447D02*
D03*
X28900Y29881D02*
D03*
X46700Y19800D02*
D03*
X7400Y22200D02*
D03*
D51*
X51100Y19575D02*
D03*
D52*
X53400Y25425D02*
D03*
X51100D02*
D03*
X48800D02*
D03*
D53*
X13400Y18020D02*
D03*
D54*
Y16750D02*
D03*
Y15480D02*
D03*
Y14210D02*
D03*
Y12940D02*
D03*
Y11670D02*
D03*
Y10400D02*
D03*
Y9130D02*
D03*
X8000Y18020D02*
D03*
Y16750D02*
D03*
Y15480D02*
D03*
Y14210D02*
D03*
Y12940D02*
D03*
Y11670D02*
D03*
Y10400D02*
D03*
Y9130D02*
D03*
D55*
X8000Y23850D02*
D03*
Y26750D02*
D03*
X40950Y24075D02*
D03*
Y26975D02*
D03*
D56*
X35010Y27100D02*
D03*
X32710D02*
D03*
Y28950D02*
D03*
X35010D02*
D03*
D57*
X23210Y25400D02*
D03*
X23710D02*
D03*
X24210D02*
D03*
X24710D02*
D03*
X25210D02*
D03*
X25710D02*
D03*
X26210D02*
D03*
X26710D02*
D03*
X27210D02*
D03*
X27710D02*
D03*
X28210D02*
D03*
X28710D02*
D03*
X29210D02*
D03*
X29710D02*
D03*
X30210D02*
D03*
X30710D02*
D03*
X31210D02*
D03*
X31710D02*
D03*
X32210D02*
D03*
X32710D02*
D03*
X33210D02*
D03*
X33710D02*
D03*
X34210D02*
D03*
X34710D02*
D03*
X35210D02*
D03*
Y9600D02*
D03*
X34710D02*
D03*
X34210D02*
D03*
X33710D02*
D03*
X33210D02*
D03*
X32710D02*
D03*
X32210D02*
D03*
X31710D02*
D03*
X31210D02*
D03*
X30710D02*
D03*
X30210D02*
D03*
X29710D02*
D03*
X29210D02*
D03*
X28710D02*
D03*
X28210D02*
D03*
X27710D02*
D03*
X27210D02*
D03*
X26710D02*
D03*
X26210D02*
D03*
X25710D02*
D03*
X25210D02*
D03*
X24710D02*
D03*
X24210D02*
D03*
X23710D02*
D03*
X23210D02*
D03*
D58*
X37110Y23500D02*
D03*
Y23000D02*
D03*
Y22500D02*
D03*
Y22000D02*
D03*
Y21500D02*
D03*
Y21000D02*
D03*
Y20500D02*
D03*
Y20000D02*
D03*
Y19500D02*
D03*
Y19000D02*
D03*
Y18500D02*
D03*
Y18000D02*
D03*
Y17500D02*
D03*
Y17000D02*
D03*
Y16500D02*
D03*
Y16000D02*
D03*
Y15500D02*
D03*
Y15000D02*
D03*
Y14500D02*
D03*
Y14000D02*
D03*
Y13500D02*
D03*
Y13000D02*
D03*
Y12500D02*
D03*
Y12000D02*
D03*
Y11500D02*
D03*
X21310D02*
D03*
Y12000D02*
D03*
Y12500D02*
D03*
Y13000D02*
D03*
Y13500D02*
D03*
Y14000D02*
D03*
Y14500D02*
D03*
Y15000D02*
D03*
Y15500D02*
D03*
Y16000D02*
D03*
Y16500D02*
D03*
Y17000D02*
D03*
Y17500D02*
D03*
Y18000D02*
D03*
Y18500D02*
D03*
Y19000D02*
D03*
Y19500D02*
D03*
Y20000D02*
D03*
Y20500D02*
D03*
Y21000D02*
D03*
Y21500D02*
D03*
Y22000D02*
D03*
Y22500D02*
D03*
Y23000D02*
D03*
Y23500D02*
D03*
D59*
X46750Y20298D02*
D03*
Y22798D02*
D03*
X48523Y29350D02*
D03*
Y31850D02*
D03*
D60*
X49600Y27900D02*
D03*
X46600D02*
D03*
X51100Y27900D02*
D03*
X54100D02*
D03*
D61*
X8173Y23677D02*
X9295Y24800D01*
X9800D01*
X9800Y22600D02*
Y23400D01*
X10450D02*
X10450Y23400D01*
D62*
X9800Y23400D02*
X10450D01*
X8000Y23850D02*
X8173Y23677D01*
X8450Y23400D02*
X9800D01*
M02*
