G04*
G04 #@! TF.GenerationSoftware,Altium Limited,Altium Designer,18.1.7 (191)*
G04*
G04 Layer_Color=8388736*
%FSLAX43Y43*%
%MOMM*%
G71*
G01*
G75*
%ADD16R,1.203X2.203*%
G04:AMPARAMS|DCode=17|XSize=1.203mm|YSize=1.103mm|CornerRadius=0.214mm|HoleSize=0mm|Usage=FLASHONLY|Rotation=90.000|XOffset=0mm|YOffset=0mm|HoleType=Round|Shape=RoundedRectangle|*
%AMROUNDEDRECTD17*
21,1,1.203,0.675,0,0,90.0*
21,1,0.775,1.103,0,0,90.0*
1,1,0.428,0.338,0.388*
1,1,0.428,0.338,-0.388*
1,1,0.428,-0.338,-0.388*
1,1,0.428,-0.338,0.388*
%
%ADD17ROUNDEDRECTD17*%
G04:AMPARAMS|DCode=18|XSize=2.503mm|YSize=2.003mm|CornerRadius=0.327mm|HoleSize=0mm|Usage=FLASHONLY|Rotation=90.000|XOffset=0mm|YOffset=0mm|HoleType=Round|Shape=RoundedRectangle|*
%AMROUNDEDRECTD18*
21,1,2.503,1.350,0,0,90.0*
21,1,1.850,2.003,0,0,90.0*
1,1,0.653,0.675,0.925*
1,1,0.653,0.675,-0.925*
1,1,0.653,-0.675,-0.925*
1,1,0.653,-0.675,0.925*
%
%ADD18ROUNDEDRECTD18*%
G04:AMPARAMS|DCode=19|XSize=0.453mm|YSize=0.803mm|CornerRadius=0.152mm|HoleSize=0mm|Usage=FLASHONLY|Rotation=0.000|XOffset=0mm|YOffset=0mm|HoleType=Round|Shape=RoundedRectangle|*
%AMROUNDEDRECTD19*
21,1,0.453,0.500,0,0,0.0*
21,1,0.150,0.803,0,0,0.0*
1,1,0.303,0.075,-0.250*
1,1,0.303,-0.075,-0.250*
1,1,0.303,-0.075,0.250*
1,1,0.303,0.075,0.250*
%
%ADD19ROUNDEDRECTD19*%
G04:AMPARAMS|DCode=20|XSize=0.453mm|YSize=0.803mm|CornerRadius=0.152mm|HoleSize=0mm|Usage=FLASHONLY|Rotation=270.000|XOffset=0mm|YOffset=0mm|HoleType=Round|Shape=RoundedRectangle|*
%AMROUNDEDRECTD20*
21,1,0.453,0.500,0,0,270.0*
21,1,0.150,0.803,0,0,270.0*
1,1,0.303,-0.250,-0.075*
1,1,0.303,-0.250,0.075*
1,1,0.303,0.250,0.075*
1,1,0.303,0.250,-0.075*
%
%ADD20ROUNDEDRECTD20*%
%ADD21R,4.803X4.803*%
G04:AMPARAMS|DCode=22|XSize=1.203mm|YSize=1.103mm|CornerRadius=0.214mm|HoleSize=0mm|Usage=FLASHONLY|Rotation=180.000|XOffset=0mm|YOffset=0mm|HoleType=Round|Shape=RoundedRectangle|*
%AMROUNDEDRECTD22*
21,1,1.203,0.675,0,0,180.0*
21,1,0.775,1.103,0,0,180.0*
1,1,0.428,-0.388,0.338*
1,1,0.428,0.388,0.338*
1,1,0.428,0.388,-0.338*
1,1,0.428,-0.388,-0.338*
%
%ADD22ROUNDEDRECTD22*%
%ADD23R,1.203X1.103*%
%ADD24R,1.103X1.203*%
G04:AMPARAMS|DCode=25|XSize=0.803mm|YSize=1.203mm|CornerRadius=0.177mm|HoleSize=0mm|Usage=FLASHONLY|Rotation=180.000|XOffset=0mm|YOffset=0mm|HoleType=Round|Shape=RoundedRectangle|*
%AMROUNDEDRECTD25*
21,1,0.803,0.850,0,0,180.0*
21,1,0.450,1.203,0,0,180.0*
1,1,0.353,-0.225,0.425*
1,1,0.353,0.225,0.425*
1,1,0.353,0.225,-0.425*
1,1,0.353,-0.225,-0.425*
%
%ADD25ROUNDEDRECTD25*%
G04:AMPARAMS|DCode=26|XSize=1.003mm|YSize=1.003mm|CornerRadius=0.202mm|HoleSize=0mm|Usage=FLASHONLY|Rotation=0.000|XOffset=0mm|YOffset=0mm|HoleType=Round|Shape=RoundedRectangle|*
%AMROUNDEDRECTD26*
21,1,1.003,0.600,0,0,0.0*
21,1,0.600,1.003,0,0,0.0*
1,1,0.403,0.300,-0.300*
1,1,0.403,-0.300,-0.300*
1,1,0.403,-0.300,0.300*
1,1,0.403,0.300,0.300*
%
%ADD26ROUNDEDRECTD26*%
%ADD27R,1.603X0.603*%
%ADD28R,2.103X2.503*%
%ADD29R,2.103X2.003*%
%ADD30C,0.203*%
%ADD31C,1.503*%
D16*
X43200Y24400D02*
D03*
X41600D02*
D03*
X40100D02*
D03*
X35100Y12900D02*
D03*
X45350Y30100D02*
D03*
X30600Y23200D02*
D03*
X44080Y30100D02*
D03*
X29300Y23200D02*
D03*
X42810Y30100D02*
D03*
X41540D02*
D03*
X40270D02*
D03*
X39000D02*
D03*
X28000Y23200D02*
D03*
X37730Y30100D02*
D03*
X26700Y23200D02*
D03*
X36460Y30100D02*
D03*
X25400Y23200D02*
D03*
X35190Y30100D02*
D03*
X24100Y23200D02*
D03*
X33920Y30100D02*
D03*
X33203Y23200D02*
D03*
X31900D02*
D03*
X30000Y12900D02*
D03*
X31300D02*
D03*
X32600D02*
D03*
X33851D02*
D03*
X35800Y23200D02*
D03*
X34500D02*
D03*
D17*
X46872Y26899D02*
D03*
X48572D02*
D03*
X48572Y22624D02*
D03*
X46872D02*
D03*
X41450Y16200D02*
D03*
X39750D02*
D03*
X48572Y21224D02*
D03*
X46872D02*
D03*
X48572Y24024D02*
D03*
X46872D02*
D03*
Y25499D02*
D03*
X48572D02*
D03*
X16100Y29300D02*
D03*
X17800D02*
D03*
X10313Y21254D02*
D03*
X8613D02*
D03*
X14000Y21040D02*
D03*
X15700D02*
D03*
X48562Y19824D02*
D03*
X46862D02*
D03*
X41525Y27200D02*
D03*
X43225D02*
D03*
X37310Y10600D02*
D03*
X35610D02*
D03*
X32601D02*
D03*
X34301D02*
D03*
X41450Y18100D02*
D03*
X39750D02*
D03*
X41450Y20000D02*
D03*
X39750D02*
D03*
X45850Y14600D02*
D03*
X47550D02*
D03*
X45850Y13100D02*
D03*
X47550D02*
D03*
X45850Y11600D02*
D03*
X47550D02*
D03*
X45850Y10100D02*
D03*
X47550D02*
D03*
D18*
X9200Y29650D02*
D03*
X12100D02*
D03*
D19*
X15750Y27950D02*
D03*
X15250D02*
D03*
X14750D02*
D03*
X14250D02*
D03*
X13750D02*
D03*
X13250D02*
D03*
X12750D02*
D03*
X12250D02*
D03*
X11750D02*
D03*
X11250D02*
D03*
Y22150D02*
D03*
X11750D02*
D03*
X12250D02*
D03*
X12750D02*
D03*
X13250D02*
D03*
X13750D02*
D03*
X14250D02*
D03*
X14750D02*
D03*
X15250D02*
D03*
X15750D02*
D03*
D20*
X10600Y27300D02*
D03*
Y26800D02*
D03*
Y26300D02*
D03*
Y25800D02*
D03*
Y25300D02*
D03*
Y24800D02*
D03*
Y24300D02*
D03*
Y23800D02*
D03*
Y23300D02*
D03*
Y22800D02*
D03*
X16400D02*
D03*
Y23300D02*
D03*
Y23800D02*
D03*
Y24300D02*
D03*
Y24800D02*
D03*
Y25300D02*
D03*
Y25800D02*
D03*
Y26300D02*
D03*
Y26800D02*
D03*
Y27300D02*
D03*
D21*
X13500Y25050D02*
D03*
D22*
X6000Y23840D02*
D03*
Y25540D02*
D03*
X7400Y24750D02*
D03*
Y23050D02*
D03*
X6000Y20850D02*
D03*
Y22550D02*
D03*
X8800Y24550D02*
D03*
Y22850D02*
D03*
X6000Y26850D02*
D03*
Y28550D02*
D03*
X7400Y29400D02*
D03*
Y27700D02*
D03*
X6000Y29850D02*
D03*
Y31550D02*
D03*
X14675Y17710D02*
D03*
Y19410D02*
D03*
X17500Y21350D02*
D03*
Y23050D02*
D03*
X21900Y22650D02*
D03*
Y20950D02*
D03*
D23*
X16009Y17712D02*
D03*
Y19812D02*
D03*
X17909D02*
D03*
Y17712D02*
D03*
D24*
X24450Y27900D02*
D03*
X20350D02*
D03*
X24450Y29500D02*
D03*
X20350D02*
D03*
D25*
X48450Y28150D02*
D03*
X47500Y30450D02*
D03*
X49400D02*
D03*
D26*
X44400Y20000D02*
D03*
X42700D02*
D03*
X44420Y18100D02*
D03*
X42720D02*
D03*
X44420Y16200D02*
D03*
X42720D02*
D03*
X38500Y27225D02*
D03*
X40200D02*
D03*
D27*
X50672Y23374D02*
D03*
Y24024D02*
D03*
Y24674D02*
D03*
Y25324D02*
D03*
Y25974D02*
D03*
D28*
X53522Y20924D02*
D03*
Y28432D02*
D03*
D29*
Y23524D02*
D03*
Y25824D02*
D03*
X50922Y21174D02*
D03*
Y28174D02*
D03*
D30*
X42160Y3100D02*
D03*
X28420D02*
D03*
X14760D02*
D03*
X1120D02*
D03*
X41740Y7490D02*
D03*
X51900Y12000D02*
D03*
X46750Y33340D02*
D03*
X30570D02*
D03*
X3060Y29610D02*
D03*
X3100Y21040D02*
D03*
X52000Y34000D02*
D03*
X3000D02*
D03*
Y8000D02*
D03*
X52000D02*
D03*
X19440Y33300D02*
D03*
D31*
X52450Y3840D02*
D03*
X51180Y1300D02*
D03*
X49910Y3840D02*
D03*
X48640Y1300D02*
D03*
X47370Y3840D02*
D03*
X46100Y1300D02*
D03*
X44830Y3840D02*
D03*
X43560Y1300D02*
D03*
X38710Y3840D02*
D03*
X37440Y1300D02*
D03*
X36170Y3840D02*
D03*
X34900Y1300D02*
D03*
X33630Y3840D02*
D03*
X32360Y1300D02*
D03*
X31090Y3840D02*
D03*
X29820Y1300D02*
D03*
X25050Y3840D02*
D03*
X23780Y1300D02*
D03*
X22510Y3840D02*
D03*
X21240Y1300D02*
D03*
X19970Y3840D02*
D03*
X18700Y1300D02*
D03*
X17430Y3840D02*
D03*
X16160Y1300D02*
D03*
X11410Y3840D02*
D03*
X10140Y1300D02*
D03*
X8870Y3840D02*
D03*
X7600Y1300D02*
D03*
X6330Y3840D02*
D03*
X5060Y1300D02*
D03*
X3790Y3840D02*
D03*
X2520Y1300D02*
D03*
X43540Y8890D02*
D03*
X41000Y10160D02*
D03*
X43540Y11430D02*
D03*
X41000Y12700D02*
D03*
X53700Y13400D02*
D03*
X51160Y14670D02*
D03*
X53700Y15940D02*
D03*
X51160Y17210D02*
D03*
X36460Y32600D02*
D03*
X37730Y35140D02*
D03*
X39000Y32600D02*
D03*
X40270Y35140D02*
D03*
X41540Y32600D02*
D03*
X42810Y35140D02*
D03*
X44080Y32600D02*
D03*
X45350Y35140D02*
D03*
X35190D02*
D03*
X33920Y32600D02*
D03*
X22820D02*
D03*
X24090Y35140D02*
D03*
X25360Y32600D02*
D03*
X26630Y35140D02*
D03*
X27900Y32600D02*
D03*
X29170Y35140D02*
D03*
X1260Y28210D02*
D03*
X3800Y26940D02*
D03*
X1260Y25670D02*
D03*
X3800Y24400D02*
D03*
X3840Y13290D02*
D03*
X1300Y14560D02*
D03*
X3840Y15830D02*
D03*
X1300Y17100D02*
D03*
X3840Y18370D02*
D03*
X1300Y19640D02*
D03*
X9150Y32560D02*
D03*
X10420Y35100D02*
D03*
X11690Y32560D02*
D03*
X12960Y35100D02*
D03*
X14230Y32560D02*
D03*
X15500Y35100D02*
D03*
X16770Y32560D02*
D03*
X18040Y35100D02*
D03*
M02*
