G04*
G04 #@! TF.GenerationSoftware,Altium Limited,Altium Designer,18.1.7 (191)*
G04*
G04 Layer_Color=65535*
%FSLAX43Y43*%
%MOMM*%
G71*
G01*
G75*
%ADD10C,0.254*%
%ADD11C,0.400*%
%ADD12C,0.127*%
%ADD13C,0.150*%
%ADD14C,0.500*%
%ADD15C,0.200*%
D10*
X16450Y27950D02*
G03*
X16450Y27950I-100J0D01*
G01*
D11*
X18009Y16712D02*
G03*
X18009Y16712I-100J0D01*
G01*
D12*
X47570Y27305D02*
X47875D01*
X47570Y26492D02*
X47875D01*
X47570Y22217D02*
X47875D01*
X47570Y23030D02*
X47875D01*
X40448Y15794D02*
X40752D01*
X40448Y16606D02*
X40752D01*
X47544Y20748D02*
Y21700D01*
X47900Y20748D02*
Y21700D01*
X47570Y23617D02*
X47875D01*
X47570Y24430D02*
X47875D01*
X47900Y25023D02*
Y25975D01*
X47544Y25023D02*
Y25975D01*
X9150Y28150D02*
X11750D01*
X9150Y27850D02*
Y28150D01*
Y31150D02*
Y31450D01*
Y31150D02*
X11750D01*
X9250D02*
Y31450D01*
X9350Y31150D02*
Y31450D01*
X9150D02*
X9350D01*
X9150Y27850D02*
X9350D01*
Y28150D01*
X9250Y27850D02*
Y28150D01*
X17128Y28824D02*
Y29776D01*
X16772Y28824D02*
Y29776D01*
X5594Y24538D02*
Y24842D01*
X6406Y24538D02*
Y24842D01*
X7806Y23748D02*
Y24052D01*
X6994Y23748D02*
Y24052D01*
X5524Y21878D02*
X6476D01*
X5524Y21522D02*
X6476D01*
X9310Y20848D02*
X9615D01*
X9310Y21660D02*
X9615D01*
X8324Y23522D02*
X9276D01*
X8324Y23878D02*
X9276D01*
X5594Y27548D02*
Y27852D01*
X6406Y27548D02*
Y27852D01*
X7806Y28398D02*
Y28702D01*
X6994Y28398D02*
Y28702D01*
X5524Y30878D02*
X6476D01*
X5524Y30522D02*
X6476D01*
X15028Y20564D02*
Y21516D01*
X14672Y20564D02*
Y21516D01*
X14199Y18738D02*
X15151D01*
X14199Y18382D02*
X15151D01*
X17094Y22048D02*
Y22352D01*
X17906Y22048D02*
Y22352D01*
X47560Y19417D02*
X47865D01*
X47560Y20230D02*
X47865D01*
X42223Y27606D02*
X42527D01*
X42223Y26794D02*
X42527D01*
X49900Y28919D02*
Y29681D01*
X47000Y28919D02*
X49900D01*
X47000D02*
Y29681D01*
X49900D01*
X21424Y21622D02*
X22376D01*
X21424Y21978D02*
X22376D01*
X36308Y10194D02*
X36612D01*
X36308Y11006D02*
X36612D01*
X33629Y10124D02*
Y11076D01*
X33274Y10124D02*
Y11076D01*
X40448Y17694D02*
X40752D01*
X40448Y18506D02*
X40752D01*
X40448Y19594D02*
X40752D01*
X40448Y20406D02*
X40752D01*
X45225Y19650D02*
Y20350D01*
X42000Y20675D02*
X43100D01*
X42000Y19325D02*
X43100D01*
X42000D02*
Y20675D01*
X44000D02*
X44900D01*
X44000Y19325D02*
X44900D01*
X45100Y19525D01*
X45075Y19500D02*
X45225Y19650D01*
X45050Y20525D02*
X45225Y20350D01*
X45100Y19525D02*
Y20475D01*
X44900Y20675D02*
X45100Y20475D01*
X45245Y17750D02*
Y18450D01*
X42020Y18775D02*
X43120D01*
X42020Y17425D02*
X43120D01*
X42020D02*
Y18775D01*
X44020D02*
X44920D01*
X44020Y17425D02*
X44920D01*
X45120Y17625D01*
X45095Y17600D02*
X45245Y17750D01*
X45070Y18625D02*
X45245Y18450D01*
X45120Y17625D02*
Y18575D01*
X44920Y18775D02*
X45120Y18575D01*
X45245Y15850D02*
Y16550D01*
X42020Y16875D02*
X43120D01*
X42020Y15525D02*
X43120D01*
X42020D02*
Y16875D01*
X44020D02*
X44920D01*
X44020Y15525D02*
X44920D01*
X45120Y15725D01*
X45095Y15700D02*
X45245Y15850D01*
X45070Y16725D02*
X45245Y16550D01*
X45120Y15725D02*
Y16675D01*
X44920Y16875D02*
X45120Y16675D01*
X46548Y15006D02*
X46852D01*
X46548Y14194D02*
X46852D01*
X46548Y13506D02*
X46852D01*
X46548Y12694D02*
X46852D01*
X46548Y12006D02*
X46852D01*
X46548Y11194D02*
X46852D01*
X46548Y10506D02*
X46852D01*
X46548Y9694D02*
X46852D01*
X37675Y26875D02*
Y27575D01*
X39800Y26550D02*
X40900D01*
X39800Y27900D02*
X40900D01*
Y26550D02*
Y27900D01*
X38000Y26550D02*
X38900D01*
X38000Y27900D02*
X38900D01*
X37800Y27700D02*
X38000Y27900D01*
X37675Y27575D02*
X37825Y27725D01*
X37675Y26875D02*
X37850Y26700D01*
X37800Y26750D02*
Y27700D01*
Y26750D02*
X38000Y26550D01*
D13*
X5400Y11800D02*
X6400Y10800D01*
X5400Y11800D02*
Y18500D01*
X6600Y27000D02*
X8500D01*
X6930Y25500D02*
X7100Y25670D01*
X6600Y25500D02*
X6930D01*
X7900Y25200D02*
X8200Y25500D01*
X8500D01*
X9300Y22300D02*
X9800Y21800D01*
X32950Y28831D02*
Y29630D01*
X32683Y29364D01*
X32417Y29630D01*
Y28831D01*
X32150D02*
X31884D01*
X32017D01*
Y29630D01*
X32150D01*
X31884D01*
X31484D02*
Y28831D01*
X31084D01*
X30951Y28964D01*
Y29230D01*
X31084Y29364D01*
X31484D01*
X31217D02*
X30951Y29630D01*
X30151Y28831D02*
X30684D01*
Y29630D01*
X30151D01*
X30684Y29230D02*
X30417D01*
X32950Y30150D02*
X32683D01*
X32817D01*
Y30950D01*
X32950D01*
X32683D01*
X31884Y30150D02*
X32150D01*
X32284Y30284D01*
Y30817D01*
X32150Y30950D01*
X31884D01*
X31750Y30817D01*
Y30284D01*
X31884Y30150D01*
X26667Y30334D02*
X26800Y30200D01*
X27067D01*
X27200Y30334D01*
Y30467D01*
X27067Y30600D01*
X26800D01*
X26667Y30733D01*
Y30867D01*
X26800Y31000D01*
X27067D01*
X27200Y30867D01*
X26400Y31000D02*
Y30200D01*
X26000D01*
X25867Y30334D01*
Y30600D01*
X26000Y30733D01*
X26400D01*
X25601Y30200D02*
X25334D01*
X25467D01*
Y31000D01*
X25601D01*
X25334D01*
X21100Y31100D02*
Y30300D01*
X20700D01*
X20567Y30434D01*
Y30700D01*
X20700Y30833D01*
X21100D01*
X20300Y31100D02*
Y30300D01*
X19900D01*
X19767Y30434D01*
Y30700D01*
X19900Y30833D01*
X20300D01*
X20034D02*
X19767Y31100D01*
X19101Y30300D02*
X19367D01*
X19501Y30434D01*
Y30967D01*
X19367Y31100D01*
X19101D01*
X18967Y30967D01*
Y30434D01*
X19101Y30300D01*
X18168Y30434D02*
X18301Y30300D01*
X18567D01*
X18701Y30434D01*
Y30967D01*
X18567Y31100D01*
X18301D01*
X18168Y30967D01*
Y30700D01*
X18434D01*
X17901Y31100D02*
Y30300D01*
X17501D01*
X17368Y30434D01*
Y30700D01*
X17501Y30833D01*
X17901D01*
X17634D02*
X17368Y31100D01*
X17101D02*
Y30567D01*
X16835Y30300D01*
X16568Y30567D01*
Y31100D01*
Y30700D01*
X17101D01*
X16302Y31100D02*
Y30300D01*
X16035Y30567D01*
X15768Y30300D01*
Y31100D01*
X15502D02*
Y30300D01*
X15235Y30567D01*
X14969Y30300D01*
Y31100D01*
X14169Y30300D02*
X14702D01*
Y31100D01*
X14169D01*
X14702Y30700D02*
X14435D01*
X13902Y31100D02*
Y30300D01*
X13502D01*
X13369Y30434D01*
Y30700D01*
X13502Y30833D01*
X13902D01*
X13636D02*
X13369Y31100D01*
X45551Y16600D02*
X45970D01*
X45742Y16295D01*
X45856D01*
X45932Y16257D01*
X45970Y16219D01*
X46008Y16105D01*
Y16029D01*
X45970Y15914D01*
X45894Y15838D01*
X45780Y15800D01*
X45665D01*
X45551Y15838D01*
X45513Y15876D01*
X45475Y15952D01*
X45513Y18309D02*
Y18347D01*
X45551Y18424D01*
X45589Y18462D01*
X45665Y18500D01*
X45818D01*
X45894Y18462D01*
X45932Y18424D01*
X45970Y18347D01*
Y18271D01*
X45932Y18195D01*
X45856Y18081D01*
X45475Y17700D01*
X46008D01*
X45600Y20247D02*
X45676Y20286D01*
X45790Y20400D01*
Y19600D01*
X5800Y12281D02*
X6143D01*
X6257Y12319D01*
X6295Y12357D01*
X6333Y12433D01*
Y12547D01*
X6295Y12624D01*
X6257Y12662D01*
X6143Y12700D01*
X5800D01*
Y11900D01*
X6741Y12700D02*
X6626Y12662D01*
X6550Y12547D01*
X6512Y12357D01*
Y12243D01*
X6550Y12052D01*
X6626Y11938D01*
X6741Y11900D01*
X6817D01*
X6931Y11938D01*
X7007Y12052D01*
X7045Y12243D01*
Y12357D01*
X7007Y12547D01*
X6931Y12662D01*
X6817Y12700D01*
X6741D01*
X7263Y11976D02*
X7224Y11938D01*
X7263Y11900D01*
X7301Y11938D01*
X7263Y11976D01*
X7933Y12700D02*
X7552D01*
X7514Y12357D01*
X7552Y12395D01*
X7666Y12433D01*
X7781D01*
X7895Y12395D01*
X7971Y12319D01*
X8009Y12205D01*
Y12129D01*
X7971Y12014D01*
X7895Y11938D01*
X7781Y11900D01*
X7666D01*
X7552Y11938D01*
X7514Y11976D01*
X7476Y12052D01*
X5800Y13481D02*
X6143D01*
X6257Y13519D01*
X6295Y13557D01*
X6333Y13633D01*
Y13747D01*
X6295Y13824D01*
X6257Y13862D01*
X6143Y13900D01*
X5800D01*
Y13100D01*
X6741Y13900D02*
X6626Y13862D01*
X6550Y13747D01*
X6512Y13557D01*
Y13443D01*
X6550Y13252D01*
X6626Y13138D01*
X6741Y13100D01*
X6817D01*
X6931Y13138D01*
X7007Y13252D01*
X7045Y13443D01*
Y13557D01*
X7007Y13747D01*
X6931Y13862D01*
X6817Y13900D01*
X6741D01*
X7263Y13176D02*
X7224Y13138D01*
X7263Y13100D01*
X7301Y13138D01*
X7263Y13176D01*
X7857Y13900D02*
X7476Y13367D01*
X8047D01*
X7857Y13900D02*
Y13100D01*
X5800Y14681D02*
X6143D01*
X6257Y14719D01*
X6295Y14757D01*
X6333Y14833D01*
Y14947D01*
X6295Y15024D01*
X6257Y15062D01*
X6143Y15100D01*
X5800D01*
Y14300D01*
X6512Y15100D02*
X6703Y14300D01*
X6893Y15100D02*
X6703Y14300D01*
X6893Y15100D02*
X7084Y14300D01*
X7274Y15100D02*
X7084Y14300D01*
X7434Y15100D02*
Y14300D01*
Y15100D02*
X7739Y14300D01*
X8043Y15100D02*
X7739Y14300D01*
X8043Y15100D02*
Y14300D01*
X8729Y14986D02*
X8691Y15062D01*
X8577Y15100D01*
X8500D01*
X8386Y15062D01*
X8310Y14947D01*
X8272Y14757D01*
Y14567D01*
X8310Y14414D01*
X8386Y14338D01*
X8500Y14300D01*
X8538D01*
X8653Y14338D01*
X8729Y14414D01*
X8767Y14529D01*
Y14567D01*
X8729Y14681D01*
X8653Y14757D01*
X8538Y14795D01*
X8500D01*
X8386Y14757D01*
X8310Y14681D01*
X8272Y14567D01*
X8942Y14186D02*
X9475Y15100D01*
X10157Y14681D02*
X10500D01*
X10614Y14719D01*
X10652Y14757D01*
X10690Y14833D01*
Y14947D01*
X10652Y15024D01*
X10614Y15062D01*
X10500Y15100D01*
X10157D01*
Y14300D01*
X10907Y14909D02*
Y14947D01*
X10946Y15024D01*
X10984Y15062D01*
X11060Y15100D01*
X11212D01*
X11288Y15062D01*
X11326Y15024D01*
X11365Y14947D01*
Y14871D01*
X11326Y14795D01*
X11250Y14681D01*
X10869Y14300D01*
X11403D01*
X11620Y14376D02*
X11582Y14338D01*
X11620Y14300D01*
X11658Y14338D01*
X11620Y14376D01*
X12290Y15100D02*
X11909D01*
X11871Y14757D01*
X11909Y14795D01*
X12023Y14833D01*
X12138D01*
X12252Y14795D01*
X12328Y14719D01*
X12366Y14605D01*
Y14529D01*
X12328Y14414D01*
X12252Y14338D01*
X12138Y14300D01*
X12023D01*
X11909Y14338D01*
X11871Y14376D01*
X11833Y14452D01*
X5800Y15881D02*
X6143D01*
X6257Y15919D01*
X6295Y15957D01*
X6333Y16033D01*
Y16147D01*
X6295Y16224D01*
X6257Y16262D01*
X6143Y16300D01*
X5800D01*
Y15500D01*
X6512Y16300D02*
X6703Y15500D01*
X6893Y16300D02*
X6703Y15500D01*
X6893Y16300D02*
X7084Y15500D01*
X7274Y16300D02*
X7084Y15500D01*
X7434Y16300D02*
Y15500D01*
Y16300D02*
X7739Y15500D01*
X8043Y16300D02*
X7739Y15500D01*
X8043Y16300D02*
Y15500D01*
X8729Y16300D02*
X8348D01*
X8310Y15957D01*
X8348Y15995D01*
X8462Y16033D01*
X8577D01*
X8691Y15995D01*
X8767Y15919D01*
X8805Y15805D01*
Y15729D01*
X8767Y15614D01*
X8691Y15538D01*
X8577Y15500D01*
X8462D01*
X8348Y15538D01*
X8310Y15576D01*
X8272Y15652D01*
X8984Y15386D02*
X9517Y16300D01*
X10199Y15881D02*
X10542D01*
X10656Y15919D01*
X10694Y15957D01*
X10732Y16033D01*
Y16147D01*
X10694Y16224D01*
X10656Y16262D01*
X10542Y16300D01*
X10199D01*
Y15500D01*
X10949Y16109D02*
Y16147D01*
X10987Y16224D01*
X11026Y16262D01*
X11102Y16300D01*
X11254D01*
X11330Y16262D01*
X11368Y16224D01*
X11406Y16147D01*
Y16071D01*
X11368Y15995D01*
X11292Y15881D01*
X10911Y15500D01*
X11445D01*
X11662Y15576D02*
X11624Y15538D01*
X11662Y15500D01*
X11700Y15538D01*
X11662Y15576D01*
X12256Y16300D02*
X11875Y15767D01*
X12446D01*
X12256Y16300D02*
Y15500D01*
X5800Y17400D02*
X6105Y16600D01*
X6409Y17400D02*
X6105Y16600D01*
X7084Y17209D02*
X7045Y17286D01*
X6969Y17362D01*
X6893Y17400D01*
X6741D01*
X6665Y17362D01*
X6588Y17286D01*
X6550Y17209D01*
X6512Y17095D01*
Y16905D01*
X6550Y16790D01*
X6588Y16714D01*
X6665Y16638D01*
X6741Y16600D01*
X6893D01*
X6969Y16638D01*
X7045Y16714D01*
X7084Y16790D01*
X7880Y17209D02*
X7841Y17286D01*
X7765Y17362D01*
X7689Y17400D01*
X7537D01*
X7461Y17362D01*
X7384Y17286D01*
X7346Y17209D01*
X7308Y17095D01*
Y16905D01*
X7346Y16790D01*
X7384Y16714D01*
X7461Y16638D01*
X7537Y16600D01*
X7689D01*
X7765Y16638D01*
X7841Y16714D01*
X7880Y16790D01*
X6371Y18309D02*
X6333Y18386D01*
X6257Y18462D01*
X6181Y18500D01*
X6029D01*
X5952Y18462D01*
X5876Y18386D01*
X5838Y18309D01*
X5800Y18195D01*
Y18005D01*
X5838Y17890D01*
X5876Y17814D01*
X5952Y17738D01*
X6029Y17700D01*
X6181D01*
X6257Y17738D01*
X6333Y17814D01*
X6371Y17890D01*
Y18005D01*
X6181D02*
X6371D01*
X6554Y18500D02*
Y17700D01*
Y18500D02*
X7087Y17700D01*
Y18500D02*
Y17700D01*
X7308Y18500D02*
Y17700D01*
Y18500D02*
X7575D01*
X7689Y18462D01*
X7765Y18386D01*
X7803Y18309D01*
X7841Y18195D01*
Y18005D01*
X7803Y17890D01*
X7765Y17814D01*
X7689Y17738D01*
X7575Y17700D01*
X7308D01*
X6800Y11200D02*
Y10400D01*
X7501Y11086D02*
X7425Y11162D01*
X7310Y11200D01*
X7158D01*
X7044Y11162D01*
X6968Y11086D01*
Y11009D01*
X7006Y10933D01*
X7044Y10895D01*
X7120Y10857D01*
X7348Y10781D01*
X7425Y10743D01*
X7463Y10705D01*
X7501Y10629D01*
Y10514D01*
X7425Y10438D01*
X7310Y10400D01*
X7158D01*
X7044Y10438D01*
X6968Y10514D01*
X7908Y11200D02*
X7832Y11162D01*
X7756Y11086D01*
X7718Y11009D01*
X7680Y10895D01*
Y10705D01*
X7718Y10590D01*
X7756Y10514D01*
X7832Y10438D01*
X7908Y10400D01*
X8061D01*
X8137Y10438D01*
X8213Y10514D01*
X8251Y10590D01*
X8289Y10705D01*
Y10895D01*
X8251Y11009D01*
X8213Y11086D01*
X8137Y11162D01*
X8061Y11200D01*
X7908D01*
X8476D02*
Y10400D01*
X8933D01*
X9630D02*
X9325Y11200D01*
X9020Y10400D01*
X9135Y10667D02*
X9516D01*
X10083Y11200D02*
Y10400D01*
X9816Y11200D02*
X10350D01*
X10940D02*
X10445D01*
Y10400D01*
X10940D01*
X10445Y10819D02*
X10750D01*
X11073Y11200D02*
Y10400D01*
Y11200D02*
X11340D01*
X11454Y11162D01*
X11530Y11086D01*
X11568Y11009D01*
X11607Y10895D01*
Y10705D01*
X11568Y10590D01*
X11530Y10514D01*
X11454Y10438D01*
X11340Y10400D01*
X11073D01*
X20700Y26023D02*
Y26823D01*
X21100D01*
X21233Y26690D01*
Y26423D01*
X21100Y26290D01*
X20700D01*
X20967D02*
X21233Y26023D01*
X22033Y26823D02*
X21500D01*
Y26023D01*
X22033D01*
X21500Y26423D02*
X21766D01*
X22833Y26690D02*
X22699Y26823D01*
X22433D01*
X22299Y26690D01*
Y26557D01*
X22433Y26423D01*
X22699D01*
X22833Y26290D01*
Y26157D01*
X22699Y26023D01*
X22433D01*
X22299Y26157D01*
X23632Y26823D02*
X23099D01*
Y26023D01*
X23632D01*
X23099Y26423D02*
X23366D01*
X23899Y26823D02*
X24432D01*
X24166D01*
Y26023D01*
X42850Y22232D02*
Y21851D01*
X43193Y21813D01*
X43155Y21851D01*
X43117Y21965D01*
Y22080D01*
X43155Y22194D01*
X43231Y22270D01*
X43345Y22308D01*
X43421D01*
X43536Y22270D01*
X43612Y22194D01*
X43650Y22080D01*
Y21965D01*
X43612Y21851D01*
X43574Y21813D01*
X43498Y21775D01*
X42850Y22487D02*
X43650Y22792D01*
X42850Y23097D02*
X43650Y22792D01*
X39891Y21696D02*
X39814Y21658D01*
X39738Y21582D01*
X39700Y21506D01*
Y21354D01*
X39738Y21277D01*
X39814Y21201D01*
X39891Y21163D01*
X40005Y21125D01*
X40195D01*
X40310Y21163D01*
X40386Y21201D01*
X40462Y21277D01*
X40500Y21354D01*
Y21506D01*
X40462Y21582D01*
X40386Y21658D01*
X40310Y21696D01*
X40195D01*
Y21506D02*
Y21696D01*
X39700Y21879D02*
X40500D01*
X39700D02*
X40500Y22412D01*
X39700D02*
X40500D01*
X39700Y22633D02*
X40500D01*
X39700D02*
Y22900D01*
X39738Y23014D01*
X39814Y23090D01*
X39891Y23128D01*
X40005Y23166D01*
X40195D01*
X40310Y23128D01*
X40386Y23090D01*
X40462Y23014D01*
X40500Y22900D01*
Y22633D01*
X41250Y20926D02*
Y21345D01*
X41555Y21117D01*
Y21231D01*
X41593Y21307D01*
X41631Y21345D01*
X41745Y21383D01*
X41821D01*
X41936Y21345D01*
X42012Y21269D01*
X42050Y21155D01*
Y21040D01*
X42012Y20926D01*
X41974Y20888D01*
X41898Y20850D01*
X41974Y21600D02*
X42012Y21562D01*
X42050Y21600D01*
X42012Y21638D01*
X41974Y21600D01*
X41250Y21890D02*
Y22309D01*
X41555Y22080D01*
Y22194D01*
X41593Y22271D01*
X41631Y22309D01*
X41745Y22347D01*
X41821D01*
X41936Y22309D01*
X42012Y22233D01*
X42050Y22118D01*
Y22004D01*
X42012Y21890D01*
X41974Y21852D01*
X41898Y21814D01*
X41250Y22526D02*
X42050Y22831D01*
X41250Y23135D02*
X42050Y22831D01*
X32601Y27600D02*
X33020D01*
X32792Y27295D01*
X32906D01*
X32982Y27257D01*
X33020Y27219D01*
X33058Y27105D01*
Y27029D01*
X33020Y26914D01*
X32944Y26838D01*
X32830Y26800D01*
X32715D01*
X32601Y26838D01*
X32563Y26876D01*
X32525Y26952D01*
X33275Y26876D02*
X33237Y26838D01*
X33275Y26800D01*
X33313Y26838D01*
X33275Y26876D01*
X33565Y27600D02*
X33984D01*
X33755Y27295D01*
X33869D01*
X33946Y27257D01*
X33984Y27219D01*
X34022Y27105D01*
Y27029D01*
X33984Y26914D01*
X33908Y26838D01*
X33793Y26800D01*
X33679D01*
X33565Y26838D01*
X33527Y26876D01*
X33489Y26952D01*
X34201Y27600D02*
X34506Y26800D01*
X34810Y27600D02*
X34506Y26800D01*
X35542Y27600D02*
Y26800D01*
X35999D01*
X36581Y27600D02*
X36086D01*
Y26800D01*
X36581D01*
X36086Y27219D02*
X36391D01*
X36715Y27600D02*
Y26800D01*
Y27600D02*
X36981D01*
X37095Y27562D01*
X37172Y27486D01*
X37210Y27409D01*
X37248Y27295D01*
Y27105D01*
X37210Y26990D01*
X37172Y26914D01*
X37095Y26838D01*
X36981Y26800D01*
X36715D01*
X35400Y19676D02*
Y20095D01*
X35705Y19867D01*
Y19981D01*
X35743Y20057D01*
X35781Y20095D01*
X35895Y20133D01*
X35971D01*
X36086Y20095D01*
X36162Y20019D01*
X36200Y19905D01*
Y19790D01*
X36162Y19676D01*
X36124Y19638D01*
X36048Y19600D01*
X36124Y20350D02*
X36162Y20312D01*
X36200Y20350D01*
X36162Y20388D01*
X36124Y20350D01*
X35591Y20602D02*
X35553D01*
X35476Y20640D01*
X35438Y20678D01*
X35400Y20754D01*
Y20906D01*
X35438Y20983D01*
X35476Y21021D01*
X35553Y21059D01*
X35629D01*
X35705Y21021D01*
X35819Y20944D01*
X36200Y20564D01*
Y21097D01*
X35400Y21733D02*
Y21352D01*
X35743Y21314D01*
X35705Y21352D01*
X35667Y21466D01*
Y21581D01*
X35705Y21695D01*
X35781Y21771D01*
X35895Y21809D01*
X35971D01*
X36086Y21771D01*
X36162Y21695D01*
X36200Y21581D01*
Y21466D01*
X36162Y21352D01*
X36124Y21314D01*
X36048Y21276D01*
X34100Y19676D02*
Y20095D01*
X34405Y19867D01*
Y19981D01*
X34443Y20057D01*
X34481Y20095D01*
X34595Y20133D01*
X34671D01*
X34786Y20095D01*
X34862Y20019D01*
X34900Y19905D01*
Y19790D01*
X34862Y19676D01*
X34824Y19638D01*
X34748Y19600D01*
X34824Y20350D02*
X34862Y20312D01*
X34900Y20350D01*
X34862Y20388D01*
X34824Y20350D01*
X34291Y20602D02*
X34253D01*
X34176Y20640D01*
X34138Y20678D01*
X34100Y20754D01*
Y20906D01*
X34138Y20983D01*
X34176Y21021D01*
X34253Y21059D01*
X34329D01*
X34405Y21021D01*
X34519Y20944D01*
X34900Y20564D01*
Y21097D01*
X34214Y21733D02*
X34138Y21695D01*
X34100Y21581D01*
Y21504D01*
X34138Y21390D01*
X34253Y21314D01*
X34443Y21276D01*
X34633D01*
X34786Y21314D01*
X34862Y21390D01*
X34900Y21504D01*
Y21542D01*
X34862Y21657D01*
X34786Y21733D01*
X34671Y21771D01*
X34633D01*
X34519Y21733D01*
X34443Y21657D01*
X34405Y21542D01*
Y21504D01*
X34443Y21390D01*
X34519Y21314D01*
X34633Y21276D01*
X32800Y19829D02*
X32838Y19714D01*
X32953Y19638D01*
X33143Y19600D01*
X33257D01*
X33448Y19638D01*
X33562Y19714D01*
X33600Y19829D01*
Y19905D01*
X33562Y20019D01*
X33448Y20095D01*
X33257Y20133D01*
X33143D01*
X32953Y20095D01*
X32838Y20019D01*
X32800Y19905D01*
Y19829D01*
X33524Y20350D02*
X33562Y20312D01*
X33600Y20350D01*
X33562Y20388D01*
X33524Y20350D01*
X32991Y20602D02*
X32953D01*
X32876Y20640D01*
X32838Y20678D01*
X32800Y20754D01*
Y20906D01*
X32838Y20983D01*
X32876Y21021D01*
X32953Y21059D01*
X33029D01*
X33105Y21021D01*
X33219Y20944D01*
X33600Y20564D01*
Y21097D01*
X32800Y21809D02*
X33600Y21428D01*
X32800Y21276D02*
Y21809D01*
X31500Y19829D02*
X31538Y19714D01*
X31653Y19638D01*
X31843Y19600D01*
X31957D01*
X32148Y19638D01*
X32262Y19714D01*
X32300Y19829D01*
Y19905D01*
X32262Y20019D01*
X32148Y20095D01*
X31957Y20133D01*
X31843D01*
X31653Y20095D01*
X31538Y20019D01*
X31500Y19905D01*
Y19829D01*
X32224Y20350D02*
X32262Y20312D01*
X32300Y20350D01*
X32262Y20388D01*
X32224Y20350D01*
X31691Y20602D02*
X31653D01*
X31576Y20640D01*
X31538Y20678D01*
X31500Y20754D01*
Y20906D01*
X31538Y20983D01*
X31576Y21021D01*
X31653Y21059D01*
X31729D01*
X31805Y21021D01*
X31919Y20944D01*
X32300Y20564D01*
Y21097D01*
X31500Y21466D02*
X31538Y21352D01*
X31614Y21314D01*
X31691D01*
X31767Y21352D01*
X31805Y21428D01*
X31843Y21581D01*
X31881Y21695D01*
X31957Y21771D01*
X32033Y21809D01*
X32148D01*
X32224Y21771D01*
X32262Y21733D01*
X32300Y21619D01*
Y21466D01*
X32262Y21352D01*
X32224Y21314D01*
X32148Y21276D01*
X32033D01*
X31957Y21314D01*
X31881Y21390D01*
X31843Y21504D01*
X31805Y21657D01*
X31767Y21733D01*
X31691Y21771D01*
X31614D01*
X31538Y21733D01*
X31500Y21619D01*
Y21466D01*
X30353Y19700D02*
X30314Y19776D01*
X30200Y19890D01*
X31000D01*
X30924Y20325D02*
X30962Y20287D01*
X31000Y20325D01*
X30962Y20363D01*
X30924Y20325D01*
X30200Y20614D02*
Y21033D01*
X30505Y20805D01*
Y20919D01*
X30543Y20995D01*
X30581Y21033D01*
X30695Y21071D01*
X30771D01*
X30886Y21033D01*
X30962Y20957D01*
X31000Y20843D01*
Y20728D01*
X30962Y20614D01*
X30924Y20576D01*
X30848Y20538D01*
X30200Y21479D02*
X30238Y21364D01*
X30353Y21288D01*
X30543Y21250D01*
X30657D01*
X30848Y21288D01*
X30962Y21364D01*
X31000Y21479D01*
Y21555D01*
X30962Y21669D01*
X30848Y21745D01*
X30657Y21783D01*
X30543D01*
X30353Y21745D01*
X30238Y21669D01*
X30200Y21555D01*
Y21479D01*
X29053Y19700D02*
X29014Y19776D01*
X28900Y19890D01*
X29700D01*
X29624Y20325D02*
X29662Y20287D01*
X29700Y20325D01*
X29662Y20363D01*
X29624Y20325D01*
X28900Y20614D02*
Y21033D01*
X29205Y20805D01*
Y20919D01*
X29243Y20995D01*
X29281Y21033D01*
X29395Y21071D01*
X29471D01*
X29586Y21033D01*
X29662Y20957D01*
X29700Y20843D01*
Y20728D01*
X29662Y20614D01*
X29624Y20576D01*
X29548Y20538D01*
X29053Y21250D02*
X29014Y21326D01*
X28900Y21441D01*
X29700D01*
X27600Y19829D02*
X27638Y19714D01*
X27753Y19638D01*
X27943Y19600D01*
X28057D01*
X28248Y19638D01*
X28362Y19714D01*
X28400Y19829D01*
Y19905D01*
X28362Y20019D01*
X28248Y20095D01*
X28057Y20133D01*
X27943D01*
X27753Y20095D01*
X27638Y20019D01*
X27600Y19905D01*
Y19829D01*
X28324Y20350D02*
X28362Y20312D01*
X28400Y20350D01*
X28362Y20388D01*
X28324Y20350D01*
X27791Y20602D02*
X27753D01*
X27676Y20640D01*
X27638Y20678D01*
X27600Y20754D01*
Y20906D01*
X27638Y20983D01*
X27676Y21021D01*
X27753Y21059D01*
X27829D01*
X27905Y21021D01*
X28019Y20944D01*
X28400Y20564D01*
Y21097D01*
X27600Y21352D02*
Y21771D01*
X27905Y21542D01*
Y21657D01*
X27943Y21733D01*
X27981Y21771D01*
X28095Y21809D01*
X28171D01*
X28286Y21771D01*
X28362Y21695D01*
X28400Y21581D01*
Y21466D01*
X28362Y21352D01*
X28324Y21314D01*
X28248Y21276D01*
X26300Y19829D02*
X26338Y19714D01*
X26453Y19638D01*
X26643Y19600D01*
X26757D01*
X26948Y19638D01*
X27062Y19714D01*
X27100Y19829D01*
Y19905D01*
X27062Y20019D01*
X26948Y20095D01*
X26757Y20133D01*
X26643D01*
X26453Y20095D01*
X26338Y20019D01*
X26300Y19905D01*
Y19829D01*
X27024Y20350D02*
X27062Y20312D01*
X27100Y20350D01*
X27062Y20388D01*
X27024Y20350D01*
X26491Y20602D02*
X26453D01*
X26376Y20640D01*
X26338Y20678D01*
X26300Y20754D01*
Y20906D01*
X26338Y20983D01*
X26376Y21021D01*
X26453Y21059D01*
X26529D01*
X26605Y21021D01*
X26719Y20944D01*
X27100Y20564D01*
Y21097D01*
X26300Y21657D02*
X26833Y21276D01*
Y21847D01*
X26300Y21657D02*
X27100D01*
X25000Y19829D02*
X25038Y19714D01*
X25153Y19638D01*
X25343Y19600D01*
X25457D01*
X25648Y19638D01*
X25762Y19714D01*
X25800Y19829D01*
Y19905D01*
X25762Y20019D01*
X25648Y20095D01*
X25457Y20133D01*
X25343D01*
X25153Y20095D01*
X25038Y20019D01*
X25000Y19905D01*
Y19829D01*
X25724Y20350D02*
X25762Y20312D01*
X25800Y20350D01*
X25762Y20388D01*
X25724Y20350D01*
X25191Y20602D02*
X25153D01*
X25076Y20640D01*
X25038Y20678D01*
X25000Y20754D01*
Y20906D01*
X25038Y20983D01*
X25076Y21021D01*
X25153Y21059D01*
X25229D01*
X25305Y21021D01*
X25419Y20944D01*
X25800Y20564D01*
Y21097D01*
X25000Y21733D02*
Y21352D01*
X25343Y21314D01*
X25305Y21352D01*
X25267Y21466D01*
Y21581D01*
X25305Y21695D01*
X25381Y21771D01*
X25495Y21809D01*
X25571D01*
X25686Y21771D01*
X25762Y21695D01*
X25800Y21581D01*
Y21466D01*
X25762Y21352D01*
X25724Y21314D01*
X25648Y21276D01*
X23600Y19829D02*
X23638Y19714D01*
X23753Y19638D01*
X23943Y19600D01*
X24057D01*
X24248Y19638D01*
X24362Y19714D01*
X24400Y19829D01*
Y19905D01*
X24362Y20019D01*
X24248Y20095D01*
X24057Y20133D01*
X23943D01*
X23753Y20095D01*
X23638Y20019D01*
X23600Y19905D01*
Y19829D01*
X24324Y20350D02*
X24362Y20312D01*
X24400Y20350D01*
X24362Y20388D01*
X24324Y20350D01*
X23791Y20602D02*
X23753D01*
X23676Y20640D01*
X23638Y20678D01*
X23600Y20754D01*
Y20906D01*
X23638Y20983D01*
X23676Y21021D01*
X23753Y21059D01*
X23829D01*
X23905Y21021D01*
X24019Y20944D01*
X24400Y20564D01*
Y21097D01*
X23714Y21733D02*
X23638Y21695D01*
X23600Y21581D01*
Y21504D01*
X23638Y21390D01*
X23753Y21314D01*
X23943Y21276D01*
X24133D01*
X24286Y21314D01*
X24362Y21390D01*
X24400Y21504D01*
Y21542D01*
X24362Y21657D01*
X24286Y21733D01*
X24171Y21771D01*
X24133D01*
X24019Y21733D01*
X23943Y21657D01*
X23905Y21542D01*
Y21504D01*
X23943Y21390D01*
X24019Y21314D01*
X24133Y21276D01*
X29791Y14763D02*
X29753D01*
X29676Y14801D01*
X29638Y14839D01*
X29600Y14915D01*
Y15068D01*
X29638Y15144D01*
X29676Y15182D01*
X29753Y15220D01*
X29829D01*
X29905Y15182D01*
X30019Y15106D01*
X30400Y14725D01*
Y15258D01*
X30324Y15475D02*
X30362Y15437D01*
X30400Y15475D01*
X30362Y15513D01*
X30324Y15475D01*
X29600Y15879D02*
X29638Y15765D01*
X29714Y15727D01*
X29791D01*
X29867Y15765D01*
X29905Y15841D01*
X29943Y15993D01*
X29981Y16108D01*
X30057Y16184D01*
X30133Y16222D01*
X30248D01*
X30324Y16184D01*
X30362Y16146D01*
X30400Y16031D01*
Y15879D01*
X30362Y15765D01*
X30324Y15727D01*
X30248Y15689D01*
X30133D01*
X30057Y15727D01*
X29981Y15803D01*
X29943Y15917D01*
X29905Y16069D01*
X29867Y16146D01*
X29791Y16184D01*
X29714D01*
X29638Y16146D01*
X29600Y16031D01*
Y15879D01*
X31091Y14663D02*
X31053D01*
X30976Y14701D01*
X30938Y14739D01*
X30900Y14815D01*
Y14968D01*
X30938Y15044D01*
X30976Y15082D01*
X31053Y15120D01*
X31129D01*
X31205Y15082D01*
X31319Y15006D01*
X31700Y14625D01*
Y15158D01*
X31624Y15375D02*
X31662Y15337D01*
X31700Y15375D01*
X31662Y15413D01*
X31624Y15375D01*
X31053Y15589D02*
X31014Y15665D01*
X30900Y15779D01*
X31700D01*
X31053Y16175D02*
X31014Y16251D01*
X30900Y16366D01*
X31700D01*
X32391Y14663D02*
X32353D01*
X32276Y14701D01*
X32238Y14739D01*
X32200Y14815D01*
Y14968D01*
X32238Y15044D01*
X32276Y15082D01*
X32353Y15120D01*
X32429D01*
X32505Y15082D01*
X32619Y15006D01*
X33000Y14625D01*
Y15158D01*
X32924Y15375D02*
X32962Y15337D01*
X33000Y15375D01*
X32962Y15413D01*
X32924Y15375D01*
X32353Y15589D02*
X32314Y15665D01*
X32200Y15779D01*
X33000D01*
X32391Y16213D02*
X32353D01*
X32276Y16251D01*
X32238Y16289D01*
X32200Y16366D01*
Y16518D01*
X32238Y16594D01*
X32276Y16632D01*
X32353Y16670D01*
X32429D01*
X32505Y16632D01*
X32619Y16556D01*
X33000Y16175D01*
Y16708D01*
X33691Y14663D02*
X33653D01*
X33576Y14701D01*
X33538Y14739D01*
X33500Y14815D01*
Y14968D01*
X33538Y15044D01*
X33576Y15082D01*
X33653Y15120D01*
X33729D01*
X33805Y15082D01*
X33919Y15006D01*
X34300Y14625D01*
Y15158D01*
X34224Y15375D02*
X34262Y15337D01*
X34300Y15375D01*
X34262Y15413D01*
X34224Y15375D01*
X33653Y15589D02*
X33614Y15665D01*
X33500Y15779D01*
X34300D01*
X33500Y16251D02*
Y16670D01*
X33805Y16442D01*
Y16556D01*
X33843Y16632D01*
X33881Y16670D01*
X33995Y16708D01*
X34071D01*
X34186Y16670D01*
X34262Y16594D01*
X34300Y16480D01*
Y16366D01*
X34262Y16251D01*
X34224Y16213D01*
X34148Y16175D01*
X34853Y14625D02*
X34814Y14701D01*
X34700Y14815D01*
X35500D01*
X35424Y15250D02*
X35462Y15212D01*
X35500Y15250D01*
X35462Y15288D01*
X35424Y15250D01*
X34891Y15501D02*
X34853D01*
X34776Y15539D01*
X34738Y15577D01*
X34700Y15653D01*
Y15806D01*
X34738Y15882D01*
X34776Y15920D01*
X34853Y15958D01*
X34929D01*
X35005Y15920D01*
X35119Y15844D01*
X35500Y15463D01*
Y15996D01*
X34967Y16670D02*
X35081Y16632D01*
X35157Y16556D01*
X35195Y16442D01*
Y16404D01*
X35157Y16289D01*
X35081Y16213D01*
X34967Y16175D01*
X34929D01*
X34814Y16213D01*
X34738Y16289D01*
X34700Y16404D01*
Y16442D01*
X34738Y16556D01*
X34814Y16632D01*
X34967Y16670D01*
X35157D01*
X35348Y16632D01*
X35462Y16556D01*
X35500Y16442D01*
Y16366D01*
X35462Y16251D01*
X35386Y16213D01*
X37030Y16650D02*
Y15850D01*
Y16650D02*
X37373D01*
X37487Y16612D01*
X37525Y16574D01*
X37563Y16497D01*
Y16421D01*
X37525Y16345D01*
X37487Y16307D01*
X37373Y16269D01*
X37030D01*
X37297D02*
X37563Y15850D01*
X37742Y16497D02*
X37818Y16536D01*
X37933Y16650D01*
Y15850D01*
X38519Y16650D02*
X38405Y16612D01*
X38367Y16536D01*
Y16459D01*
X38405Y16383D01*
X38481Y16345D01*
X38633Y16307D01*
X38748Y16269D01*
X38824Y16193D01*
X38862Y16117D01*
Y16002D01*
X38824Y15926D01*
X38786Y15888D01*
X38672Y15850D01*
X38519D01*
X38405Y15888D01*
X38367Y15926D01*
X38329Y16002D01*
Y16117D01*
X38367Y16193D01*
X38443Y16269D01*
X38557Y16307D01*
X38710Y16345D01*
X38786Y16383D01*
X38824Y16459D01*
Y16536D01*
X38786Y16612D01*
X38672Y16650D01*
X38519D01*
X41575Y28800D02*
Y28000D01*
Y28800D02*
X41918D01*
X42032Y28762D01*
X42070Y28724D01*
X42108Y28647D01*
Y28571D01*
X42070Y28495D01*
X42032Y28457D01*
X41918Y28419D01*
X41575D01*
X41842D02*
X42108Y28000D01*
X42287Y28647D02*
X42363Y28686D01*
X42478Y28800D01*
Y28000D01*
X43369Y28533D02*
X43331Y28419D01*
X43255Y28343D01*
X43140Y28305D01*
X43102D01*
X42988Y28343D01*
X42912Y28419D01*
X42874Y28533D01*
Y28571D01*
X42912Y28686D01*
X42988Y28762D01*
X43102Y28800D01*
X43140D01*
X43255Y28762D01*
X43331Y28686D01*
X43369Y28533D01*
Y28343D01*
X43331Y28152D01*
X43255Y28038D01*
X43140Y28000D01*
X43064D01*
X42950Y28038D01*
X42912Y28114D01*
X37030Y18493D02*
Y17694D01*
Y18493D02*
X37373D01*
X37487Y18455D01*
X37525Y18417D01*
X37563Y18341D01*
Y18265D01*
X37525Y18189D01*
X37487Y18151D01*
X37373Y18113D01*
X37030D01*
X37297D02*
X37563Y17694D01*
X37742Y18341D02*
X37818Y18379D01*
X37933Y18493D01*
Y17694D01*
X38862Y18493D02*
X38481Y17694D01*
X38329Y18493D02*
X38862D01*
X37030Y20300D02*
Y19500D01*
Y20300D02*
X37373D01*
X37487Y20262D01*
X37525Y20224D01*
X37563Y20147D01*
Y20071D01*
X37525Y19995D01*
X37487Y19957D01*
X37373Y19919D01*
X37030D01*
X37297D02*
X37563Y19500D01*
X37742Y20147D02*
X37818Y20186D01*
X37933Y20300D01*
Y19500D01*
X38786Y20186D02*
X38748Y20262D01*
X38633Y20300D01*
X38557D01*
X38443Y20262D01*
X38367Y20147D01*
X38329Y19957D01*
Y19767D01*
X38367Y19614D01*
X38443Y19538D01*
X38557Y19500D01*
X38595D01*
X38710Y19538D01*
X38786Y19614D01*
X38824Y19729D01*
Y19767D01*
X38786Y19881D01*
X38710Y19957D01*
X38595Y19995D01*
X38557D01*
X38443Y19957D01*
X38367Y19881D01*
X38329Y19767D01*
X45900Y9200D02*
Y8400D01*
Y9200D02*
X46243D01*
X46357Y9162D01*
X46395Y9124D01*
X46433Y9047D01*
Y8971D01*
X46395Y8895D01*
X46357Y8857D01*
X46243Y8819D01*
X45900D01*
X46167D02*
X46433Y8400D01*
X46612Y9047D02*
X46688Y9086D01*
X46803Y9200D01*
Y8400D01*
X47656Y9200D02*
X47275D01*
X47237Y8857D01*
X47275Y8895D01*
X47389Y8933D01*
X47503D01*
X47618Y8895D01*
X47694Y8819D01*
X47732Y8705D01*
Y8629D01*
X47694Y8514D01*
X47618Y8438D01*
X47503Y8400D01*
X47389D01*
X47275Y8438D01*
X47237Y8476D01*
X47199Y8552D01*
X48550Y10150D02*
X49350D01*
X48550D02*
Y10493D01*
X48588Y10607D01*
X48626Y10645D01*
X48703Y10683D01*
X48779D01*
X48855Y10645D01*
X48893Y10607D01*
X48931Y10493D01*
Y10150D01*
Y10417D02*
X49350Y10683D01*
X48703Y10862D02*
X48664Y10938D01*
X48550Y11053D01*
X49350D01*
X48550Y11830D02*
X49083Y11449D01*
Y12020D01*
X48550Y11830D02*
X49350D01*
X48525Y12525D02*
X49325D01*
X48525D02*
Y12868D01*
X48563Y12982D01*
X48601Y13020D01*
X48678Y13058D01*
X48754D01*
X48830Y13020D01*
X48868Y12982D01*
X48906Y12868D01*
Y12525D01*
Y12792D02*
X49325Y13058D01*
X48678Y13237D02*
X48639Y13313D01*
X48525Y13428D01*
X49325D01*
X48525Y13900D02*
Y14319D01*
X48830Y14090D01*
Y14205D01*
X48868Y14281D01*
X48906Y14319D01*
X49020Y14357D01*
X49096D01*
X49211Y14319D01*
X49287Y14243D01*
X49325Y14128D01*
Y14014D01*
X49287Y13900D01*
X49249Y13862D01*
X49173Y13824D01*
X47065Y15400D02*
X47865D01*
X47065D02*
Y15743D01*
X47103Y15857D01*
X47141Y15895D01*
X47217Y15933D01*
X47293D01*
X47369Y15895D01*
X47408Y15857D01*
X47446Y15743D01*
Y15400D01*
Y15667D02*
X47865Y15933D01*
X47217Y16112D02*
X47179Y16188D01*
X47065Y16303D01*
X47865D01*
X47255Y16737D02*
X47217D01*
X47141Y16775D01*
X47103Y16813D01*
X47065Y16889D01*
Y17042D01*
X47103Y17118D01*
X47141Y17156D01*
X47217Y17194D01*
X47293D01*
X47369Y17156D01*
X47484Y17080D01*
X47865Y16699D01*
Y17232D01*
X47200Y19000D02*
Y18200D01*
Y19000D02*
X47695D01*
X47200Y18619D02*
X47505D01*
X47787Y18847D02*
X47863Y18886D01*
X47977Y19000D01*
Y18200D01*
X10091Y20271D02*
X10014Y20233D01*
X9938Y20157D01*
X9900Y20081D01*
Y19929D01*
X9938Y19852D01*
X10014Y19776D01*
X10091Y19738D01*
X10205Y19700D01*
X10395D01*
X10510Y19738D01*
X10586Y19776D01*
X10662Y19852D01*
X10700Y19929D01*
Y20081D01*
X10662Y20157D01*
X10586Y20233D01*
X10510Y20271D01*
X10091Y20534D02*
X10053D01*
X9976Y20572D01*
X9938Y20610D01*
X9900Y20686D01*
Y20839D01*
X9938Y20915D01*
X9976Y20953D01*
X10053Y20991D01*
X10129D01*
X10205Y20953D01*
X10319Y20877D01*
X10700Y20496D01*
Y21029D01*
X9900Y21399D02*
X9938Y21284D01*
X10014Y21246D01*
X10091D01*
X10167Y21284D01*
X10205Y21361D01*
X10243Y21513D01*
X10281Y21627D01*
X10357Y21703D01*
X10433Y21741D01*
X10548D01*
X10624Y21703D01*
X10662Y21665D01*
X10700Y21551D01*
Y21399D01*
X10662Y21284D01*
X10624Y21246D01*
X10548Y21208D01*
X10433D01*
X10357Y21246D01*
X10281Y21323D01*
X10243Y21437D01*
X10205Y21589D01*
X10167Y21665D01*
X10091Y21703D01*
X10014D01*
X9938Y21665D01*
X9900Y21551D01*
Y21399D01*
X17225Y26997D02*
Y26426D01*
X17263Y26312D01*
X17339Y26236D01*
X17454Y26198D01*
X17530D01*
X17644Y26236D01*
X17720Y26312D01*
X17758Y26426D01*
Y26997D01*
X18017Y26807D02*
Y26845D01*
X18055Y26921D01*
X18093Y26959D01*
X18170Y26997D01*
X18322D01*
X18398Y26959D01*
X18436Y26921D01*
X18474Y26845D01*
Y26769D01*
X18436Y26693D01*
X18360Y26578D01*
X17979Y26198D01*
X18512D01*
X35800Y9650D02*
Y8850D01*
Y9650D02*
X36143D01*
X36257Y9612D01*
X36295Y9574D01*
X36333Y9497D01*
Y9421D01*
X36295Y9345D01*
X36257Y9307D01*
X36143Y9269D01*
X35800D01*
X36067D02*
X36333Y8850D01*
X36512Y9497D02*
X36588Y9536D01*
X36703Y9650D01*
Y8850D01*
X37327Y9650D02*
X37213Y9612D01*
X37137Y9497D01*
X37099Y9307D01*
Y9193D01*
X37137Y9002D01*
X37213Y8888D01*
X37327Y8850D01*
X37403D01*
X37518Y8888D01*
X37594Y9002D01*
X37632Y9193D01*
Y9307D01*
X37594Y9497D01*
X37518Y9612D01*
X37403Y9650D01*
X37327D01*
X44377Y23033D02*
Y22233D01*
Y23033D02*
X44720D01*
X44834Y22995D01*
X44872Y22957D01*
X44910Y22881D01*
Y22804D01*
X44872Y22728D01*
X44834Y22690D01*
X44720Y22652D01*
X44377D01*
X44644D02*
X44910Y22233D01*
X45585Y22766D02*
X45546Y22652D01*
X45470Y22576D01*
X45356Y22538D01*
X45318D01*
X45204Y22576D01*
X45127Y22652D01*
X45089Y22766D01*
Y22804D01*
X45127Y22919D01*
X45204Y22995D01*
X45318Y23033D01*
X45356D01*
X45470Y22995D01*
X45546Y22919D01*
X45585Y22766D01*
Y22576D01*
X45546Y22385D01*
X45470Y22271D01*
X45356Y22233D01*
X45280D01*
X45166Y22271D01*
X45127Y22347D01*
X44631Y24417D02*
Y23617D01*
Y24417D02*
X44973D01*
X45088Y24379D01*
X45126Y24341D01*
X45164Y24265D01*
Y24189D01*
X45126Y24113D01*
X45088Y24074D01*
X44973Y24036D01*
X44631D01*
X44897D02*
X45164Y23617D01*
X45533Y24417D02*
X45419Y24379D01*
X45381Y24303D01*
Y24227D01*
X45419Y24151D01*
X45495Y24113D01*
X45648Y24074D01*
X45762Y24036D01*
X45838Y23960D01*
X45876Y23884D01*
Y23770D01*
X45838Y23694D01*
X45800Y23655D01*
X45686Y23617D01*
X45533D01*
X45419Y23655D01*
X45381Y23694D01*
X45343Y23770D01*
Y23884D01*
X45381Y23960D01*
X45457Y24036D01*
X45571Y24074D01*
X45724Y24113D01*
X45800Y24151D01*
X45838Y24227D01*
Y24303D01*
X45800Y24379D01*
X45686Y24417D01*
X45533D01*
X45475Y28375D02*
Y27575D01*
Y28375D02*
X45818D01*
X45932Y28337D01*
X45970Y28299D01*
X46008Y28222D01*
Y28146D01*
X45970Y28070D01*
X45932Y28032D01*
X45818Y27994D01*
X45475D01*
X45742D02*
X46008Y27575D01*
X46720Y28375D02*
X46340Y27575D01*
X46187Y28375D02*
X46720D01*
X8863Y20254D02*
Y19454D01*
Y20254D02*
X9205D01*
X9320Y20216D01*
X9358Y20178D01*
X9396Y20101D01*
Y20025D01*
X9358Y19949D01*
X9320Y19911D01*
X9205Y19873D01*
X8863D01*
X9129D02*
X9396Y19454D01*
X10032Y20139D02*
X9994Y20216D01*
X9880Y20254D01*
X9803D01*
X9689Y20216D01*
X9613Y20101D01*
X9575Y19911D01*
Y19721D01*
X9613Y19568D01*
X9689Y19492D01*
X9803Y19454D01*
X9842D01*
X9956Y19492D01*
X10032Y19568D01*
X10070Y19682D01*
Y19721D01*
X10032Y19835D01*
X9956Y19911D01*
X9842Y19949D01*
X9803D01*
X9689Y19911D01*
X9613Y19835D01*
X9575Y19721D01*
X7007Y30100D02*
X7806D01*
X7007D02*
Y30443D01*
X7045Y30557D01*
X7083Y30595D01*
X7159Y30633D01*
X7235D01*
X7311Y30595D01*
X7349Y30557D01*
X7387Y30443D01*
Y30100D01*
Y30367D02*
X7806Y30633D01*
X7007Y31269D02*
Y30888D01*
X7349Y30850D01*
X7311Y30888D01*
X7273Y31003D01*
Y31117D01*
X7311Y31231D01*
X7387Y31307D01*
X7502Y31345D01*
X7578D01*
X7692Y31307D01*
X7768Y31231D01*
X7806Y31117D01*
Y31003D01*
X7768Y30888D01*
X7730Y30850D01*
X7654Y30812D01*
X8700Y27500D02*
Y26700D01*
Y27500D02*
X9043D01*
X9157Y27462D01*
X9195Y27424D01*
X9233Y27347D01*
Y27271D01*
X9195Y27195D01*
X9157Y27157D01*
X9043Y27119D01*
X8700D01*
X8967D02*
X9233Y26700D01*
X9793Y27500D02*
X9412Y26967D01*
X9984D01*
X9793Y27500D02*
Y26700D01*
X18400Y21706D02*
X19200D01*
X18400D02*
Y22049D01*
X18438Y22163D01*
X18476Y22202D01*
X18553Y22240D01*
X18629D01*
X18705Y22202D01*
X18743Y22163D01*
X18781Y22049D01*
Y21706D01*
Y21973D02*
X19200Y22240D01*
X18400Y22495D02*
Y22914D01*
X18705Y22685D01*
Y22799D01*
X18743Y22876D01*
X18781Y22914D01*
X18895Y22952D01*
X18971D01*
X19086Y22914D01*
X19162Y22838D01*
X19200Y22723D01*
Y22609D01*
X19162Y22495D01*
X19124Y22457D01*
X19048Y22419D01*
X6900Y26600D02*
Y25800D01*
Y26600D02*
X7243D01*
X7357Y26562D01*
X7395Y26524D01*
X7433Y26447D01*
Y26371D01*
X7395Y26295D01*
X7357Y26257D01*
X7243Y26219D01*
X6900D01*
X7167D02*
X7433Y25800D01*
X7650Y26409D02*
Y26447D01*
X7688Y26524D01*
X7726Y26562D01*
X7803Y26600D01*
X7955D01*
X8031Y26562D01*
X8069Y26524D01*
X8107Y26447D01*
Y26371D01*
X8069Y26295D01*
X7993Y26181D01*
X7612Y25800D01*
X8145D01*
X8700Y25900D02*
Y25100D01*
Y25900D02*
X9043D01*
X9157Y25862D01*
X9195Y25824D01*
X9233Y25747D01*
Y25671D01*
X9195Y25595D01*
X9157Y25557D01*
X9043Y25519D01*
X8700D01*
X8967D02*
X9233Y25100D01*
X9412Y25747D02*
X9488Y25786D01*
X9603Y25900D01*
Y25100D01*
X48148Y32300D02*
X48072Y32262D01*
X47996Y32186D01*
X47958Y32109D01*
X47920Y31995D01*
Y31805D01*
X47958Y31690D01*
X47996Y31614D01*
X48072Y31538D01*
X48148Y31500D01*
X48301D01*
X48377Y31538D01*
X48453Y31614D01*
X48491Y31690D01*
X48529Y31805D01*
Y31995D01*
X48491Y32109D01*
X48453Y32186D01*
X48377Y32262D01*
X48301Y32300D01*
X48148D01*
X48263Y31652D02*
X48491Y31424D01*
X48716Y32147D02*
X48792Y32186D01*
X48906Y32300D01*
Y31500D01*
X18809Y17641D02*
X18847Y17565D01*
X18923Y17489D01*
X19000Y17451D01*
X19114Y17413D01*
X19304D01*
X19418Y17451D01*
X19495Y17489D01*
X19571Y17565D01*
X19609Y17641D01*
Y17793D01*
X19571Y17870D01*
X19495Y17946D01*
X19418Y17984D01*
X19304Y18022D01*
X19114D01*
X19000Y17984D01*
X18923Y17946D01*
X18847Y17870D01*
X18809Y17793D01*
Y17641D01*
X18923Y18742D02*
X18847Y18666D01*
X18809Y18551D01*
Y18399D01*
X18847Y18285D01*
X18923Y18209D01*
X19000D01*
X19076Y18247D01*
X19114Y18285D01*
X19152Y18361D01*
X19228Y18589D01*
X19266Y18666D01*
X19304Y18704D01*
X19380Y18742D01*
X19495D01*
X19571Y18666D01*
X19609Y18551D01*
Y18399D01*
X19571Y18285D01*
X19495Y18209D01*
X19000Y19492D02*
X18923Y19454D01*
X18847Y19378D01*
X18809Y19302D01*
Y19149D01*
X18847Y19073D01*
X18923Y18997D01*
X19000Y18959D01*
X19114Y18921D01*
X19304D01*
X19418Y18959D01*
X19495Y18997D01*
X19571Y19073D01*
X19609Y19149D01*
Y19302D01*
X19571Y19378D01*
X19495Y19454D01*
X19418Y19492D01*
X18961Y19717D02*
X18923Y19793D01*
X18809Y19907D01*
X19609D01*
X33171Y9409D02*
X33133Y9486D01*
X33057Y9562D01*
X32981Y9600D01*
X32829D01*
X32752Y9562D01*
X32676Y9486D01*
X32638Y9409D01*
X32600Y9295D01*
Y9105D01*
X32638Y8990D01*
X32676Y8914D01*
X32752Y8838D01*
X32829Y8800D01*
X32981D01*
X33057Y8838D01*
X33133Y8914D01*
X33171Y8990D01*
X33396Y9447D02*
X33472Y9486D01*
X33586Y9600D01*
Y8800D01*
X34478Y9333D02*
X34440Y9219D01*
X34363Y9143D01*
X34249Y9105D01*
X34211D01*
X34097Y9143D01*
X34021Y9219D01*
X33983Y9333D01*
Y9371D01*
X34021Y9486D01*
X34097Y9562D01*
X34211Y9600D01*
X34249D01*
X34363Y9562D01*
X34440Y9486D01*
X34478Y9333D01*
Y9143D01*
X34440Y8952D01*
X34363Y8838D01*
X34249Y8800D01*
X34173D01*
X34059Y8838D01*
X34021Y8914D01*
X20391Y21470D02*
X20314Y21432D01*
X20238Y21356D01*
X20200Y21280D01*
Y21127D01*
X20238Y21051D01*
X20314Y20975D01*
X20391Y20937D01*
X20505Y20899D01*
X20695D01*
X20810Y20937D01*
X20886Y20975D01*
X20962Y21051D01*
X21000Y21127D01*
Y21280D01*
X20962Y21356D01*
X20886Y21432D01*
X20810Y21470D01*
X20353Y21695D02*
X20314Y21771D01*
X20200Y21885D01*
X21000D01*
X20200Y22815D02*
X21000Y22434D01*
X20200Y22281D02*
Y22815D01*
X44771Y21609D02*
X44733Y21686D01*
X44657Y21762D01*
X44581Y21800D01*
X44429D01*
X44352Y21762D01*
X44276Y21686D01*
X44238Y21609D01*
X44200Y21495D01*
Y21305D01*
X44238Y21190D01*
X44276Y21114D01*
X44352Y21038D01*
X44429Y21000D01*
X44581D01*
X44657Y21038D01*
X44733Y21114D01*
X44771Y21190D01*
X44996Y21647D02*
X45072Y21686D01*
X45186Y21800D01*
Y21000D01*
X45963Y21800D02*
X45583Y21267D01*
X46154D01*
X45963Y21800D02*
Y21000D01*
X44771Y25684D02*
X44733Y25761D01*
X44657Y25837D01*
X44581Y25875D01*
X44429D01*
X44352Y25837D01*
X44276Y25761D01*
X44238Y25684D01*
X44200Y25570D01*
Y25380D01*
X44238Y25265D01*
X44276Y25189D01*
X44352Y25113D01*
X44429Y25075D01*
X44581D01*
X44657Y25113D01*
X44733Y25189D01*
X44771Y25265D01*
X44996Y25722D02*
X45072Y25761D01*
X45186Y25875D01*
Y25075D01*
X45659Y25875D02*
X46078D01*
X45849Y25570D01*
X45963D01*
X46040Y25532D01*
X46078Y25494D01*
X46116Y25380D01*
Y25304D01*
X46078Y25189D01*
X46002Y25113D01*
X45887Y25075D01*
X45773D01*
X45659Y25113D01*
X45621Y25151D01*
X45583Y25227D01*
X12974Y18080D02*
X12898Y18042D01*
X12822Y17966D01*
X12784Y17890D01*
Y17737D01*
X12822Y17661D01*
X12898Y17585D01*
X12974Y17547D01*
X13089Y17509D01*
X13279D01*
X13393Y17547D01*
X13469Y17585D01*
X13546Y17661D01*
X13584Y17737D01*
Y17890D01*
X13546Y17966D01*
X13469Y18042D01*
X13393Y18080D01*
X12936Y18305D02*
X12898Y18381D01*
X12784Y18495D01*
X13584D01*
X12784Y19120D02*
X12822Y19006D01*
X12936Y18929D01*
X13127Y18891D01*
X13241D01*
X13431Y18929D01*
X13546Y19006D01*
X13584Y19120D01*
Y19196D01*
X13546Y19310D01*
X13431Y19386D01*
X13241Y19424D01*
X13127D01*
X12936Y19386D01*
X12822Y19310D01*
X12784Y19196D01*
Y19120D01*
X12561Y21209D02*
X12523Y21286D01*
X12447Y21362D01*
X12371Y21400D01*
X12219D01*
X12142Y21362D01*
X12066Y21286D01*
X12028Y21209D01*
X11990Y21095D01*
Y20905D01*
X12028Y20790D01*
X12066Y20714D01*
X12142Y20638D01*
X12219Y20600D01*
X12371D01*
X12447Y20638D01*
X12523Y20714D01*
X12561Y20790D01*
X13243Y21400D02*
X12862D01*
X12824Y21057D01*
X12862Y21095D01*
X12976Y21133D01*
X13091D01*
X13205Y21095D01*
X13281Y21019D01*
X13319Y20905D01*
Y20829D01*
X13281Y20714D01*
X13205Y20638D01*
X13091Y20600D01*
X12976D01*
X12862Y20638D01*
X12824Y20676D01*
X12786Y20752D01*
X5979Y20009D02*
X5941Y20086D01*
X5865Y20162D01*
X5788Y20200D01*
X5636D01*
X5560Y20162D01*
X5484Y20086D01*
X5446Y20009D01*
X5408Y19895D01*
Y19705D01*
X5446Y19590D01*
X5484Y19514D01*
X5560Y19438D01*
X5636Y19400D01*
X5788D01*
X5865Y19438D01*
X5941Y19514D01*
X5979Y19590D01*
X6584Y20200D02*
X6204Y19667D01*
X6775D01*
X6584Y20200D02*
Y19400D01*
X6471Y33009D02*
X6433Y33086D01*
X6357Y33162D01*
X6281Y33200D01*
X6129D01*
X6052Y33162D01*
X5976Y33086D01*
X5938Y33009D01*
X5900Y32895D01*
Y32705D01*
X5938Y32590D01*
X5976Y32514D01*
X6052Y32438D01*
X6129Y32400D01*
X6281D01*
X6357Y32438D01*
X6433Y32514D01*
X6471Y32590D01*
X6772Y33200D02*
X7191D01*
X6963Y32895D01*
X7077D01*
X7153Y32857D01*
X7191Y32819D01*
X7229Y32705D01*
Y32629D01*
X7191Y32514D01*
X7115Y32438D01*
X7001Y32400D01*
X6886D01*
X6772Y32438D01*
X6734Y32476D01*
X6696Y32552D01*
X18001Y28284D02*
X17963Y28361D01*
X17887Y28437D01*
X17811Y28475D01*
X17659D01*
X17582Y28437D01*
X17506Y28361D01*
X17468Y28284D01*
X17430Y28170D01*
Y27980D01*
X17468Y27865D01*
X17506Y27789D01*
X17582Y27713D01*
X17659Y27675D01*
X17811D01*
X17887Y27713D01*
X17963Y27789D01*
X18001Y27865D01*
X18264Y28284D02*
Y28322D01*
X18302Y28399D01*
X18340Y28437D01*
X18416Y28475D01*
X18569D01*
X18645Y28437D01*
X18683Y28399D01*
X18721Y28322D01*
Y28246D01*
X18683Y28170D01*
X18607Y28056D01*
X18226Y27675D01*
X18759D01*
X13871Y29534D02*
X13833Y29611D01*
X13757Y29687D01*
X13681Y29725D01*
X13529D01*
X13452Y29687D01*
X13376Y29611D01*
X13338Y29534D01*
X13300Y29420D01*
Y29230D01*
X13338Y29115D01*
X13376Y29039D01*
X13452Y28963D01*
X13529Y28925D01*
X13681D01*
X13757Y28963D01*
X13833Y29039D01*
X13871Y29115D01*
X14096Y29572D02*
X14172Y29611D01*
X14286Y29725D01*
Y28925D01*
D14*
X49410Y31420D02*
X49405Y31425D01*
X49400Y31420D01*
X49405Y31415D01*
X49410Y31420D01*
D15*
X38553Y9916D02*
X38386Y9750D01*
Y9417D01*
X38553Y9250D01*
X39219D01*
X39386Y9417D01*
Y9750D01*
X39219Y9916D01*
X38386Y10750D02*
Y10416D01*
X38553Y10250D01*
X39219D01*
X39386Y10416D01*
Y10750D01*
X39219Y10916D01*
X38553D01*
X38386Y10750D01*
X39386Y11249D02*
X38386D01*
X38719Y11583D01*
X38386Y11916D01*
X39386D01*
Y12915D02*
Y12249D01*
X38719Y12915D01*
X38553D01*
X38386Y12749D01*
Y12416D01*
X38553Y12249D01*
X48697Y15643D02*
X48530Y15476D01*
Y15143D01*
X48697Y14976D01*
X49363D01*
X49530Y15143D01*
Y15476D01*
X49363Y15643D01*
X48530Y16476D02*
Y16143D01*
X48697Y15976D01*
X49363D01*
X49530Y16143D01*
Y16476D01*
X49363Y16643D01*
X48697D01*
X48530Y16476D01*
X49530Y16976D02*
X48530D01*
X48864Y17309D01*
X48530Y17642D01*
X49530D01*
Y17975D02*
Y18309D01*
Y18142D01*
X48530D01*
X48697Y17975D01*
X42200Y5300D02*
Y6500D01*
X42600Y6100D01*
X43000Y6500D01*
Y5300D01*
X43999Y6500D02*
X43600D01*
X43400Y6300D01*
Y5500D01*
X43600Y5300D01*
X43999D01*
X44199Y5500D01*
Y6300D01*
X43999Y6500D01*
X44599D02*
X45399D01*
X44999D01*
Y5300D01*
X46399Y6500D02*
X45999D01*
X45799Y6300D01*
Y5500D01*
X45999Y5300D01*
X46399D01*
X46599Y5500D01*
Y6300D01*
X46399Y6500D01*
X46998Y5300D02*
Y6500D01*
X47598D01*
X47798Y6300D01*
Y5900D01*
X47598Y5700D01*
X46998D01*
X47398D02*
X47798Y5300D01*
X48198Y6300D02*
X48398Y6500D01*
X48798D01*
X48998Y6300D01*
Y6100D01*
X48798Y5900D01*
X48598D01*
X48798D01*
X48998Y5700D01*
Y5500D01*
X48798Y5300D01*
X48398D01*
X48198Y5500D01*
X30900Y5300D02*
Y6500D01*
X31300Y6100D01*
X31700Y6500D01*
Y5300D01*
X32699Y6500D02*
X32300D01*
X32100Y6300D01*
Y5500D01*
X32300Y5300D01*
X32699D01*
X32899Y5500D01*
Y6300D01*
X32699Y6500D01*
X33299D02*
X34099D01*
X33699D01*
Y5300D01*
X35099Y6500D02*
X34699D01*
X34499Y6300D01*
Y5500D01*
X34699Y5300D01*
X35099D01*
X35299Y5500D01*
Y6300D01*
X35099Y6500D01*
X35698Y5300D02*
Y6500D01*
X36298D01*
X36498Y6300D01*
Y5900D01*
X36298Y5700D01*
X35698D01*
X36098D02*
X36498Y5300D01*
X37698D02*
X36898D01*
X37698Y6100D01*
Y6300D01*
X37498Y6500D01*
X37098D01*
X36898Y6300D01*
X16700Y5300D02*
Y6500D01*
X17100Y6100D01*
X17500Y6500D01*
Y5300D01*
X18499Y6500D02*
X18100D01*
X17900Y6300D01*
Y5500D01*
X18100Y5300D01*
X18499D01*
X18699Y5500D01*
Y6300D01*
X18499Y6500D01*
X19099D02*
X19899D01*
X19499D01*
Y5300D01*
X20899Y6500D02*
X20499D01*
X20299Y6300D01*
Y5500D01*
X20499Y5300D01*
X20899D01*
X21099Y5500D01*
Y6300D01*
X20899Y6500D01*
X21498Y5300D02*
Y6500D01*
X22098D01*
X22298Y6300D01*
Y5900D01*
X22098Y5700D01*
X21498D01*
X21898D02*
X22298Y5300D01*
X22698D02*
X23098D01*
X22898D01*
Y6500D01*
X22698Y6300D01*
X6000Y5300D02*
Y6500D01*
X6400Y6100D01*
X6800Y6500D01*
Y5300D01*
X7799Y6500D02*
X7400D01*
X7200Y6300D01*
Y5500D01*
X7400Y5300D01*
X7799D01*
X7999Y5500D01*
Y6300D01*
X7799Y6500D01*
X8399D02*
X9199D01*
X8799D01*
Y5300D01*
X10199Y6500D02*
X9799D01*
X9599Y6300D01*
Y5500D01*
X9799Y5300D01*
X10199D01*
X10399Y5500D01*
Y6300D01*
X10199Y6500D01*
X10798Y5300D02*
Y6500D01*
X11398D01*
X11598Y6300D01*
Y5900D01*
X11398Y5700D01*
X10798D01*
X11198D02*
X11598Y5300D01*
X11998Y6300D02*
X12198Y6500D01*
X12598D01*
X12798Y6300D01*
Y5500D01*
X12598Y5300D01*
X12198D01*
X11998Y5500D01*
Y6300D01*
M02*
