G04*
G04 #@! TF.GenerationSoftware,Altium Limited,Altium Designer,18.1.7 (191)*
G04*
G04 Layer_Color=32896*
%FSLAX43Y43*%
%MOMM*%
G71*
G01*
G75*
%ADD12C,0.127*%
%ADD13C,0.150*%
%ADD15C,0.200*%
%ADD73C,0.250*%
%ADD74C,0.102*%
D12*
X25178Y6424D02*
Y7376D01*
X24822Y6424D02*
Y7376D01*
X5274Y11978D02*
X6226D01*
X5274Y11622D02*
X6226D01*
X14724Y10078D02*
X15676D01*
X14724Y9722D02*
X15676D01*
X14624Y16552D02*
X15576D01*
X14624Y16908D02*
X15576D01*
X5574Y17622D02*
X6526D01*
X5574Y17978D02*
X6526D01*
X6500Y23800D02*
Y26400D01*
X6200Y23800D02*
X6500D01*
X9500D02*
X9800D01*
X9500D02*
Y26400D01*
Y23900D02*
X9800D01*
X9500Y24000D02*
X9800D01*
Y23800D02*
Y24000D01*
X6200Y23800D02*
Y24000D01*
X6500D01*
X6200Y23900D02*
X6500D01*
X11378Y24324D02*
Y25276D01*
X11022Y24324D02*
Y25276D01*
X11378Y22924D02*
Y23876D01*
X11022Y22924D02*
Y23876D01*
X29404Y27948D02*
Y28252D01*
X30216Y27948D02*
Y28252D01*
X30734Y27922D02*
X31686D01*
X30734Y28278D02*
X31686D01*
X33772Y29924D02*
Y30876D01*
X34128Y29924D02*
Y30876D01*
X36234Y27922D02*
X37186D01*
X36234Y28278D02*
X37186D01*
X38324Y24322D02*
X39276D01*
X38324Y24678D02*
X39276D01*
X47500Y22448D02*
Y22748D01*
X47350Y22448D02*
X47500Y22748D01*
X47650Y22448D01*
X47350D02*
X47650D01*
X47350Y22748D02*
X47650D01*
X47500Y20913D02*
Y22173D01*
X46000Y20913D02*
Y22173D01*
X47500D01*
X47700Y27024D02*
Y28776D01*
X48500Y27024D02*
Y28776D01*
X47773Y29975D02*
X49273D01*
Y31235D01*
X47773Y29975D02*
Y31235D01*
X47623Y29400D02*
X47923D01*
X47623Y29700D02*
X47923D01*
X47623D02*
X47773Y29400D01*
X47923Y29700D01*
X47773Y29400D02*
Y29700D01*
X53000Y27024D02*
Y28776D01*
X52200Y27024D02*
Y28776D01*
X26434Y27922D02*
X27386D01*
X26434Y28278D02*
X27386D01*
X39450Y24025D02*
Y26625D01*
X39150Y24025D02*
X39450D01*
X42450D02*
X42750D01*
X42450D02*
Y26625D01*
Y24125D02*
X42750D01*
X42450Y24225D02*
X42750D01*
Y24025D02*
Y24225D01*
X39150Y24025D02*
Y24225D01*
X39450D01*
X39150Y24125D02*
X39450D01*
X14324Y22822D02*
X15276D01*
X14324Y23178D02*
X15276D01*
D13*
X36800Y26400D02*
X36267Y25600D01*
Y26400D02*
X36800Y25600D01*
X36088Y26247D02*
X36012Y26286D01*
X35897Y26400D01*
Y25600D01*
X11300Y19900D02*
Y19329D01*
X11262Y19214D01*
X11186Y19138D01*
X11071Y19100D01*
X10995D01*
X10881Y19138D01*
X10805Y19214D01*
X10767Y19329D01*
Y19900D01*
X10165D02*
X10546Y19367D01*
X9975D01*
X10165Y19900D02*
Y19100D01*
X48640Y19900D02*
Y19329D01*
X48602Y19214D01*
X48526Y19138D01*
X48411Y19100D01*
X48335D01*
X48221Y19138D01*
X48145Y19214D01*
X48107Y19329D01*
Y19900D01*
X47810D02*
X47391D01*
X47619Y19595D01*
X47505D01*
X47429Y19557D01*
X47391Y19519D01*
X47353Y19405D01*
Y19329D01*
X47391Y19214D01*
X47467Y19138D01*
X47581Y19100D01*
X47695D01*
X47810Y19138D01*
X47848Y19176D01*
X47886Y19252D01*
X37600Y24800D02*
Y24229D01*
X37562Y24114D01*
X37486Y24038D01*
X37371Y24000D01*
X37295D01*
X37181Y24038D01*
X37105Y24114D01*
X37067Y24229D01*
Y24800D01*
X36846Y24647D02*
X36770Y24686D01*
X36655Y24800D01*
Y24000D01*
X30300Y29900D02*
X29500D01*
X30300D02*
Y30243D01*
X30262Y30357D01*
X30224Y30395D01*
X30147Y30433D01*
X30071D01*
X29995Y30395D01*
X29957Y30357D01*
X29919Y30243D01*
Y29900D01*
Y30167D02*
X29500Y30433D01*
X30147Y30612D02*
X30186Y30688D01*
X30300Y30803D01*
X29500D01*
X30147Y31199D02*
X30186Y31275D01*
X30300Y31389D01*
X29500D01*
X28800Y30500D02*
X28000D01*
Y30957D01*
X28647Y31045D02*
X28686Y31121D01*
X28800Y31235D01*
X28000D01*
X47425Y31750D02*
Y30950D01*
Y31750D02*
X47158D01*
X47044Y31712D01*
X46968Y31636D01*
X46930Y31559D01*
X46892Y31445D01*
Y31255D01*
X46930Y31140D01*
X46968Y31064D01*
X47044Y30988D01*
X47158Y30950D01*
X47425D01*
X46675Y31559D02*
Y31597D01*
X46637Y31674D01*
X46599Y31712D01*
X46522Y31750D01*
X46370D01*
X46294Y31712D01*
X46256Y31674D01*
X46218Y31597D01*
Y31521D01*
X46256Y31445D01*
X46332Y31331D01*
X46713Y30950D01*
X46180D01*
X45550Y21953D02*
Y21153D01*
Y21953D02*
X45283D01*
X45169Y21915D01*
X45093Y21839D01*
X45055Y21763D01*
X45017Y21648D01*
Y21458D01*
X45055Y21344D01*
X45093Y21268D01*
X45169Y21191D01*
X45283Y21153D01*
X45550D01*
X44838Y21801D02*
X44762Y21839D01*
X44647Y21953D01*
Y21153D01*
X38309Y27571D02*
X38386Y27533D01*
X38462Y27457D01*
X38500Y27381D01*
Y27229D01*
X38462Y27152D01*
X38386Y27076D01*
X38309Y27038D01*
X38195Y27000D01*
X38005D01*
X37890Y27038D01*
X37814Y27076D01*
X37738Y27152D01*
X37700Y27229D01*
Y27381D01*
X37738Y27457D01*
X37814Y27533D01*
X37890Y27571D01*
X38309Y27834D02*
X38347D01*
X38424Y27872D01*
X38462Y27910D01*
X38500Y27986D01*
Y28139D01*
X38462Y28215D01*
X38424Y28253D01*
X38347Y28291D01*
X38271D01*
X38195Y28253D01*
X38081Y28177D01*
X37700Y27796D01*
Y28329D01*
X38500Y29041D02*
X37700Y28661D01*
X38500Y28508D02*
Y29041D01*
X37004Y31420D02*
X37042Y31496D01*
X37118Y31572D01*
X37194Y31610D01*
X37346D01*
X37423Y31572D01*
X37499Y31496D01*
X37537Y31420D01*
X37575Y31306D01*
Y31115D01*
X37537Y31001D01*
X37499Y30925D01*
X37423Y30849D01*
X37346Y30810D01*
X37194D01*
X37118Y30849D01*
X37042Y30925D01*
X37004Y31001D01*
X36741Y31420D02*
Y31458D01*
X36703Y31534D01*
X36665Y31572D01*
X36589Y31610D01*
X36436D01*
X36360Y31572D01*
X36322Y31534D01*
X36284Y31458D01*
Y31382D01*
X36322Y31306D01*
X36398Y31191D01*
X36779Y30810D01*
X36246D01*
X35610Y31496D02*
X35648Y31572D01*
X35762Y31610D01*
X35838D01*
X35952Y31572D01*
X36029Y31458D01*
X36067Y31268D01*
Y31077D01*
X36029Y30925D01*
X35952Y30849D01*
X35838Y30810D01*
X35800D01*
X35686Y30849D01*
X35610Y30925D01*
X35572Y31039D01*
Y31077D01*
X35610Y31191D01*
X35686Y31268D01*
X35800Y31306D01*
X35838D01*
X35952Y31268D01*
X36029Y31191D01*
X36067Y31077D01*
X6509Y8671D02*
X6586Y8633D01*
X6662Y8557D01*
X6700Y8481D01*
Y8329D01*
X6662Y8252D01*
X6586Y8176D01*
X6509Y8138D01*
X6395Y8100D01*
X6205D01*
X6090Y8138D01*
X6014Y8176D01*
X5938Y8252D01*
X5900Y8329D01*
Y8481D01*
X5938Y8557D01*
X6014Y8633D01*
X6090Y8671D01*
X6509Y8934D02*
X6547D01*
X6624Y8972D01*
X6662Y9010D01*
X6700Y9086D01*
Y9239D01*
X6662Y9315D01*
X6624Y9353D01*
X6547Y9391D01*
X6471D01*
X6395Y9353D01*
X6281Y9277D01*
X5900Y8896D01*
Y9429D01*
X6700Y10065D02*
Y9684D01*
X6357Y9646D01*
X6395Y9684D01*
X6433Y9799D01*
Y9913D01*
X6395Y10027D01*
X6319Y10103D01*
X6205Y10141D01*
X6129D01*
X6014Y10103D01*
X5938Y10027D01*
X5900Y9913D01*
Y9799D01*
X5938Y9684D01*
X5976Y9646D01*
X6052Y9608D01*
X16709Y9571D02*
X16786Y9533D01*
X16862Y9457D01*
X16900Y9381D01*
Y9229D01*
X16862Y9152D01*
X16786Y9076D01*
X16709Y9038D01*
X16595Y9000D01*
X16405D01*
X16290Y9038D01*
X16214Y9076D01*
X16138Y9152D01*
X16100Y9229D01*
Y9381D01*
X16138Y9457D01*
X16214Y9533D01*
X16290Y9571D01*
X16709Y9834D02*
X16747D01*
X16824Y9872D01*
X16862Y9910D01*
X16900Y9986D01*
Y10139D01*
X16862Y10215D01*
X16824Y10253D01*
X16747Y10291D01*
X16671D01*
X16595Y10253D01*
X16481Y10177D01*
X16100Y9796D01*
Y10329D01*
X16900Y10889D02*
X16367Y10508D01*
Y11080D01*
X16900Y10889D02*
X16100D01*
X41329Y28984D02*
X41367Y29061D01*
X41443Y29137D01*
X41519Y29175D01*
X41671D01*
X41748Y29137D01*
X41824Y29061D01*
X41862Y28984D01*
X41900Y28870D01*
Y28680D01*
X41862Y28565D01*
X41824Y28489D01*
X41748Y28413D01*
X41671Y28375D01*
X41519D01*
X41443Y28413D01*
X41367Y28489D01*
X41329Y28565D01*
X41066Y28984D02*
Y29022D01*
X41028Y29099D01*
X40990Y29137D01*
X40914Y29175D01*
X40761D01*
X40685Y29137D01*
X40647Y29099D01*
X40609Y29022D01*
Y28946D01*
X40647Y28870D01*
X40723Y28756D01*
X41104Y28375D01*
X40571D01*
X40316Y29175D02*
X39897D01*
X40125Y28870D01*
X40011D01*
X39935Y28832D01*
X39897Y28794D01*
X39859Y28680D01*
Y28604D01*
X39897Y28489D01*
X39973Y28413D01*
X40087Y28375D01*
X40201D01*
X40316Y28413D01*
X40354Y28451D01*
X40392Y28527D01*
X6629Y20009D02*
X6667Y20086D01*
X6743Y20162D01*
X6819Y20200D01*
X6971D01*
X7048Y20162D01*
X7124Y20086D01*
X7162Y20009D01*
X7200Y19895D01*
Y19705D01*
X7162Y19590D01*
X7124Y19514D01*
X7048Y19438D01*
X6971Y19400D01*
X6819D01*
X6743Y19438D01*
X6667Y19514D01*
X6629Y19590D01*
X6366Y20009D02*
Y20047D01*
X6328Y20124D01*
X6290Y20162D01*
X6214Y20200D01*
X6061D01*
X5985Y20162D01*
X5947Y20124D01*
X5909Y20047D01*
Y19971D01*
X5947Y19895D01*
X6023Y19781D01*
X6404Y19400D01*
X5871D01*
X5654Y20009D02*
Y20047D01*
X5616Y20124D01*
X5577Y20162D01*
X5501Y20200D01*
X5349D01*
X5273Y20162D01*
X5235Y20124D01*
X5197Y20047D01*
Y19971D01*
X5235Y19895D01*
X5311Y19781D01*
X5692Y19400D01*
X5159D01*
X16709Y16371D02*
X16786Y16333D01*
X16862Y16257D01*
X16900Y16181D01*
Y16029D01*
X16862Y15952D01*
X16786Y15876D01*
X16709Y15838D01*
X16595Y15800D01*
X16405D01*
X16290Y15838D01*
X16214Y15876D01*
X16138Y15952D01*
X16100Y16029D01*
Y16181D01*
X16138Y16257D01*
X16214Y16333D01*
X16290Y16371D01*
X16709Y16634D02*
X16747D01*
X16824Y16672D01*
X16862Y16710D01*
X16900Y16786D01*
Y16939D01*
X16862Y17015D01*
X16824Y17053D01*
X16747Y17091D01*
X16671D01*
X16595Y17053D01*
X16481Y16977D01*
X16100Y16596D01*
Y17129D01*
X16747Y17308D02*
X16786Y17384D01*
X16900Y17499D01*
X16100D01*
X31509Y30371D02*
X31586Y30333D01*
X31662Y30257D01*
X31700Y30181D01*
Y30029D01*
X31662Y29952D01*
X31586Y29876D01*
X31509Y29838D01*
X31395Y29800D01*
X31205D01*
X31090Y29838D01*
X31014Y29876D01*
X30938Y29952D01*
X30900Y30029D01*
Y30181D01*
X30938Y30257D01*
X31014Y30333D01*
X31090Y30371D01*
X31509Y30634D02*
X31547D01*
X31624Y30672D01*
X31662Y30710D01*
X31700Y30786D01*
Y30939D01*
X31662Y31015D01*
X31624Y31053D01*
X31547Y31091D01*
X31471D01*
X31395Y31053D01*
X31281Y30977D01*
X30900Y30596D01*
Y31129D01*
X31700Y31537D02*
X31662Y31423D01*
X31547Y31346D01*
X31357Y31308D01*
X31243D01*
X31052Y31346D01*
X30938Y31423D01*
X30900Y31537D01*
Y31613D01*
X30938Y31727D01*
X31052Y31803D01*
X31243Y31841D01*
X31357D01*
X31547Y31803D01*
X31662Y31727D01*
X31700Y31613D01*
Y31537D01*
X25529Y5809D02*
X25567Y5886D01*
X25643Y5962D01*
X25719Y6000D01*
X25871D01*
X25948Y5962D01*
X26024Y5886D01*
X26062Y5809D01*
X26100Y5695D01*
Y5505D01*
X26062Y5390D01*
X26024Y5314D01*
X25948Y5238D01*
X25871Y5200D01*
X25719D01*
X25643Y5238D01*
X25567Y5314D01*
X25529Y5390D01*
X25304Y5847D02*
X25228Y5886D01*
X25114Y6000D01*
Y5200D01*
X24527Y6000D02*
X24641Y5962D01*
X24679Y5886D01*
Y5809D01*
X24641Y5733D01*
X24565Y5695D01*
X24413Y5657D01*
X24298Y5619D01*
X24222Y5543D01*
X24184Y5467D01*
Y5352D01*
X24222Y5276D01*
X24260Y5238D01*
X24375Y5200D01*
X24527D01*
X24641Y5238D01*
X24679Y5276D01*
X24717Y5352D01*
Y5467D01*
X24679Y5543D01*
X24603Y5619D01*
X24489Y5657D01*
X24337Y5695D01*
X24260Y5733D01*
X24222Y5809D01*
Y5886D01*
X24260Y5962D01*
X24375Y6000D01*
X24527D01*
X39019Y21631D02*
X39095Y21593D01*
X39171Y21517D01*
X39209Y21441D01*
Y21289D01*
X39171Y21212D01*
X39095Y21136D01*
X39019Y21098D01*
X38904Y21060D01*
X38714D01*
X38600Y21098D01*
X38523Y21136D01*
X38447Y21212D01*
X38409Y21289D01*
Y21441D01*
X38447Y21517D01*
X38523Y21593D01*
X38600Y21631D01*
X39057Y21856D02*
X39095Y21932D01*
X39209Y22046D01*
X38409D01*
X39095Y22900D02*
X39171Y22862D01*
X39209Y22747D01*
Y22671D01*
X39171Y22557D01*
X39057Y22481D01*
X38866Y22443D01*
X38676D01*
X38523Y22481D01*
X38447Y22557D01*
X38409Y22671D01*
Y22709D01*
X38447Y22823D01*
X38523Y22900D01*
X38638Y22938D01*
X38676D01*
X38790Y22900D01*
X38866Y22823D01*
X38904Y22709D01*
Y22671D01*
X38866Y22557D01*
X38790Y22481D01*
X38676Y22443D01*
X27109Y30371D02*
X27186Y30333D01*
X27262Y30257D01*
X27300Y30181D01*
Y30029D01*
X27262Y29952D01*
X27186Y29876D01*
X27109Y29838D01*
X26995Y29800D01*
X26805D01*
X26690Y29838D01*
X26614Y29876D01*
X26538Y29952D01*
X26500Y30029D01*
Y30181D01*
X26538Y30257D01*
X26614Y30333D01*
X26690Y30371D01*
X27147Y30596D02*
X27186Y30672D01*
X27300Y30786D01*
X26500D01*
X27300Y31640D02*
Y31259D01*
X26957Y31221D01*
X26995Y31259D01*
X27033Y31373D01*
Y31487D01*
X26995Y31602D01*
X26919Y31678D01*
X26805Y31716D01*
X26729D01*
X26614Y31678D01*
X26538Y31602D01*
X26500Y31487D01*
Y31373D01*
X26538Y31259D01*
X26576Y31221D01*
X26652Y31183D01*
X53029Y29809D02*
X53067Y29886D01*
X53143Y29962D01*
X53219Y30000D01*
X53371D01*
X53448Y29962D01*
X53524Y29886D01*
X53562Y29809D01*
X53600Y29695D01*
Y29505D01*
X53562Y29390D01*
X53524Y29314D01*
X53448Y29238D01*
X53371Y29200D01*
X53219D01*
X53143Y29238D01*
X53067Y29314D01*
X53029Y29390D01*
X52804Y29847D02*
X52728Y29886D01*
X52614Y30000D01*
Y29200D01*
X52179Y29809D02*
Y29847D01*
X52141Y29924D01*
X52103Y29962D01*
X52027Y30000D01*
X51875D01*
X51798Y29962D01*
X51760Y29924D01*
X51722Y29847D01*
Y29771D01*
X51760Y29695D01*
X51837Y29581D01*
X52217Y29200D01*
X51684D01*
X44996Y28083D02*
X45034Y28159D01*
X45110Y28236D01*
X45187Y28274D01*
X45339D01*
X45415Y28236D01*
X45491Y28159D01*
X45529Y28083D01*
X45567Y27969D01*
Y27778D01*
X45529Y27664D01*
X45491Y27588D01*
X45415Y27512D01*
X45339Y27474D01*
X45187D01*
X45110Y27512D01*
X45034Y27588D01*
X44996Y27664D01*
X44771Y28121D02*
X44695Y28159D01*
X44581Y28274D01*
Y27474D01*
X44185Y28121D02*
X44109Y28159D01*
X43994Y28274D01*
Y27474D01*
X11329Y22309D02*
X11367Y22386D01*
X11443Y22462D01*
X11519Y22500D01*
X11671D01*
X11748Y22462D01*
X11824Y22386D01*
X11862Y22309D01*
X11900Y22195D01*
Y22005D01*
X11862Y21890D01*
X11824Y21814D01*
X11748Y21738D01*
X11671Y21700D01*
X11519D01*
X11443Y21738D01*
X11367Y21814D01*
X11329Y21890D01*
X10609Y22233D02*
X10647Y22119D01*
X10723Y22043D01*
X10837Y22005D01*
X10875D01*
X10990Y22043D01*
X11066Y22119D01*
X11104Y22233D01*
Y22271D01*
X11066Y22386D01*
X10990Y22462D01*
X10875Y22500D01*
X10837D01*
X10723Y22462D01*
X10647Y22386D01*
X10609Y22233D01*
Y22043D01*
X10647Y21852D01*
X10723Y21738D01*
X10837Y21700D01*
X10914D01*
X11028Y21738D01*
X11066Y21814D01*
X8129Y28719D02*
X8167Y28796D01*
X8243Y28872D01*
X8319Y28910D01*
X8471D01*
X8548Y28872D01*
X8624Y28796D01*
X8662Y28719D01*
X8700Y28605D01*
Y28415D01*
X8662Y28300D01*
X8624Y28224D01*
X8548Y28148D01*
X8471Y28110D01*
X8319D01*
X8243Y28148D01*
X8167Y28224D01*
X8129Y28300D01*
X7714Y28910D02*
X7828Y28872D01*
X7866Y28796D01*
Y28719D01*
X7828Y28643D01*
X7752Y28605D01*
X7599Y28567D01*
X7485Y28529D01*
X7409Y28453D01*
X7371Y28377D01*
Y28262D01*
X7409Y28186D01*
X7447Y28148D01*
X7561Y28110D01*
X7714D01*
X7828Y28148D01*
X7866Y28186D01*
X7904Y28262D01*
Y28377D01*
X7866Y28453D01*
X7790Y28529D01*
X7675Y28567D01*
X7523Y28605D01*
X7447Y28643D01*
X7409Y28719D01*
Y28796D01*
X7447Y28872D01*
X7561Y28910D01*
X7714D01*
X11229Y26309D02*
X11267Y26386D01*
X11343Y26462D01*
X11419Y26500D01*
X11571D01*
X11648Y26462D01*
X11724Y26386D01*
X11762Y26309D01*
X11800Y26195D01*
Y26005D01*
X11762Y25890D01*
X11724Y25814D01*
X11648Y25738D01*
X11571Y25700D01*
X11419D01*
X11343Y25738D01*
X11267Y25814D01*
X11229Y25890D01*
X10471Y26500D02*
X10852Y25700D01*
X11004Y26500D02*
X10471D01*
X14818Y25829D02*
X14857Y25905D01*
X14933Y25981D01*
X15009Y26019D01*
X15161D01*
X15237Y25981D01*
X15314Y25905D01*
X15352Y25829D01*
X15390Y25715D01*
Y25524D01*
X15352Y25410D01*
X15314Y25334D01*
X15237Y25258D01*
X15161Y25220D01*
X15009D01*
X14933Y25258D01*
X14857Y25334D01*
X14818Y25410D01*
X14137Y25905D02*
X14175Y25981D01*
X14289Y26019D01*
X14365D01*
X14480Y25981D01*
X14556Y25867D01*
X14594Y25677D01*
Y25486D01*
X14556Y25334D01*
X14480Y25258D01*
X14365Y25220D01*
X14327D01*
X14213Y25258D01*
X14137Y25334D01*
X14099Y25448D01*
Y25486D01*
X14137Y25600D01*
X14213Y25677D01*
X14327Y25715D01*
X14365D01*
X14480Y25677D01*
X14556Y25600D01*
X14594Y25486D01*
D15*
X10382Y18655D02*
G03*
X11017Y18655I317J0D01*
G01*
X54450Y20950D02*
Y24050D01*
X47750Y20950D02*
Y24050D01*
Y20950D02*
X54450D01*
X47750Y24050D02*
X54450D01*
X11017Y18655D02*
X11790D01*
X9610D02*
X10382D01*
X9610Y8495D02*
Y18655D01*
Y8495D02*
X11790D01*
Y18655D01*
X23880Y24115D02*
X35825D01*
Y10885D02*
Y24115D01*
X22595Y10885D02*
X35825D01*
X22595D02*
Y22830D01*
X23880Y24115D01*
D73*
X47875Y25425D02*
G03*
X47875Y25425I-125J0D01*
G01*
D74*
X27904Y27948D02*
Y28252D01*
X28716Y27948D02*
Y28252D01*
M02*
