G04*
G04 #@! TF.GenerationSoftware,Altium Limited,Altium Designer,18.1.7 (191)*
G04*
G04 Layer_Physical_Order=1*
G04 Layer_Color=255*
%FSLAX43Y43*%
%MOMM*%
G71*
G01*
G75*
%ADD14C,0.500*%
%ADD15C,0.200*%
%ADD32R,1.000X2.000*%
G04:AMPARAMS|DCode=33|XSize=1mm|YSize=0.9mm|CornerRadius=0.113mm|HoleSize=0mm|Usage=FLASHONLY|Rotation=90.000|XOffset=0mm|YOffset=0mm|HoleType=Round|Shape=RoundedRectangle|*
%AMROUNDEDRECTD33*
21,1,1.000,0.675,0,0,90.0*
21,1,0.775,0.900,0,0,90.0*
1,1,0.225,0.338,0.388*
1,1,0.225,0.338,-0.388*
1,1,0.225,-0.338,-0.388*
1,1,0.225,-0.338,0.388*
%
%ADD33ROUNDEDRECTD33*%
G04:AMPARAMS|DCode=34|XSize=2.3mm|YSize=1.8mm|CornerRadius=0.225mm|HoleSize=0mm|Usage=FLASHONLY|Rotation=90.000|XOffset=0mm|YOffset=0mm|HoleType=Round|Shape=RoundedRectangle|*
%AMROUNDEDRECTD34*
21,1,2.300,1.350,0,0,90.0*
21,1,1.850,1.800,0,0,90.0*
1,1,0.450,0.675,0.925*
1,1,0.450,0.675,-0.925*
1,1,0.450,-0.675,-0.925*
1,1,0.450,-0.675,0.925*
%
%ADD34ROUNDEDRECTD34*%
G04:AMPARAMS|DCode=35|XSize=0.25mm|YSize=0.6mm|CornerRadius=0.05mm|HoleSize=0mm|Usage=FLASHONLY|Rotation=0.000|XOffset=0mm|YOffset=0mm|HoleType=Round|Shape=RoundedRectangle|*
%AMROUNDEDRECTD35*
21,1,0.250,0.500,0,0,0.0*
21,1,0.150,0.600,0,0,0.0*
1,1,0.100,0.075,-0.250*
1,1,0.100,-0.075,-0.250*
1,1,0.100,-0.075,0.250*
1,1,0.100,0.075,0.250*
%
%ADD35ROUNDEDRECTD35*%
G04:AMPARAMS|DCode=36|XSize=0.25mm|YSize=0.6mm|CornerRadius=0.05mm|HoleSize=0mm|Usage=FLASHONLY|Rotation=270.000|XOffset=0mm|YOffset=0mm|HoleType=Round|Shape=RoundedRectangle|*
%AMROUNDEDRECTD36*
21,1,0.250,0.500,0,0,270.0*
21,1,0.150,0.600,0,0,270.0*
1,1,0.100,-0.250,-0.075*
1,1,0.100,-0.250,0.075*
1,1,0.100,0.250,0.075*
1,1,0.100,0.250,-0.075*
%
%ADD36ROUNDEDRECTD36*%
%ADD37R,4.600X4.600*%
G04:AMPARAMS|DCode=38|XSize=1mm|YSize=0.9mm|CornerRadius=0.113mm|HoleSize=0mm|Usage=FLASHONLY|Rotation=180.000|XOffset=0mm|YOffset=0mm|HoleType=Round|Shape=RoundedRectangle|*
%AMROUNDEDRECTD38*
21,1,1.000,0.675,0,0,180.0*
21,1,0.775,0.900,0,0,180.0*
1,1,0.225,-0.388,0.338*
1,1,0.225,0.388,0.338*
1,1,0.225,0.388,-0.338*
1,1,0.225,-0.388,-0.338*
%
%ADD38ROUNDEDRECTD38*%
%ADD39R,1.000X0.900*%
%ADD40R,0.900X1.000*%
G04:AMPARAMS|DCode=41|XSize=0.6mm|YSize=1mm|CornerRadius=0.075mm|HoleSize=0mm|Usage=FLASHONLY|Rotation=180.000|XOffset=0mm|YOffset=0mm|HoleType=Round|Shape=RoundedRectangle|*
%AMROUNDEDRECTD41*
21,1,0.600,0.850,0,0,180.0*
21,1,0.450,1.000,0,0,180.0*
1,1,0.150,-0.225,0.425*
1,1,0.150,0.225,0.425*
1,1,0.150,0.225,-0.425*
1,1,0.150,-0.225,-0.425*
%
%ADD41ROUNDEDRECTD41*%
G04:AMPARAMS|DCode=42|XSize=0.8mm|YSize=0.8mm|CornerRadius=0.1mm|HoleSize=0mm|Usage=FLASHONLY|Rotation=0.000|XOffset=0mm|YOffset=0mm|HoleType=Round|Shape=RoundedRectangle|*
%AMROUNDEDRECTD42*
21,1,0.800,0.600,0,0,0.0*
21,1,0.600,0.800,0,0,0.0*
1,1,0.200,0.300,-0.300*
1,1,0.200,-0.300,-0.300*
1,1,0.200,-0.300,0.300*
1,1,0.200,0.300,0.300*
%
%ADD42ROUNDEDRECTD42*%
%ADD43R,1.400X0.400*%
%ADD44R,1.900X2.300*%
%ADD45R,1.900X1.800*%
%ADD46C,0.300*%
%ADD47C,0.800*%
%ADD48C,1.300*%
%ADD49C,0.600*%
%ADD50C,0.900*%
G36*
X23411Y35651D02*
X23348Y35569D01*
X23262Y35362D01*
X23233Y35140D01*
X23262Y34918D01*
X23348Y34711D01*
X23484Y34534D01*
X23661Y34398D01*
X23733Y34368D01*
Y32949D01*
X23606Y32923D01*
X23562Y33029D01*
X23426Y33206D01*
X23249Y33342D01*
X23042Y33428D01*
X22820Y33457D01*
X22598Y33428D01*
X22391Y33342D01*
X22214Y33206D01*
X22078Y33029D01*
X21992Y32822D01*
X21963Y32600D01*
X21992Y32378D01*
X22078Y32171D01*
X22214Y31994D01*
X22391Y31858D01*
X22598Y31772D01*
X22820Y31743D01*
X23042Y31772D01*
X23114Y31802D01*
X24598Y30317D01*
X24549Y30200D01*
X23800D01*
Y28800D01*
X24576D01*
X24605Y28781D01*
X24800Y28742D01*
X24995Y28781D01*
X25024Y28800D01*
X25100D01*
Y28851D01*
X25160Y28891D01*
X25271Y29057D01*
X25310Y29252D01*
X25271Y29447D01*
X25235Y29501D01*
X25333Y29582D01*
X29194Y25721D01*
X29310Y25644D01*
X29446Y25617D01*
X35695D01*
X36293Y25019D01*
Y24400D01*
X24327D01*
X24295Y24421D01*
X24100Y24460D01*
X23905Y24421D01*
X23873Y24400D01*
X23400D01*
Y22000D01*
X24157D01*
X24216Y21888D01*
X24205Y21871D01*
X24166Y21676D01*
X24205Y21481D01*
X24316Y21316D01*
X24481Y21205D01*
X24676Y21166D01*
X24871Y21205D01*
X25037Y21316D01*
X25147Y21481D01*
X25150Y21493D01*
X34653D01*
X34656Y21481D01*
X34739Y21356D01*
X34448Y21064D01*
X34370Y20949D01*
X34343Y20812D01*
Y20149D01*
X33766Y19573D01*
X33689Y19457D01*
X33662Y19320D01*
Y17831D01*
X33689Y17695D01*
X33766Y17579D01*
X34714Y16631D01*
X34830Y16554D01*
X34967Y16526D01*
X35394D01*
X35628Y16292D01*
Y16157D01*
X35331Y15860D01*
X35327Y15861D01*
X35132Y15822D01*
X34966Y15711D01*
X34856Y15546D01*
X34803Y15524D01*
X34722Y15578D01*
X34527Y15617D01*
X34476Y15607D01*
X32516Y17566D01*
X32417Y17633D01*
X32300Y17656D01*
X32300Y17656D01*
X18609D01*
Y18362D01*
X17209D01*
Y17256D01*
X16709D01*
Y18362D01*
X15375D01*
Y18960D01*
X15292Y19042D01*
X15352Y19163D01*
X16709D01*
Y20462D01*
X15902D01*
X15834Y20508D01*
X15639Y20547D01*
X15574Y20534D01*
X15450Y20639D01*
Y21540D01*
X15530Y21639D01*
X15577Y21665D01*
X15675Y21645D01*
X15825D01*
X15923Y21665D01*
X15967Y21694D01*
X16007D01*
X16105Y21629D01*
X16300Y21590D01*
X16495Y21629D01*
X16660Y21740D01*
X16681Y21770D01*
X16800Y21720D01*
X16794Y21688D01*
Y21417D01*
X16779Y21395D01*
X16740Y21200D01*
X16779Y21005D01*
X16802Y20970D01*
X16818Y20891D01*
X16887Y20787D01*
X16991Y20718D01*
X17112Y20694D01*
X17231D01*
X17250Y20690D01*
X17269Y20694D01*
X17888D01*
X18009Y20718D01*
X18113Y20787D01*
X18182Y20891D01*
X18206Y21013D01*
Y21688D01*
X18186Y21786D01*
X18200Y21800D01*
Y22600D01*
X18186Y22614D01*
X18206Y22712D01*
Y23309D01*
X18314Y23419D01*
X18328Y23423D01*
X18385Y23421D01*
X18439Y23339D01*
X18605Y23229D01*
X18800Y23190D01*
X18995Y23229D01*
X19160Y23339D01*
X19271Y23505D01*
X19310Y23700D01*
X19271Y23895D01*
X19160Y24060D01*
X18995Y24171D01*
X18800Y24210D01*
X18793Y24208D01*
X18743Y24328D01*
X18760Y24340D01*
X18871Y24505D01*
X18910Y24700D01*
X18871Y24895D01*
X18760Y25060D01*
X18595Y25171D01*
X18400Y25210D01*
X18205Y25171D01*
X18040Y25060D01*
X17918Y25063D01*
X17676Y25305D01*
X17717Y25444D01*
X17860Y25540D01*
X17971Y25705D01*
X18010Y25900D01*
X17971Y26095D01*
X17860Y26260D01*
X17695Y26371D01*
X17500Y26410D01*
X17305Y26371D01*
X17140Y26260D01*
X17098Y26199D01*
X17019Y26193D01*
X16905Y26302D01*
Y26375D01*
X16885Y26473D01*
X16834Y26550D01*
X16885Y26627D01*
X16905Y26725D01*
Y26875D01*
X16885Y26973D01*
X16834Y27050D01*
X16885Y27127D01*
X16895Y27175D01*
X16400D01*
Y27300D01*
X16275D01*
Y27630D01*
X16195D01*
X16124Y27674D01*
X16080Y27745D01*
Y28200D01*
X16060Y28298D01*
X16056Y28304D01*
Y28594D01*
X16438D01*
X16536Y28614D01*
X16550Y28600D01*
X17350D01*
X17550Y28800D01*
Y29793D01*
X19679D01*
X19700Y29689D01*
Y28800D01*
X21000D01*
Y30200D01*
X20320D01*
X20117Y30402D01*
X20001Y30480D01*
X19865Y30507D01*
X16441D01*
X15745Y31204D01*
X15629Y31281D01*
X15492Y31308D01*
X14067D01*
X12623Y32752D01*
X12507Y32830D01*
X12498Y32832D01*
X12432Y32989D01*
X12296Y33166D01*
X12119Y33302D01*
X11912Y33388D01*
X11690Y33417D01*
X11468Y33388D01*
X11261Y33302D01*
X11084Y33166D01*
X10948Y32989D01*
X10862Y32782D01*
X10833Y32560D01*
X10862Y32338D01*
X10948Y32131D01*
X11084Y31954D01*
X11261Y31818D01*
X11468Y31732D01*
X11690Y31703D01*
X11912Y31732D01*
X12119Y31818D01*
X12296Y31954D01*
X12405Y31961D01*
X12741Y31624D01*
X12693Y31507D01*
X10215D01*
X10079Y31480D01*
X9963Y31402D01*
X9569Y31008D01*
X9291D01*
X8287Y32013D01*
Y34822D01*
X9243Y35778D01*
X9709D01*
X9772Y35651D01*
X9678Y35529D01*
X9592Y35322D01*
X9563Y35100D01*
X9592Y34878D01*
X9678Y34671D01*
X9814Y34494D01*
X9991Y34358D01*
X10198Y34272D01*
X10420Y34243D01*
X10642Y34272D01*
X10849Y34358D01*
X11026Y34494D01*
X11162Y34671D01*
X11248Y34878D01*
X11277Y35100D01*
X11248Y35322D01*
X11162Y35529D01*
X11068Y35651D01*
X11131Y35778D01*
X12249D01*
X12312Y35651D01*
X12218Y35529D01*
X12132Y35322D01*
X12103Y35100D01*
X12132Y34878D01*
X12218Y34671D01*
X12354Y34494D01*
X12531Y34358D01*
X12738Y34272D01*
X12960Y34243D01*
X13182Y34272D01*
X13389Y34358D01*
X13566Y34494D01*
X13702Y34671D01*
X13788Y34878D01*
X13817Y35100D01*
X13788Y35322D01*
X13702Y35529D01*
X13608Y35651D01*
X13671Y35778D01*
X14789D01*
X14852Y35651D01*
X14758Y35529D01*
X14672Y35322D01*
X14643Y35100D01*
X14672Y34878D01*
X14758Y34671D01*
X14894Y34494D01*
X15071Y34358D01*
X15278Y34272D01*
X15500Y34243D01*
X15722Y34272D01*
X15929Y34358D01*
X16106Y34494D01*
X16242Y34671D01*
X16328Y34878D01*
X16357Y35100D01*
X16328Y35322D01*
X16242Y35529D01*
X16148Y35651D01*
X16211Y35778D01*
X17329D01*
X17392Y35651D01*
X17298Y35529D01*
X17212Y35322D01*
X17183Y35100D01*
X17212Y34878D01*
X17298Y34671D01*
X17434Y34494D01*
X17611Y34358D01*
X17818Y34272D01*
X18040Y34243D01*
X18262Y34272D01*
X18469Y34358D01*
X18646Y34494D01*
X18782Y34671D01*
X18789Y34688D01*
X22103D01*
X22155Y34667D01*
X22325Y34644D01*
X22495Y34667D01*
X22653Y34732D01*
X22789Y34836D01*
X22893Y34972D01*
X22958Y35130D01*
X22981Y35300D01*
X22958Y35470D01*
X22893Y35628D01*
X22875Y35651D01*
X22937Y35778D01*
X23348D01*
X23411Y35651D01*
D02*
G37*
G36*
X8365Y36796D02*
X8414Y36679D01*
X7242Y35508D01*
X7110Y35309D01*
X7063Y35075D01*
Y31760D01*
X7110Y31525D01*
X7242Y31327D01*
X8092Y30478D01*
Y30056D01*
X7965Y29995D01*
X7909Y30032D01*
X7787Y30056D01*
X7012D01*
X6891Y30032D01*
X6833Y29993D01*
X6706Y30053D01*
Y30188D01*
X6686Y30286D01*
X6700Y30300D01*
Y31100D01*
X6500Y31300D01*
X5500D01*
X5300Y31100D01*
Y30300D01*
X5314Y30286D01*
X5294Y30188D01*
Y29513D01*
X5318Y29391D01*
X5387Y29287D01*
X5403Y29276D01*
Y29124D01*
X5387Y29113D01*
X5318Y29009D01*
X5294Y28888D01*
Y28212D01*
X5311Y28128D01*
X5253Y28006D01*
X4727D01*
X4306Y28426D01*
X4207Y28493D01*
X4090Y28516D01*
X4090Y28516D01*
X2053D01*
X2002Y28639D01*
X1866Y28816D01*
X1689Y28952D01*
X1482Y29038D01*
X1260Y29067D01*
X1038Y29038D01*
X831Y28952D01*
X654Y28816D01*
X518Y28639D01*
X432Y28432D01*
X403Y28210D01*
X432Y27988D01*
X518Y27781D01*
X654Y27604D01*
X831Y27468D01*
X1038Y27382D01*
X1260Y27353D01*
X1482Y27382D01*
X1689Y27468D01*
X1866Y27604D01*
X2002Y27781D01*
X2053Y27904D01*
X3638D01*
X3646Y27777D01*
X3578Y27768D01*
X3371Y27682D01*
X3194Y27546D01*
X3058Y27369D01*
X2972Y27162D01*
X2943Y26940D01*
X2972Y26718D01*
X3058Y26511D01*
X3194Y26334D01*
X3371Y26198D01*
X3578Y26112D01*
X3800Y26083D01*
X4022Y26112D01*
X4229Y26198D01*
X4406Y26334D01*
X4542Y26511D01*
X4556Y26544D01*
X5294D01*
Y26513D01*
X5318Y26391D01*
X5387Y26287D01*
X5411Y26271D01*
Y26119D01*
X5387Y26103D01*
X5318Y25999D01*
X5294Y25878D01*
Y25846D01*
X2094D01*
X2088Y25892D01*
X2002Y26099D01*
X1866Y26276D01*
X1689Y26412D01*
X1482Y26498D01*
X1260Y26527D01*
X1038Y26498D01*
X831Y26412D01*
X654Y26276D01*
X518Y26099D01*
X432Y25892D01*
X403Y25670D01*
X432Y25448D01*
X518Y25241D01*
X654Y25064D01*
X831Y24928D01*
X1038Y24842D01*
X1260Y24813D01*
X1482Y24842D01*
X1689Y24928D01*
X1866Y25064D01*
X1997Y25234D01*
X3282D01*
X3325Y25107D01*
X3194Y25006D01*
X3058Y24829D01*
X2972Y24622D01*
X2943Y24400D01*
X2972Y24178D01*
X3058Y23971D01*
X3194Y23794D01*
X3371Y23658D01*
X3578Y23572D01*
X3800Y23543D01*
X4022Y23572D01*
X4229Y23658D01*
X4406Y23794D01*
X4542Y23971D01*
X4628Y24178D01*
X4657Y24400D01*
X4696Y24444D01*
X5300D01*
Y24290D01*
X5314Y24276D01*
X5294Y24177D01*
Y23503D01*
X5318Y23381D01*
X5387Y23277D01*
X5396Y23271D01*
Y23119D01*
X5387Y23113D01*
X5318Y23009D01*
X5294Y22888D01*
Y22212D01*
X5314Y22114D01*
X5300Y22100D01*
Y21300D01*
X5500Y21100D01*
X6500D01*
X6700Y21300D01*
Y21860D01*
X6827Y21885D01*
X6832Y21872D01*
X6936Y21736D01*
X7072Y21632D01*
X7230Y21567D01*
X7400Y21544D01*
X7570Y21567D01*
X7728Y21632D01*
X7864Y21736D01*
X7968Y21872D01*
X8033Y22030D01*
X8056Y22200D01*
X8046Y22269D01*
X8169Y22315D01*
X8187Y22287D01*
X8291Y22218D01*
X8413Y22194D01*
X9188D01*
X9309Y22218D01*
X9409Y22285D01*
X9439Y22239D01*
X9605Y22129D01*
X9800Y22090D01*
X9909Y22112D01*
X10015Y22014D01*
X10001Y21960D01*
X9975D01*
X9876Y21940D01*
X9863Y21954D01*
X9063D01*
X8863Y21754D01*
Y20754D01*
X9063Y20554D01*
X9863D01*
X9876Y20567D01*
X9975Y20548D01*
X10650D01*
X10772Y20572D01*
X10817Y20602D01*
X10944Y20534D01*
Y19997D01*
X10944Y19997D01*
X10967Y19880D01*
X11034Y19780D01*
X12369Y18445D01*
Y18404D01*
X12369Y18404D01*
X12392Y18287D01*
X12459Y18188D01*
X12744Y17903D01*
Y16700D01*
X12744Y16700D01*
X12767Y16583D01*
X12834Y16484D01*
X13384Y15934D01*
X13483Y15867D01*
X13600Y15844D01*
X13600Y15844D01*
X31098D01*
X31402Y15540D01*
X31439Y15355D01*
X31550Y15190D01*
X31715Y15079D01*
X31910Y15040D01*
X32105Y15079D01*
X32270Y15190D01*
X32381Y15355D01*
X32420Y15550D01*
X32381Y15745D01*
X32294Y15876D01*
X32235Y15990D01*
X32334Y16138D01*
X32468Y16184D01*
X33544Y15108D01*
Y14778D01*
X33506Y14721D01*
X33467Y14526D01*
X33506Y14331D01*
X33575Y14227D01*
X33507Y14100D01*
X29300D01*
Y12209D01*
X28519Y11428D01*
X28410Y11362D01*
X28245Y11473D01*
X28050Y11511D01*
X27855Y11473D01*
X27690Y11362D01*
X27579Y11197D01*
X27540Y11002D01*
X27579Y10806D01*
X27690Y10641D01*
X27855Y10531D01*
X28050Y10492D01*
X28245Y10531D01*
X28410Y10641D01*
X28413Y10645D01*
X28597D01*
X28734Y10672D01*
X28795Y10713D01*
X28915Y10692D01*
X28945Y10665D01*
X29040Y10525D01*
X29205Y10414D01*
X29400Y10375D01*
X29595Y10414D01*
X29760Y10525D01*
X29871Y10690D01*
X29910Y10885D01*
X29882Y11027D01*
X30048Y11193D01*
X32765D01*
X32851Y11100D01*
Y10100D01*
X33051Y9900D01*
X33137D01*
X33174Y9843D01*
X33520Y9498D01*
X33636Y9420D01*
X33772Y9393D01*
X36310D01*
X36447Y9420D01*
X36562Y9498D01*
X36737Y9673D01*
X36815Y9788D01*
X36837Y9900D01*
X36860D01*
X36874Y9914D01*
X36972Y9894D01*
X37647D01*
X37769Y9918D01*
X37873Y9987D01*
X37942Y10091D01*
X37966Y10213D01*
Y10988D01*
X37942Y11109D01*
X37873Y11213D01*
X37769Y11282D01*
X37647Y11306D01*
X37314D01*
X37310Y11307D01*
X37306Y11306D01*
X36972D01*
X36969Y11305D01*
X36842Y11406D01*
Y17411D01*
X37602Y18171D01*
X37680Y18287D01*
X37707Y18424D01*
Y19779D01*
X38902Y20974D01*
X38980Y21090D01*
X39007Y21227D01*
Y22162D01*
X39097Y22180D01*
X39262Y22291D01*
X39373Y22456D01*
X39412Y22651D01*
X39373Y22846D01*
X39262Y23012D01*
X39097Y23122D01*
X38902Y23161D01*
X38707Y23122D01*
X38634Y23073D01*
X38507Y23141D01*
Y25809D01*
X38480Y25945D01*
X38402Y26061D01*
X36755Y27708D01*
X36769Y27780D01*
X36803Y27835D01*
X37905D01*
X37920Y27818D01*
X37962Y27708D01*
X37917Y27642D01*
X37894Y27525D01*
Y27350D01*
X38500D01*
Y27225D01*
X38625D01*
Y26619D01*
X38800D01*
X38917Y26642D01*
X39016Y26709D01*
X39027Y26725D01*
X39673D01*
X39684Y26709D01*
X39783Y26642D01*
X39900Y26619D01*
X40500D01*
X40617Y26642D01*
X40716Y26709D01*
X40750Y26759D01*
X40885Y26732D01*
X40893Y26691D01*
X40962Y26587D01*
X41066Y26518D01*
X41188Y26494D01*
X41801D01*
X41854Y26367D01*
X41167Y25681D01*
X41113Y25600D01*
X40900D01*
Y23200D01*
X42300D01*
Y25082D01*
X42389Y25156D01*
X42500Y25109D01*
Y23200D01*
X43900D01*
Y25085D01*
X44251Y25436D01*
X44303Y25457D01*
X44439Y25561D01*
X44543Y25697D01*
X44608Y25855D01*
X44631Y26025D01*
X44608Y26195D01*
X44543Y26353D01*
X44439Y26489D01*
X44303Y26593D01*
X44145Y26658D01*
X43984Y26679D01*
X43973Y26683D01*
X43878Y26796D01*
X43881Y26812D01*
Y27587D01*
X43857Y27709D01*
X43879Y27769D01*
X44022Y27817D01*
X44030Y27814D01*
X44200Y27792D01*
X44370Y27814D01*
X44528Y27879D01*
X44664Y27984D01*
X44768Y28119D01*
X44833Y28277D01*
X44856Y28447D01*
X44833Y28617D01*
X44768Y28775D01*
X44759Y28786D01*
X44815Y28900D01*
X46050D01*
Y31300D01*
X45809D01*
Y32806D01*
X45856Y32830D01*
X45936Y32841D01*
X46072Y32662D01*
X46271Y32510D01*
X46502Y32414D01*
X46750Y32382D01*
X46998Y32414D01*
X47229Y32510D01*
X47428Y32662D01*
X47580Y32861D01*
X47676Y33092D01*
X47708Y33340D01*
X47676Y33588D01*
X47580Y33819D01*
X47428Y34018D01*
X47229Y34170D01*
X46998Y34266D01*
X46750Y34298D01*
X46502Y34266D01*
X46271Y34170D01*
X46072Y34018D01*
X45936Y33839D01*
X45856Y33850D01*
X45809Y33874D01*
Y34421D01*
X45956Y34534D01*
X46092Y34711D01*
X46178Y34918D01*
X46207Y35140D01*
X46178Y35362D01*
X46092Y35569D01*
X45956Y35746D01*
X45779Y35882D01*
X45572Y35968D01*
X45350Y35997D01*
X45128Y35968D01*
X44921Y35882D01*
X44744Y35746D01*
X44608Y35569D01*
X44522Y35362D01*
X44493Y35140D01*
X44522Y34918D01*
X44608Y34711D01*
X44744Y34534D01*
X44891Y34421D01*
Y33148D01*
X44764Y33105D01*
X44686Y33206D01*
X44509Y33342D01*
X44302Y33428D01*
X44080Y33457D01*
X43858Y33428D01*
X43651Y33342D01*
X43474Y33206D01*
X43396Y33105D01*
X43269Y33148D01*
Y34421D01*
X43416Y34534D01*
X43552Y34711D01*
X43638Y34918D01*
X43667Y35140D01*
X43638Y35362D01*
X43552Y35569D01*
X43416Y35746D01*
X43239Y35882D01*
X43032Y35968D01*
X42810Y35997D01*
X42588Y35968D01*
X42381Y35882D01*
X42204Y35746D01*
X42068Y35569D01*
X41982Y35362D01*
X41953Y35140D01*
X41982Y34918D01*
X42068Y34711D01*
X42204Y34534D01*
X42351Y34421D01*
Y33148D01*
X42224Y33105D01*
X42146Y33206D01*
X41969Y33342D01*
X41762Y33428D01*
X41540Y33457D01*
X41318Y33428D01*
X41111Y33342D01*
X40934Y33206D01*
X40856Y33105D01*
X40729Y33148D01*
Y34421D01*
X40876Y34534D01*
X41012Y34711D01*
X41098Y34918D01*
X41127Y35140D01*
X41098Y35362D01*
X41012Y35569D01*
X40876Y35746D01*
X40699Y35882D01*
X40492Y35968D01*
X40270Y35997D01*
X40048Y35968D01*
X39841Y35882D01*
X39664Y35746D01*
X39528Y35569D01*
X39442Y35362D01*
X39413Y35140D01*
X39442Y34918D01*
X39528Y34711D01*
X39664Y34534D01*
X39811Y34421D01*
Y33148D01*
X39684Y33105D01*
X39606Y33206D01*
X39429Y33342D01*
X39222Y33428D01*
X39000Y33457D01*
X38778Y33428D01*
X38571Y33342D01*
X38394Y33206D01*
X38316Y33105D01*
X38189Y33148D01*
Y34421D01*
X38336Y34534D01*
X38472Y34711D01*
X38558Y34918D01*
X38587Y35140D01*
X38558Y35362D01*
X38472Y35569D01*
X38336Y35746D01*
X38159Y35882D01*
X37952Y35968D01*
X37730Y35997D01*
X37508Y35968D01*
X37301Y35882D01*
X37124Y35746D01*
X36988Y35569D01*
X36902Y35362D01*
X36873Y35140D01*
X36902Y34918D01*
X36988Y34711D01*
X37124Y34534D01*
X37271Y34421D01*
Y33148D01*
X37144Y33105D01*
X37066Y33206D01*
X36889Y33342D01*
X36682Y33428D01*
X36460Y33457D01*
X36238Y33428D01*
X36031Y33342D01*
X35854Y33206D01*
X35776Y33105D01*
X35649Y33148D01*
Y34421D01*
X35796Y34534D01*
X35932Y34711D01*
X36018Y34918D01*
X36047Y35140D01*
X36018Y35362D01*
X35932Y35569D01*
X35796Y35746D01*
X35619Y35882D01*
X35412Y35968D01*
X35190Y35997D01*
X34968Y35968D01*
X34761Y35882D01*
X34584Y35746D01*
X34448Y35569D01*
X34362Y35362D01*
X34333Y35140D01*
X34362Y34918D01*
X34448Y34711D01*
X34584Y34534D01*
X34731Y34421D01*
Y33148D01*
X34604Y33105D01*
X34526Y33206D01*
X34349Y33342D01*
X34142Y33428D01*
X33920Y33457D01*
X33698Y33428D01*
X33491Y33342D01*
X33314Y33206D01*
X33178Y33029D01*
X33092Y32822D01*
X33063Y32600D01*
X33092Y32378D01*
X33178Y32171D01*
X33314Y31994D01*
X33461Y31881D01*
Y31300D01*
X33220D01*
Y29059D01*
X30606D01*
X29476Y30190D01*
X29468Y30208D01*
X29364Y30344D01*
X29228Y30448D01*
X29209Y30456D01*
X28512Y31153D01*
Y32001D01*
X28642Y32171D01*
X28728Y32378D01*
X28757Y32600D01*
X28728Y32822D01*
X28642Y33029D01*
X28512Y33199D01*
Y35700D01*
X28465Y35934D01*
X28333Y36133D01*
X27786Y36679D01*
X27835Y36796D01*
X49000Y36796D01*
Y34000D01*
Y33803D01*
X49051Y33413D01*
X49153Y33034D01*
X49304Y32670D01*
X49500Y32330D01*
X49740Y32018D01*
X50018Y31740D01*
X50330Y31500D01*
X50670Y31304D01*
X51034Y31153D01*
X51413Y31051D01*
X51803Y31000D01*
X52000D01*
X52000Y31000D01*
X54796Y31000D01*
X54796Y11000D01*
X52300Y11000D01*
X52275Y11127D01*
X52379Y11170D01*
X52578Y11322D01*
X52730Y11521D01*
X52826Y11752D01*
X52858Y12000D01*
X52826Y12248D01*
X52730Y12479D01*
X52578Y12678D01*
X52379Y12830D01*
X52148Y12926D01*
X51900Y12958D01*
X51652Y12926D01*
X51421Y12830D01*
X51222Y12678D01*
X51070Y12479D01*
X50974Y12248D01*
X50942Y12000D01*
X50974Y11752D01*
X51070Y11521D01*
X51222Y11322D01*
X51421Y11170D01*
X51590Y11100D01*
X51573Y10970D01*
X51413Y10949D01*
X51034Y10847D01*
X50670Y10696D01*
X50330Y10500D01*
X50018Y10260D01*
X49740Y9982D01*
X49500Y9670D01*
X49304Y9330D01*
X49153Y8966D01*
X49051Y8587D01*
X49000Y8197D01*
X49000Y8000D01*
X49000Y7803D01*
X49051Y7413D01*
X49153Y7034D01*
X49304Y6670D01*
X49500Y6330D01*
X49740Y6018D01*
X50018Y5740D01*
X50330Y5500D01*
X50670Y5304D01*
X51034Y5153D01*
X51413Y5051D01*
X51803Y5000D01*
X52000Y5000D01*
X54796Y5000D01*
X54796Y204D01*
X204D01*
Y2525D01*
X331Y2568D01*
X442Y2422D01*
X641Y2270D01*
X872Y2174D01*
X1120Y2142D01*
X1368Y2174D01*
X1599Y2270D01*
X1798Y2422D01*
X1950Y2621D01*
X2046Y2852D01*
X2078Y3100D01*
X2046Y3348D01*
X1950Y3579D01*
X1798Y3778D01*
X1599Y3930D01*
X1368Y4026D01*
X1120Y4058D01*
X872Y4026D01*
X641Y3930D01*
X442Y3778D01*
X331Y3632D01*
X204Y3675D01*
Y5000D01*
X3000D01*
X3197Y5000D01*
X3587Y5051D01*
X3966Y5153D01*
X4330Y5304D01*
X4670Y5500D01*
X4982Y5740D01*
X5260Y6018D01*
X5500Y6330D01*
X5696Y6670D01*
X5847Y7034D01*
X5865Y7100D01*
X10500D01*
X12000Y8600D01*
X12000Y17557D01*
X9707Y19850D01*
X5150Y19850D01*
X4047Y20953D01*
X4058Y21040D01*
X4026Y21288D01*
X3930Y21519D01*
X3778Y21718D01*
X3579Y21870D01*
X3348Y21966D01*
X3100Y21998D01*
X3013Y21987D01*
X3000Y22000D01*
X204D01*
Y31000D01*
X3000D01*
X3197Y31000D01*
X3587Y31051D01*
X3966Y31153D01*
X4330Y31304D01*
X4670Y31500D01*
X4982Y31740D01*
X5260Y32018D01*
X5500Y32330D01*
X5696Y32670D01*
X5847Y33034D01*
X5949Y33413D01*
X6000Y33803D01*
X6000Y34000D01*
X6000Y34000D01*
X6000D01*
Y36796D01*
X8365D01*
D02*
G37*
G36*
X13459Y30199D02*
X13575Y30122D01*
X13712Y30095D01*
X13777Y29968D01*
X13730Y29897D01*
X13691Y29701D01*
X13704Y29637D01*
X13534Y29467D01*
X13467Y29368D01*
X13444Y29251D01*
X13444Y29251D01*
Y28561D01*
X13325Y28455D01*
X13175D01*
X13077Y28435D01*
X13000Y28384D01*
X12923Y28435D01*
X12825Y28455D01*
X12675D01*
X12577Y28435D01*
X12500Y28384D01*
X12423Y28435D01*
X12325Y28455D01*
X12175D01*
X12077Y28435D01*
X12000Y28384D01*
X11923Y28435D01*
X11825Y28455D01*
X11675D01*
X11577Y28435D01*
X11500Y28384D01*
X11423Y28435D01*
X11325Y28455D01*
X11175D01*
X11158Y28469D01*
Y30793D01*
X12865D01*
X13459Y30199D01*
D02*
G37*
%LPC*%
G36*
X19440Y34258D02*
X19192Y34226D01*
X18961Y34130D01*
X18762Y33978D01*
X18610Y33779D01*
X18514Y33548D01*
X18482Y33300D01*
X18514Y33052D01*
X18610Y32821D01*
X18762Y32622D01*
X18961Y32470D01*
X19192Y32374D01*
X19440Y32342D01*
X19688Y32374D01*
X19919Y32470D01*
X20118Y32622D01*
X20270Y32821D01*
X20366Y33052D01*
X20398Y33300D01*
X20366Y33548D01*
X20270Y33779D01*
X20118Y33978D01*
X19919Y34130D01*
X19688Y34226D01*
X19440Y34258D01*
D02*
G37*
G36*
X16770Y33417D02*
X16548Y33388D01*
X16341Y33302D01*
X16164Y33166D01*
X16028Y32989D01*
X15942Y32782D01*
X15913Y32560D01*
X15942Y32338D01*
X16028Y32131D01*
X16164Y31954D01*
X16341Y31818D01*
X16548Y31732D01*
X16770Y31703D01*
X16992Y31732D01*
X17199Y31818D01*
X17376Y31954D01*
X17512Y32131D01*
X17598Y32338D01*
X17627Y32560D01*
X17598Y32782D01*
X17512Y32989D01*
X17376Y33166D01*
X17199Y33302D01*
X16992Y33388D01*
X16770Y33417D01*
D02*
G37*
G36*
X14230D02*
X14008Y33388D01*
X13801Y33302D01*
X13624Y33166D01*
X13488Y32989D01*
X13402Y32782D01*
X13373Y32560D01*
X13402Y32338D01*
X13488Y32131D01*
X13624Y31954D01*
X13801Y31818D01*
X14008Y31732D01*
X14230Y31703D01*
X14452Y31732D01*
X14659Y31818D01*
X14836Y31954D01*
X14972Y32131D01*
X15058Y32338D01*
X15087Y32560D01*
X15058Y32782D01*
X14972Y32989D01*
X14836Y33166D01*
X14659Y33302D01*
X14452Y33388D01*
X14230Y33417D01*
D02*
G37*
G36*
X16650Y27630D02*
X16525D01*
Y27425D01*
X16895D01*
X16885Y27473D01*
X16830Y27555D01*
X16748Y27610D01*
X16650Y27630D01*
D02*
G37*
G36*
X22400Y22400D02*
X21400D01*
X21200Y22200D01*
Y21400D01*
X21214Y21386D01*
X21194Y21288D01*
Y20612D01*
X21218Y20491D01*
X21287Y20387D01*
X21391Y20318D01*
X21513Y20294D01*
X22288D01*
X22409Y20318D01*
X22513Y20387D01*
X22582Y20491D01*
X22592Y20543D01*
X22667Y20529D01*
X22862Y20567D01*
X23027Y20678D01*
X23138Y20843D01*
X23176Y21038D01*
X23138Y21234D01*
X23027Y21399D01*
X22862Y21509D01*
X22667Y21548D01*
X22600Y21603D01*
Y22200D01*
X22400Y22400D01*
D02*
G37*
G36*
X18609Y20462D02*
X18034D01*
Y19937D01*
X18609D01*
Y20462D01*
D02*
G37*
G36*
X17784D02*
X17209D01*
Y19937D01*
X17784D01*
Y20462D01*
D02*
G37*
G36*
X18609Y19688D02*
X18034D01*
Y19163D01*
X18609D01*
Y19688D01*
D02*
G37*
G36*
X17784D02*
X17209D01*
Y19163D01*
X17784D01*
Y19688D01*
D02*
G37*
G36*
X30570Y34298D02*
X30322Y34266D01*
X30091Y34170D01*
X29892Y34018D01*
X29740Y33819D01*
X29644Y33588D01*
X29612Y33340D01*
X29644Y33092D01*
X29740Y32861D01*
X29892Y32662D01*
X30091Y32510D01*
X30322Y32414D01*
X30570Y32382D01*
X30818Y32414D01*
X31049Y32510D01*
X31248Y32662D01*
X31400Y32861D01*
X31496Y33092D01*
X31528Y33340D01*
X31496Y33588D01*
X31400Y33819D01*
X31248Y34018D01*
X31049Y34170D01*
X30818Y34266D01*
X30570Y34298D01*
D02*
G37*
G36*
X47725Y31155D02*
X47275D01*
X47168Y31134D01*
X47077Y31073D01*
X47016Y30982D01*
X47006Y30931D01*
X46955Y30921D01*
X46790Y30810D01*
X46679Y30645D01*
X46640Y30450D01*
X46679Y30255D01*
X46790Y30090D01*
X46955Y29979D01*
X47006Y29969D01*
X47016Y29918D01*
X47077Y29827D01*
X47168Y29766D01*
X47275Y29745D01*
X47725D01*
X47832Y29766D01*
X47923Y29827D01*
X47984Y29918D01*
X48005Y30025D01*
Y30875D01*
X47984Y30982D01*
X47923Y31073D01*
X47832Y31134D01*
X47725Y31155D01*
D02*
G37*
G36*
X3060Y30568D02*
X2812Y30536D01*
X2581Y30440D01*
X2382Y30288D01*
X2230Y30089D01*
X2134Y29858D01*
X2102Y29610D01*
X2134Y29362D01*
X2230Y29131D01*
X2382Y28932D01*
X2581Y28780D01*
X2812Y28684D01*
X3060Y28652D01*
X3308Y28684D01*
X3539Y28780D01*
X3738Y28932D01*
X3890Y29131D01*
X3986Y29362D01*
X4018Y29610D01*
X3986Y29858D01*
X3890Y30089D01*
X3738Y30288D01*
X3539Y30440D01*
X3308Y30536D01*
X3060Y30568D01*
D02*
G37*
G36*
X49625Y31155D02*
X49175D01*
X49068Y31134D01*
X48977Y31073D01*
X48916Y30982D01*
X48895Y30875D01*
Y30767D01*
X48798Y30702D01*
X48720Y30587D01*
X48693Y30450D01*
Y30264D01*
X47470Y29040D01*
X47392Y28925D01*
X47365Y28788D01*
Y27688D01*
X47238Y27599D01*
X47210Y27605D01*
X46535D01*
X46413Y27581D01*
X46309Y27512D01*
X46240Y27408D01*
X46216Y27286D01*
Y26511D01*
X46240Y26389D01*
X46309Y26286D01*
X46326Y26275D01*
Y26122D01*
X46309Y26112D01*
X46240Y26008D01*
X46216Y25886D01*
Y25111D01*
X46240Y24989D01*
X46309Y24886D01*
X46392Y24831D01*
X46403Y24763D01*
Y24759D01*
X46392Y24692D01*
X46309Y24637D01*
X46240Y24533D01*
X46216Y24411D01*
Y24033D01*
X46118Y23953D01*
X46077Y23961D01*
X45882Y23922D01*
X45717Y23812D01*
X45606Y23646D01*
X45567Y23451D01*
X45606Y23256D01*
X45618Y23239D01*
X45571Y23081D01*
X45467Y23012D01*
X45356Y22846D01*
X45317Y22651D01*
X45356Y22456D01*
X45467Y22291D01*
X45632Y22180D01*
X45827Y22141D01*
X46022Y22180D01*
X46093Y22227D01*
X46097Y22228D01*
X46229Y22171D01*
X46240Y22114D01*
X46309Y22011D01*
X46326Y22000D01*
Y21847D01*
X46309Y21837D01*
X46240Y21733D01*
X46216Y21611D01*
Y20836D01*
X46240Y20714D01*
X46309Y20611D01*
X46321Y20604D01*
Y20451D01*
X46299Y20437D01*
X46230Y20333D01*
X46210Y20229D01*
X46132Y20128D01*
X46067Y19970D01*
X46044Y19800D01*
X46067Y19630D01*
X46132Y19472D01*
X46222Y19355D01*
X46230Y19314D01*
X46299Y19211D01*
X46403Y19142D01*
X46525Y19118D01*
X47200D01*
X47299Y19137D01*
X47312Y19124D01*
X48112D01*
X48126Y19137D01*
X48225Y19118D01*
X48900D01*
X49022Y19142D01*
X49125Y19211D01*
X49194Y19314D01*
X49218Y19436D01*
Y19975D01*
X49752Y20509D01*
X49830Y20625D01*
X49857Y20762D01*
Y22352D01*
X50478Y22974D01*
X51572D01*
Y23624D01*
Y24274D01*
Y24924D01*
Y25724D01*
X49772D01*
Y25031D01*
X49222D01*
X49086Y25003D01*
X48970Y24926D01*
X48774Y24730D01*
X48353D01*
X48239Y24771D01*
X48214Y24891D01*
X48322Y24999D01*
Y25999D01*
X48255Y26066D01*
X48308Y26193D01*
X48910D01*
X49032Y26217D01*
X49135Y26286D01*
X49204Y26389D01*
X49228Y26511D01*
Y27286D01*
X49204Y27408D01*
X49135Y27512D01*
X49032Y27581D01*
X48934Y27618D01*
X48955Y27725D01*
Y28575D01*
X48934Y28682D01*
X48873Y28773D01*
X48782Y28834D01*
X48675Y28855D01*
X48460D01*
X48411Y28973D01*
X49183Y29745D01*
X49625D01*
X49732Y29766D01*
X49823Y29827D01*
X49884Y29918D01*
X49905Y30025D01*
Y30875D01*
X49884Y30982D01*
X49823Y31073D01*
X49732Y31134D01*
X49625Y31155D01*
D02*
G37*
G36*
X38375Y27100D02*
X37894D01*
Y26925D01*
X37917Y26808D01*
X37984Y26709D01*
X38083Y26642D01*
X38200Y26619D01*
X38375D01*
Y27100D01*
D02*
G37*
G36*
X41787Y20706D02*
X41112D01*
X41014Y20686D01*
X41000Y20700D01*
X40200D01*
X40186Y20686D01*
X40088Y20706D01*
X39412D01*
X39291Y20682D01*
X39187Y20613D01*
X39118Y20509D01*
X39094Y20388D01*
Y19612D01*
X39118Y19491D01*
X39187Y19387D01*
X39291Y19318D01*
X39412Y19294D01*
X39822D01*
X39840Y19290D01*
X39858Y19294D01*
X40088D01*
X40186Y19314D01*
X40200Y19300D01*
X41000D01*
X41014Y19314D01*
X41112Y19294D01*
X41787D01*
X41909Y19318D01*
X42013Y19387D01*
X42054Y19449D01*
X42158Y19477D01*
X42207Y19468D01*
X42283Y19417D01*
X42400Y19394D01*
X43000D01*
X43117Y19417D01*
X43216Y19484D01*
X43227Y19500D01*
X43873D01*
X43884Y19484D01*
X43983Y19417D01*
X44100Y19394D01*
X44275D01*
Y20000D01*
Y20606D01*
X44100D01*
X43983Y20583D01*
X43884Y20516D01*
X43873Y20500D01*
X43227D01*
X43216Y20516D01*
X43117Y20583D01*
X43000Y20606D01*
X42400D01*
X42283Y20583D01*
X42207Y20532D01*
X42158Y20523D01*
X42054Y20551D01*
X42013Y20613D01*
X41909Y20682D01*
X41787Y20706D01*
D02*
G37*
G36*
X44700Y20606D02*
X44525D01*
Y20125D01*
X45006D01*
Y20300D01*
X44983Y20417D01*
X44916Y20516D01*
X44817Y20583D01*
X44700Y20606D01*
D02*
G37*
G36*
X45006Y19875D02*
X44525D01*
Y19394D01*
X44700D01*
X44817Y19417D01*
X44916Y19484D01*
X44983Y19583D01*
X45006Y19700D01*
Y19875D01*
D02*
G37*
G36*
X41787Y18806D02*
X41112D01*
X41014Y18786D01*
X41000Y18800D01*
X40200D01*
X40186Y18786D01*
X40088Y18806D01*
X39412D01*
X39291Y18782D01*
X39187Y18713D01*
X39118Y18609D01*
X39094Y18487D01*
Y17712D01*
X39118Y17591D01*
X39187Y17487D01*
X39291Y17418D01*
X39412Y17394D01*
X40088D01*
X40186Y17414D01*
X40200Y17400D01*
X41000D01*
X41014Y17414D01*
X41112Y17394D01*
X41787D01*
X41909Y17418D01*
X42013Y17487D01*
X42064Y17564D01*
X42184Y17585D01*
X42204Y17584D01*
X42303Y17517D01*
X42420Y17494D01*
X43020D01*
X43137Y17517D01*
X43236Y17584D01*
X43247Y17600D01*
X43893D01*
X43904Y17584D01*
X44003Y17517D01*
X44120Y17494D01*
X44295D01*
Y18100D01*
Y18706D01*
X44120D01*
X44003Y18683D01*
X43904Y18616D01*
X43893Y18600D01*
X43247D01*
X43236Y18616D01*
X43137Y18683D01*
X43020Y18706D01*
X42420D01*
X42303Y18683D01*
X42204Y18616D01*
X42184Y18615D01*
X42064Y18636D01*
X42013Y18713D01*
X41909Y18782D01*
X41787Y18806D01*
D02*
G37*
G36*
X44720Y18706D02*
X44545D01*
Y18225D01*
X45026D01*
Y18400D01*
X45003Y18517D01*
X44936Y18616D01*
X44837Y18683D01*
X44720Y18706D01*
D02*
G37*
G36*
X45026Y17975D02*
X44545D01*
Y17494D01*
X44720D01*
X44837Y17517D01*
X44936Y17584D01*
X45003Y17683D01*
X45026Y17800D01*
Y17975D01*
D02*
G37*
G36*
X41787Y16906D02*
X41112D01*
X41014Y16886D01*
X41000Y16900D01*
X40200D01*
X40186Y16886D01*
X40088Y16906D01*
X39412D01*
X39291Y16882D01*
X39187Y16813D01*
X39118Y16709D01*
X39094Y16587D01*
Y15812D01*
X39118Y15691D01*
X39187Y15587D01*
X39291Y15518D01*
X39412Y15494D01*
X40088D01*
X40186Y15514D01*
X40200Y15500D01*
X41000D01*
X41014Y15514D01*
X41112Y15494D01*
X41787D01*
X41909Y15518D01*
X42013Y15587D01*
X42064Y15664D01*
X42184Y15685D01*
X42204Y15684D01*
X42303Y15617D01*
X42420Y15594D01*
X43020D01*
X43137Y15617D01*
X43236Y15684D01*
X43247Y15700D01*
X43893D01*
X43904Y15684D01*
X44003Y15617D01*
X44120Y15594D01*
X44295D01*
Y16200D01*
Y16806D01*
X44120D01*
X44003Y16783D01*
X43904Y16716D01*
X43893Y16700D01*
X43247D01*
X43236Y16716D01*
X43137Y16783D01*
X43020Y16806D01*
X42420D01*
X42303Y16783D01*
X42204Y16716D01*
X42184Y16715D01*
X42064Y16736D01*
X42013Y16813D01*
X41909Y16882D01*
X41787Y16906D01*
D02*
G37*
G36*
X44720Y16806D02*
X44545D01*
Y16325D01*
X45026D01*
Y16500D01*
X45003Y16617D01*
X44936Y16716D01*
X44837Y16783D01*
X44720Y16806D01*
D02*
G37*
G36*
X45026Y16075D02*
X44545D01*
Y15594D01*
X44720D01*
X44837Y15617D01*
X44936Y15684D01*
X45003Y15783D01*
X45026Y15900D01*
Y16075D01*
D02*
G37*
G36*
X51160Y18067D02*
X50938Y18038D01*
X50731Y17952D01*
X50554Y17816D01*
X50418Y17639D01*
X50332Y17432D01*
X50303Y17210D01*
X50332Y16988D01*
X50418Y16781D01*
X50457Y16730D01*
X50109Y16382D01*
X46770D01*
X46634Y16355D01*
X46518Y16277D01*
X45880Y15639D01*
X45803Y15523D01*
X45775Y15387D01*
Y15306D01*
X45513D01*
X45391Y15282D01*
X45287Y15213D01*
X45218Y15109D01*
X45194Y14988D01*
Y14569D01*
X44812D01*
X44676Y14542D01*
X44621Y14506D01*
X44600Y14510D01*
X44405Y14471D01*
X44239Y14360D01*
X44129Y14195D01*
X44090Y14000D01*
X44129Y13805D01*
X44239Y13639D01*
X44405Y13529D01*
X44600Y13490D01*
X44795Y13529D01*
X44847Y13564D01*
X44922Y13465D01*
X44811Y13299D01*
X44773Y13104D01*
X44811Y12909D01*
X44922Y12744D01*
X45087Y12633D01*
X45215Y12608D01*
X45218Y12591D01*
X45287Y12487D01*
X45391Y12418D01*
X45408Y12415D01*
Y12285D01*
X45391Y12282D01*
X45287Y12213D01*
X45218Y12109D01*
X45211Y12075D01*
X45073Y12033D01*
X44154Y12952D01*
X44038Y13030D01*
X43902Y13057D01*
X41772D01*
X41742Y13129D01*
X41606Y13306D01*
X41429Y13442D01*
X41222Y13528D01*
X41000Y13557D01*
X40778Y13528D01*
X40571Y13442D01*
X40394Y13306D01*
X40258Y13129D01*
X40172Y12922D01*
X40143Y12700D01*
X40172Y12478D01*
X40258Y12271D01*
X40394Y12094D01*
X40571Y11958D01*
X40778Y11872D01*
X41000Y11843D01*
X41222Y11872D01*
X41429Y11958D01*
X41606Y12094D01*
X41742Y12271D01*
X41772Y12343D01*
X43192D01*
X43217Y12216D01*
X43111Y12172D01*
X42934Y12036D01*
X42798Y11859D01*
X42712Y11652D01*
X42683Y11430D01*
X42712Y11208D01*
X42798Y11001D01*
X42892Y10879D01*
X42829Y10752D01*
X41617D01*
X41606Y10766D01*
X41429Y10902D01*
X41222Y10988D01*
X41000Y11017D01*
X40778Y10988D01*
X40571Y10902D01*
X40394Y10766D01*
X40258Y10589D01*
X40172Y10382D01*
X40143Y10160D01*
X40172Y9938D01*
X40258Y9731D01*
X40394Y9554D01*
X40571Y9418D01*
X40778Y9332D01*
X41000Y9303D01*
X41222Y9332D01*
X41429Y9418D01*
X41573Y9528D01*
X43804D01*
X44357Y8975D01*
X44416Y8936D01*
X44785Y8567D01*
X44983Y8435D01*
X45217Y8388D01*
X45801D01*
Y5676D01*
X44830Y4705D01*
X44653Y4883D01*
X44454Y5015D01*
X44220Y5062D01*
X42719D01*
X42719Y5062D01*
X41601D01*
X41367Y5015D01*
X41168Y4883D01*
X39558Y3273D01*
X39512Y3280D01*
X39453Y3409D01*
X39455Y3418D01*
X39538Y3618D01*
X39567Y3840D01*
X39538Y4062D01*
X39452Y4269D01*
X39316Y4446D01*
X39139Y4582D01*
X38932Y4668D01*
X38710Y4697D01*
X38488Y4668D01*
X38281Y4582D01*
X38104Y4446D01*
X37968Y4269D01*
X37882Y4062D01*
X37853Y3840D01*
X37882Y3618D01*
X37968Y3411D01*
X38031Y3329D01*
X37968Y3202D01*
X36912D01*
X36849Y3329D01*
X36912Y3411D01*
X36998Y3618D01*
X37027Y3840D01*
X36998Y4062D01*
X36912Y4269D01*
X36776Y4446D01*
X36599Y4582D01*
X36392Y4668D01*
X36170Y4697D01*
X35948Y4668D01*
X35741Y4582D01*
X35564Y4446D01*
X35428Y4269D01*
X35398Y4197D01*
X35192D01*
X33937Y5452D01*
X33821Y5530D01*
X33684Y5557D01*
X27549D01*
X27413Y5530D01*
X27297Y5452D01*
X27189Y5344D01*
X23793D01*
X23656Y5317D01*
X23541Y5239D01*
X23485Y5184D01*
X23481Y5185D01*
X23286Y5146D01*
X23120Y5035D01*
X23010Y4870D01*
X22977Y4704D01*
X22894Y4638D01*
X22853Y4618D01*
X22732Y4668D01*
X22510Y4697D01*
X22288Y4668D01*
X22081Y4582D01*
X21904Y4446D01*
X21768Y4269D01*
X21682Y4062D01*
X21653Y3840D01*
X21682Y3618D01*
X21768Y3411D01*
X21831Y3329D01*
X21768Y3202D01*
X20712D01*
X20649Y3329D01*
X20712Y3411D01*
X20798Y3618D01*
X20827Y3840D01*
X20798Y4062D01*
X20712Y4269D01*
X20576Y4446D01*
X20399Y4582D01*
X20192Y4668D01*
X19970Y4697D01*
X19748Y4668D01*
X19541Y4582D01*
X19364Y4446D01*
X19228Y4269D01*
X19142Y4062D01*
X19113Y3840D01*
X19142Y3618D01*
X19228Y3411D01*
X19291Y3329D01*
X19228Y3202D01*
X18933D01*
X18286Y3849D01*
X18258Y4062D01*
X18172Y4269D01*
X18036Y4446D01*
X17859Y4582D01*
X17652Y4668D01*
X17430Y4697D01*
X17208Y4668D01*
X17001Y4582D01*
X16831Y4452D01*
X16313D01*
X15883Y4883D01*
X15684Y5015D01*
X15450Y5062D01*
X13850D01*
X13616Y5015D01*
X13417Y4883D01*
X12393Y3858D01*
X12259Y3904D01*
X12238Y4062D01*
X12152Y4269D01*
X12016Y4446D01*
X11839Y4582D01*
X11632Y4668D01*
X11410Y4697D01*
X11188Y4668D01*
X10981Y4582D01*
X10804Y4446D01*
X10668Y4269D01*
X10582Y4062D01*
X10553Y3840D01*
X10582Y3618D01*
X10668Y3411D01*
X10731Y3329D01*
X10668Y3202D01*
X9612D01*
X9549Y3329D01*
X9612Y3411D01*
X9698Y3618D01*
X9727Y3840D01*
X9698Y4062D01*
X9612Y4269D01*
X9476Y4446D01*
X9299Y4582D01*
X9092Y4668D01*
X8870Y4697D01*
X8648Y4668D01*
X8441Y4582D01*
X8264Y4446D01*
X8128Y4269D01*
X8042Y4062D01*
X8013Y3840D01*
X8042Y3618D01*
X8128Y3411D01*
X8191Y3329D01*
X8128Y3202D01*
X7072D01*
X7009Y3329D01*
X7072Y3411D01*
X7158Y3618D01*
X7187Y3840D01*
X7158Y4062D01*
X7072Y4269D01*
X6936Y4446D01*
X6759Y4582D01*
X6552Y4668D01*
X6330Y4697D01*
X6108Y4668D01*
X5901Y4582D01*
X5724Y4446D01*
X5588Y4269D01*
X5502Y4062D01*
X5473Y3840D01*
X5502Y3618D01*
X5588Y3411D01*
X5651Y3329D01*
X5588Y3202D01*
X5293D01*
X4646Y3849D01*
X4618Y4062D01*
X4532Y4269D01*
X4396Y4446D01*
X4219Y4582D01*
X4012Y4668D01*
X3790Y4697D01*
X3568Y4668D01*
X3361Y4582D01*
X3184Y4446D01*
X3048Y4269D01*
X2962Y4062D01*
X2933Y3840D01*
X2962Y3618D01*
X3048Y3411D01*
X3184Y3234D01*
X3361Y3098D01*
X3568Y3012D01*
X3781Y2984D01*
X4599Y2166D01*
X4606Y2139D01*
X4594Y2014D01*
X4454Y1906D01*
X4318Y1729D01*
X4232Y1522D01*
X4203Y1300D01*
X4232Y1078D01*
X4318Y871D01*
X4454Y694D01*
X4631Y558D01*
X4838Y472D01*
X5060Y443D01*
X5282Y472D01*
X5489Y558D01*
X5666Y694D01*
X5802Y871D01*
X5888Y1078D01*
X5917Y1300D01*
X5888Y1522D01*
X5802Y1729D01*
X5708Y1851D01*
X5771Y1978D01*
X6889D01*
X6952Y1851D01*
X6858Y1729D01*
X6772Y1522D01*
X6743Y1300D01*
X6772Y1078D01*
X6858Y871D01*
X6994Y694D01*
X7171Y558D01*
X7378Y472D01*
X7600Y443D01*
X7822Y472D01*
X8029Y558D01*
X8206Y694D01*
X8342Y871D01*
X8428Y1078D01*
X8457Y1300D01*
X8428Y1522D01*
X8342Y1729D01*
X8248Y1851D01*
X8311Y1978D01*
X9429D01*
X9492Y1851D01*
X9398Y1729D01*
X9312Y1522D01*
X9283Y1300D01*
X9312Y1078D01*
X9398Y871D01*
X9534Y694D01*
X9711Y558D01*
X9918Y472D01*
X10140Y443D01*
X10362Y472D01*
X10569Y558D01*
X10746Y694D01*
X10882Y871D01*
X10968Y1078D01*
X10997Y1300D01*
X10968Y1522D01*
X10882Y1729D01*
X10788Y1851D01*
X10851Y1978D01*
X11990D01*
X12224Y2025D01*
X12423Y2157D01*
X13756Y3491D01*
X13864Y3419D01*
X13834Y3348D01*
X13802Y3100D01*
X13834Y2852D01*
X13930Y2621D01*
X14082Y2422D01*
X14281Y2270D01*
X14512Y2174D01*
X14760Y2142D01*
X15008Y2174D01*
X15239Y2270D01*
X15438Y2422D01*
X15590Y2621D01*
X15686Y2852D01*
X15718Y3100D01*
X15705Y3203D01*
X15823Y3277D01*
X15826Y3275D01*
X16060Y3228D01*
X16831D01*
X17001Y3098D01*
X17208Y3012D01*
X17421Y2984D01*
X18239Y2166D01*
X18246Y2139D01*
X18234Y2014D01*
X18094Y1906D01*
X17958Y1729D01*
X17872Y1522D01*
X17843Y1300D01*
X17872Y1078D01*
X17958Y871D01*
X18094Y694D01*
X18271Y558D01*
X18478Y472D01*
X18700Y443D01*
X18922Y472D01*
X19129Y558D01*
X19306Y694D01*
X19442Y871D01*
X19528Y1078D01*
X19557Y1300D01*
X19528Y1522D01*
X19442Y1729D01*
X19348Y1851D01*
X19411Y1978D01*
X20529D01*
X20592Y1851D01*
X20498Y1729D01*
X20412Y1522D01*
X20383Y1300D01*
X20412Y1078D01*
X20498Y871D01*
X20634Y694D01*
X20811Y558D01*
X21018Y472D01*
X21240Y443D01*
X21462Y472D01*
X21669Y558D01*
X21846Y694D01*
X21982Y871D01*
X22068Y1078D01*
X22097Y1300D01*
X22068Y1522D01*
X21982Y1729D01*
X21888Y1851D01*
X21951Y1978D01*
X23069D01*
X23132Y1851D01*
X23038Y1729D01*
X22952Y1522D01*
X22923Y1300D01*
X22952Y1078D01*
X23038Y871D01*
X23174Y694D01*
X23351Y558D01*
X23558Y472D01*
X23780Y443D01*
X24002Y472D01*
X24209Y558D01*
X24386Y694D01*
X24522Y871D01*
X24608Y1078D01*
X24637Y1300D01*
X24608Y1522D01*
X24522Y1729D01*
X24428Y1851D01*
X24491Y1978D01*
X26000D01*
X26234Y2025D01*
X26433Y2157D01*
X27339Y3063D01*
X27473Y3018D01*
X27494Y2852D01*
X27590Y2621D01*
X27742Y2422D01*
X27941Y2270D01*
X28172Y2174D01*
X28420Y2142D01*
X28668Y2174D01*
X28899Y2270D01*
X29098Y2422D01*
X29250Y2621D01*
X29346Y2852D01*
X29378Y3100D01*
X29346Y3348D01*
X29250Y3579D01*
X29148Y3711D01*
X29211Y3838D01*
X30227D01*
X30234Y3831D01*
X30262Y3618D01*
X30348Y3411D01*
X30484Y3234D01*
X30661Y3098D01*
X30868Y3012D01*
X31081Y2984D01*
X31899Y2166D01*
X31906Y2139D01*
X31894Y2014D01*
X31754Y1906D01*
X31618Y1729D01*
X31532Y1522D01*
X31503Y1300D01*
X31532Y1078D01*
X31618Y871D01*
X31754Y694D01*
X31931Y558D01*
X32138Y472D01*
X32360Y443D01*
X32582Y472D01*
X32789Y558D01*
X32966Y694D01*
X33102Y871D01*
X33188Y1078D01*
X33217Y1300D01*
X33188Y1522D01*
X33102Y1729D01*
X33008Y1851D01*
X33071Y1978D01*
X34189D01*
X34252Y1851D01*
X34158Y1729D01*
X34072Y1522D01*
X34043Y1300D01*
X34072Y1078D01*
X34158Y871D01*
X34294Y694D01*
X34471Y558D01*
X34678Y472D01*
X34900Y443D01*
X35122Y472D01*
X35329Y558D01*
X35506Y694D01*
X35642Y871D01*
X35728Y1078D01*
X35757Y1300D01*
X35728Y1522D01*
X35642Y1729D01*
X35548Y1851D01*
X35611Y1978D01*
X36729D01*
X36792Y1851D01*
X36698Y1729D01*
X36612Y1522D01*
X36583Y1300D01*
X36612Y1078D01*
X36698Y871D01*
X36834Y694D01*
X37011Y558D01*
X37218Y472D01*
X37440Y443D01*
X37662Y472D01*
X37869Y558D01*
X38046Y694D01*
X38182Y871D01*
X38268Y1078D01*
X38297Y1300D01*
X38268Y1522D01*
X38182Y1729D01*
X38088Y1851D01*
X38151Y1978D01*
X39741D01*
X39975Y2025D01*
X40173Y2157D01*
X41079Y3063D01*
X41213Y3017D01*
X41234Y2852D01*
X41330Y2621D01*
X41482Y2422D01*
X41681Y2270D01*
X41912Y2174D01*
X42160Y2142D01*
X42408Y2174D01*
X42639Y2270D01*
X42838Y2422D01*
X42990Y2621D01*
X43086Y2852D01*
X43118Y3100D01*
X43086Y3348D01*
X42990Y3579D01*
X42888Y3711D01*
X42951Y3838D01*
X43967D01*
X43974Y3831D01*
X44002Y3618D01*
X44088Y3411D01*
X44224Y3234D01*
X44401Y3098D01*
X44608Y3012D01*
X44830Y2983D01*
X45052Y3012D01*
X45259Y3098D01*
X45436Y3234D01*
X45572Y3411D01*
X45658Y3618D01*
X45686Y3831D01*
X46845Y4990D01*
X46978Y5188D01*
X47024Y5423D01*
Y8676D01*
X47742Y9394D01*
X47888D01*
X48009Y9418D01*
X48113Y9487D01*
X48182Y9591D01*
X48206Y9712D01*
Y10488D01*
X48182Y10609D01*
X48162Y10640D01*
Y11060D01*
X48182Y11091D01*
X48206Y11212D01*
Y11988D01*
X48182Y12109D01*
X48162Y12140D01*
Y12560D01*
X48182Y12591D01*
X48206Y12712D01*
Y13488D01*
X48182Y13609D01*
X48162Y13640D01*
Y14060D01*
X48180Y14088D01*
X50535D01*
X50554Y14064D01*
X50731Y13928D01*
X50938Y13842D01*
X51160Y13813D01*
X51382Y13842D01*
X51589Y13928D01*
X51766Y14064D01*
X51902Y14241D01*
X51988Y14448D01*
X52017Y14670D01*
X51988Y14892D01*
X51902Y15099D01*
X51766Y15276D01*
X51589Y15412D01*
X51483Y15456D01*
X51508Y15583D01*
X52928D01*
X52958Y15511D01*
X53094Y15334D01*
X53271Y15198D01*
X53478Y15112D01*
X53700Y15083D01*
X53922Y15112D01*
X54129Y15198D01*
X54306Y15334D01*
X54442Y15511D01*
X54528Y15718D01*
X54557Y15940D01*
X54528Y16162D01*
X54442Y16369D01*
X54306Y16546D01*
X54129Y16682D01*
X53922Y16768D01*
X53700Y16797D01*
X53478Y16768D01*
X53271Y16682D01*
X53094Y16546D01*
X52958Y16369D01*
X52928Y16297D01*
X51508D01*
X51483Y16424D01*
X51589Y16468D01*
X51766Y16604D01*
X51902Y16781D01*
X51988Y16988D01*
X52017Y17210D01*
X51988Y17432D01*
X51902Y17639D01*
X51766Y17816D01*
X51589Y17952D01*
X51382Y18038D01*
X51160Y18067D01*
D02*
G37*
G36*
X15000Y15110D02*
X14805Y15071D01*
X14639Y14960D01*
X14529Y14795D01*
X14490Y14600D01*
X14529Y14405D01*
X14578Y14332D01*
X14604Y14213D01*
X14546Y14169D01*
X14440Y14098D01*
X14329Y13933D01*
X14290Y13738D01*
X14329Y13543D01*
X14393Y13447D01*
X14372Y13281D01*
X14352Y13267D01*
X14242Y13102D01*
X14203Y12907D01*
X14242Y12712D01*
X14352Y12546D01*
X14517Y12436D01*
X14658Y12408D01*
X14745Y12297D01*
X14752Y12275D01*
X14743Y12229D01*
Y12148D01*
X14740Y12145D01*
X14629Y11980D01*
X14590Y11785D01*
X14629Y11590D01*
X14740Y11425D01*
X14905Y11314D01*
X15100Y11275D01*
X15295Y11314D01*
X15460Y11425D01*
X15571Y11590D01*
X15610Y11785D01*
X15571Y11980D01*
X15485Y12109D01*
X16069Y12693D01*
X22218D01*
X22341Y12676D01*
X22380Y12481D01*
X22491Y12315D01*
X22656Y12205D01*
X22851Y12166D01*
X23046Y12205D01*
X23212Y12315D01*
X23322Y12481D01*
X23347Y12605D01*
X23476Y12697D01*
X23485Y12695D01*
X23680Y12734D01*
X23846Y12844D01*
X23956Y13010D01*
X23995Y13205D01*
X23985Y13256D01*
X24102Y13319D01*
X24818Y12602D01*
Y11606D01*
X24845Y11469D01*
X24923Y11353D01*
X25278Y10998D01*
X25394Y10921D01*
X25530Y10894D01*
X26038D01*
X26041Y10890D01*
X26206Y10780D01*
X26401Y10741D01*
X26596Y10780D01*
X26762Y10890D01*
X26872Y11055D01*
X26911Y11251D01*
X26872Y11446D01*
X26762Y11611D01*
X26596Y11722D01*
X26401Y11760D01*
X26345Y11749D01*
X26268Y11863D01*
X26296Y11905D01*
X26335Y12100D01*
X26296Y12295D01*
X26185Y12460D01*
X26182Y12463D01*
Y12816D01*
X26155Y12953D01*
X26077Y13068D01*
X24293Y14852D01*
X24178Y14930D01*
X24041Y14957D01*
X15363D01*
X15360Y14960D01*
X15195Y15071D01*
X15000Y15110D01*
D02*
G37*
G36*
X22626Y8910D02*
X22431Y8871D01*
X22266Y8761D01*
X22163Y8607D01*
X19332D01*
X19329Y8610D01*
X19164Y8721D01*
X18969Y8760D01*
X18774Y8721D01*
X18608Y8610D01*
X18498Y8445D01*
X18459Y8250D01*
X18498Y8055D01*
X18608Y7890D01*
X18774Y7779D01*
X18969Y7740D01*
X19164Y7779D01*
X19329Y7890D01*
X19332Y7893D01*
X22476D01*
X22545Y7907D01*
X22626Y7891D01*
X22821Y7929D01*
X22987Y8040D01*
X23097Y8205D01*
X23136Y8400D01*
X23097Y8595D01*
X22987Y8761D01*
X22821Y8871D01*
X22626Y8910D01*
D02*
G37*
G36*
X41740Y8448D02*
X41492Y8416D01*
X41261Y8320D01*
X41062Y8168D01*
X40910Y7969D01*
X40814Y7738D01*
X40782Y7490D01*
X40814Y7242D01*
X40910Y7011D01*
X41062Y6812D01*
X41261Y6660D01*
X41492Y6564D01*
X41740Y6532D01*
X41988Y6564D01*
X42219Y6660D01*
X42418Y6812D01*
X42570Y7011D01*
X42666Y7242D01*
X42698Y7490D01*
X42666Y7738D01*
X42570Y7969D01*
X42418Y8168D01*
X42219Y8320D01*
X41988Y8416D01*
X41740Y8448D01*
D02*
G37*
G36*
X26100Y8789D02*
X25905Y8751D01*
X25740Y8640D01*
X25629Y8475D01*
X25590Y8280D01*
X25629Y8084D01*
X25740Y7919D01*
X25905Y7809D01*
X26100Y7770D01*
X26104Y7771D01*
X27627Y6248D01*
X27743Y6170D01*
X27880Y6143D01*
X35937D01*
X35939Y6140D01*
X36105Y6029D01*
X36300Y5990D01*
X36495Y6029D01*
X36660Y6140D01*
X36771Y6305D01*
X36810Y6500D01*
X36771Y6695D01*
X36660Y6860D01*
X36495Y6971D01*
X36300Y7010D01*
X36105Y6971D01*
X35939Y6860D01*
X35937Y6857D01*
X28027D01*
X26609Y8275D01*
X26610Y8280D01*
X26571Y8475D01*
X26460Y8640D01*
X26295Y8751D01*
X26100Y8789D01*
D02*
G37*
G36*
X52450Y4697D02*
X52228Y4668D01*
X52021Y4582D01*
X51844Y4446D01*
X51708Y4269D01*
X51622Y4062D01*
X51593Y3840D01*
X51622Y3618D01*
X51708Y3411D01*
X51844Y3234D01*
X52021Y3098D01*
X52228Y3012D01*
X52450Y2983D01*
X52672Y3012D01*
X52879Y3098D01*
X53056Y3234D01*
X53192Y3411D01*
X53278Y3618D01*
X53307Y3840D01*
X53278Y4062D01*
X53192Y4269D01*
X53056Y4446D01*
X52879Y4582D01*
X52672Y4668D01*
X52450Y4697D01*
D02*
G37*
G36*
X49910D02*
X49688Y4668D01*
X49481Y4582D01*
X49304Y4446D01*
X49168Y4269D01*
X49082Y4062D01*
X49053Y3840D01*
X49082Y3618D01*
X49168Y3411D01*
X49304Y3234D01*
X49481Y3098D01*
X49688Y3012D01*
X49910Y2983D01*
X50132Y3012D01*
X50339Y3098D01*
X50516Y3234D01*
X50652Y3411D01*
X50738Y3618D01*
X50767Y3840D01*
X50738Y4062D01*
X50652Y4269D01*
X50516Y4446D01*
X50339Y4582D01*
X50132Y4668D01*
X49910Y4697D01*
D02*
G37*
G36*
X47370D02*
X47148Y4668D01*
X46941Y4582D01*
X46764Y4446D01*
X46628Y4269D01*
X46542Y4062D01*
X46513Y3840D01*
X46542Y3618D01*
X46628Y3411D01*
X46764Y3234D01*
X46941Y3098D01*
X47148Y3012D01*
X47370Y2983D01*
X47592Y3012D01*
X47799Y3098D01*
X47976Y3234D01*
X48112Y3411D01*
X48198Y3618D01*
X48227Y3840D01*
X48198Y4062D01*
X48112Y4269D01*
X47976Y4446D01*
X47799Y4582D01*
X47592Y4668D01*
X47370Y4697D01*
D02*
G37*
G36*
X51180Y2157D02*
X50958Y2128D01*
X50751Y2042D01*
X50574Y1906D01*
X50438Y1729D01*
X50352Y1522D01*
X50323Y1300D01*
X50352Y1078D01*
X50438Y871D01*
X50574Y694D01*
X50751Y558D01*
X50958Y472D01*
X51180Y443D01*
X51402Y472D01*
X51609Y558D01*
X51786Y694D01*
X51922Y871D01*
X52008Y1078D01*
X52037Y1300D01*
X52008Y1522D01*
X51922Y1729D01*
X51786Y1906D01*
X51609Y2042D01*
X51402Y2128D01*
X51180Y2157D01*
D02*
G37*
G36*
X48640D02*
X48418Y2128D01*
X48211Y2042D01*
X48034Y1906D01*
X47898Y1729D01*
X47812Y1522D01*
X47783Y1300D01*
X47812Y1078D01*
X47898Y871D01*
X48034Y694D01*
X48211Y558D01*
X48418Y472D01*
X48640Y443D01*
X48862Y472D01*
X49069Y558D01*
X49246Y694D01*
X49382Y871D01*
X49468Y1078D01*
X49497Y1300D01*
X49468Y1522D01*
X49382Y1729D01*
X49246Y1906D01*
X49069Y2042D01*
X48862Y2128D01*
X48640Y2157D01*
D02*
G37*
G36*
X46100D02*
X45878Y2128D01*
X45671Y2042D01*
X45494Y1906D01*
X45358Y1729D01*
X45272Y1522D01*
X45243Y1300D01*
X45272Y1078D01*
X45358Y871D01*
X45494Y694D01*
X45671Y558D01*
X45878Y472D01*
X46100Y443D01*
X46322Y472D01*
X46529Y558D01*
X46706Y694D01*
X46842Y871D01*
X46928Y1078D01*
X46957Y1300D01*
X46928Y1522D01*
X46842Y1729D01*
X46706Y1906D01*
X46529Y2042D01*
X46322Y2128D01*
X46100Y2157D01*
D02*
G37*
%LPD*%
D14*
X46700Y19700D02*
Y19800D01*
X45350Y30100D02*
Y35140D01*
X44080Y30100D02*
Y32600D01*
X42810Y30100D02*
Y35140D01*
X41540Y30100D02*
Y32600D01*
X40270Y30100D02*
Y35140D01*
X39000Y30100D02*
Y32600D01*
X37730Y30100D02*
Y35140D01*
X36460Y30100D02*
Y32600D01*
X35190Y30100D02*
Y35140D01*
X33920Y30100D02*
Y32600D01*
D15*
X13050Y16700D02*
Y18029D01*
X12675Y18404D02*
X13050Y18029D01*
X12675Y18404D02*
Y18572D01*
X13475Y16863D02*
Y18170D01*
X13075Y18570D02*
X13475Y18170D01*
X13075Y18570D02*
Y18737D01*
X13875Y17117D02*
Y18336D01*
X13475Y18736D02*
X13875Y18336D01*
X13475Y18736D02*
Y18903D01*
X13750Y21190D02*
Y22150D01*
X13875Y18901D02*
Y20915D01*
X14303Y18660D02*
X14675Y18287D01*
X14117Y18660D02*
X14303D01*
X13875Y18901D02*
X14117Y18660D01*
X14675Y17710D02*
Y18287D01*
X18271Y17350D02*
X32300D01*
X17909Y17712D02*
X18271Y17350D01*
X32300D02*
X34438Y15212D01*
X32134Y16950D02*
X33850Y15234D01*
X31825Y15550D02*
X31910D01*
X31675Y16550D02*
X31875Y16350D01*
X13500Y25050D02*
X15750Y27300D01*
X13525Y25025D02*
X15025Y23525D01*
X12750Y24300D02*
X13500Y25050D01*
X10600Y26300D02*
X12250D01*
X13050Y16700D02*
X13600Y16150D01*
X31225D01*
X11250Y19997D02*
Y22150D01*
Y19997D02*
X12675Y18572D01*
X13769Y16550D02*
X31675D01*
X11650Y20162D02*
Y21430D01*
X13475Y16863D02*
X13769Y16569D01*
X11650Y20162D02*
X13075Y18737D01*
X12050Y20328D02*
Y21264D01*
X13875Y17117D02*
X14042Y16950D01*
X12050Y20328D02*
X13475Y18903D01*
X13875Y20915D02*
X14000Y21040D01*
X11250Y22150D02*
X11250Y22150D01*
X12450Y20566D02*
X13040Y19976D01*
X13251D01*
X15388Y20044D02*
X15471D01*
X14750Y20682D02*
X15388Y20044D01*
X18700Y23800D02*
X18800Y23700D01*
X16400Y23800D02*
X18700D01*
X14042Y16950D02*
X32134Y16950D01*
X33850Y14675D02*
Y15234D01*
X31225Y16150D02*
X31825Y15550D01*
X11650Y21430D02*
X11750Y21530D01*
X12050Y21264D02*
X12250Y21464D01*
X12450Y21099D02*
X12750Y21399D01*
X12450Y20566D02*
Y21099D01*
X13050Y20815D02*
Y20850D01*
X11750Y21530D02*
Y22150D01*
X13050Y20850D02*
X13250Y21050D01*
X10400Y21371D02*
Y22800D01*
X14750Y20682D02*
Y22150D01*
X15700Y21040D02*
X15834D01*
X14750Y22150D02*
Y22250D01*
X17312Y23050D02*
X17700D01*
X16400Y23300D02*
X17062D01*
X16400Y23300D02*
X16400Y23300D01*
X17062D02*
X17312Y23050D01*
X10351Y21322D02*
X10400Y21371D01*
X10351Y21301D02*
Y21322D01*
X10400Y22800D02*
X10600D01*
X12250Y21464D02*
Y22150D01*
X12750Y21399D02*
Y22150D01*
X13250Y21050D02*
Y22150D01*
X15001Y29652D02*
Y29801D01*
X14750Y28553D02*
X14797Y28600D01*
X13750Y29251D02*
X14201Y29701D01*
X13750Y28050D02*
Y29251D01*
X14197Y28848D02*
X15001Y29652D01*
X14197Y28303D02*
Y28848D01*
Y28303D02*
X14250Y28250D01*
Y28050D02*
Y28250D01*
X15750Y27300D02*
X16400D01*
X12750Y22150D02*
Y22250D01*
X13250Y22150D02*
Y22250D01*
X14750Y28050D02*
Y28553D01*
X15750Y22000D02*
X16200D01*
X15250Y21490D02*
Y22150D01*
Y21490D02*
X15700Y21040D01*
X15239Y22161D02*
Y23311D01*
Y22161D02*
X15250Y22150D01*
X12250Y26300D02*
X13500Y25050D01*
X8800Y24550D02*
X9150Y24200D01*
X10049D01*
X10149Y24300D01*
X10600D01*
X10280Y25300D02*
X10600D01*
X10180Y25400D02*
X10280Y25300D01*
X8050Y25400D02*
X10180D01*
X7400Y24750D02*
X8050Y25400D01*
X9539Y23200D02*
X10139Y23800D01*
X9150Y23200D02*
X9539D01*
X8800Y22850D02*
X9150Y23200D01*
X10204Y23300D02*
X10600D01*
X9800Y22896D02*
X10204Y23300D01*
X9800Y22600D02*
Y22896D01*
X10139Y23800D02*
X10600D01*
Y24300D02*
X12750D01*
X15750Y22000D02*
Y22150D01*
X7800Y27300D02*
X10600D01*
X6050Y26800D02*
X10600D01*
X12250Y22150D02*
Y22250D01*
X11750Y22150D02*
Y22250D01*
X11250Y22150D02*
Y22250D01*
X17248Y25300D02*
X17800Y24748D01*
X16400Y25300D02*
X17248D01*
X17000Y24300D02*
X17200Y24500D01*
X16400Y24300D02*
X17000D01*
X17400Y25800D02*
X17500Y25900D01*
X16400Y25800D02*
X17400D01*
X7400Y27700D02*
X7800Y27300D01*
X6000Y26850D02*
X6050Y26800D01*
X6000Y25540D02*
X6260Y25800D01*
X10600D01*
X9850Y24800D02*
X10600D01*
X18352Y24748D02*
X18400Y24700D01*
X17800Y24748D02*
X18352D01*
X16200Y22000D02*
X16300Y22100D01*
X15750Y28950D02*
X16100Y29300D01*
X15750Y28050D02*
Y28950D01*
X3800Y24400D02*
X4150Y24750D01*
X7400D01*
X1260Y25670D02*
X1390Y25540D01*
X6000D01*
X1260Y28210D02*
X4090D01*
X4600Y27700D01*
X7400D01*
X3800Y26940D02*
X3890Y26850D01*
X6000D01*
D32*
X43200Y24400D02*
D03*
X41600D02*
D03*
X40100D02*
D03*
X35100Y12900D02*
D03*
X45350Y30100D02*
D03*
X30600Y23200D02*
D03*
X44080Y30100D02*
D03*
X29300Y23200D02*
D03*
X42810Y30100D02*
D03*
X41540D02*
D03*
X40270D02*
D03*
X39000D02*
D03*
X28000Y23200D02*
D03*
X37730Y30100D02*
D03*
X26700Y23200D02*
D03*
X36460Y30100D02*
D03*
X25400Y23200D02*
D03*
X35190Y30100D02*
D03*
X24100Y23200D02*
D03*
X33920Y30100D02*
D03*
X33203Y23200D02*
D03*
X31900D02*
D03*
X30000Y12900D02*
D03*
X31300D02*
D03*
X32600D02*
D03*
X33851D02*
D03*
X35800Y23200D02*
D03*
X34500D02*
D03*
D33*
X46872Y26899D02*
D03*
X48572D02*
D03*
X48572Y22624D02*
D03*
X46872D02*
D03*
X41450Y16200D02*
D03*
X39750D02*
D03*
X48572Y21224D02*
D03*
X46872D02*
D03*
X48572Y24024D02*
D03*
X46872D02*
D03*
Y25499D02*
D03*
X48572D02*
D03*
X16100Y29300D02*
D03*
X17800D02*
D03*
X10313Y21254D02*
D03*
X8613D02*
D03*
X14000Y21040D02*
D03*
X15700D02*
D03*
X48562Y19824D02*
D03*
X46862D02*
D03*
X41525Y27200D02*
D03*
X43225D02*
D03*
X37310Y10600D02*
D03*
X35610D02*
D03*
X32601D02*
D03*
X34301D02*
D03*
X41450Y18100D02*
D03*
X39750D02*
D03*
X41450Y20000D02*
D03*
X39750D02*
D03*
X45850Y14600D02*
D03*
X47550D02*
D03*
X45850Y13100D02*
D03*
X47550D02*
D03*
X45850Y11600D02*
D03*
X47550D02*
D03*
X45850Y10100D02*
D03*
X47550D02*
D03*
D34*
X9200Y29650D02*
D03*
X12100D02*
D03*
D35*
X15750Y27950D02*
D03*
X15250D02*
D03*
X14750D02*
D03*
X14250D02*
D03*
X13750D02*
D03*
X13250D02*
D03*
X12750D02*
D03*
X12250D02*
D03*
X11750D02*
D03*
X11250D02*
D03*
Y22150D02*
D03*
X11750D02*
D03*
X12250D02*
D03*
X12750D02*
D03*
X13250D02*
D03*
X13750D02*
D03*
X14250D02*
D03*
X14750D02*
D03*
X15250D02*
D03*
X15750D02*
D03*
D36*
X10600Y27300D02*
D03*
Y26800D02*
D03*
Y26300D02*
D03*
Y25800D02*
D03*
Y25300D02*
D03*
Y24800D02*
D03*
Y24300D02*
D03*
Y23800D02*
D03*
Y23300D02*
D03*
Y22800D02*
D03*
X16400D02*
D03*
Y23300D02*
D03*
Y23800D02*
D03*
Y24300D02*
D03*
Y24800D02*
D03*
Y25300D02*
D03*
Y25800D02*
D03*
Y26300D02*
D03*
Y26800D02*
D03*
Y27300D02*
D03*
D37*
X13500Y25050D02*
D03*
D38*
X6000Y23840D02*
D03*
Y25540D02*
D03*
X7400Y24750D02*
D03*
Y23050D02*
D03*
X6000Y20850D02*
D03*
Y22550D02*
D03*
X8800Y24550D02*
D03*
Y22850D02*
D03*
X6000Y26850D02*
D03*
Y28550D02*
D03*
X7400Y29400D02*
D03*
Y27700D02*
D03*
X6000Y29850D02*
D03*
Y31550D02*
D03*
X14675Y17710D02*
D03*
Y19410D02*
D03*
X17500Y21350D02*
D03*
Y23050D02*
D03*
X21900Y22650D02*
D03*
Y20950D02*
D03*
D39*
X16009Y17712D02*
D03*
Y19812D02*
D03*
X17909D02*
D03*
Y17712D02*
D03*
D40*
X24450Y27900D02*
D03*
X20350D02*
D03*
X24450Y29500D02*
D03*
X20350D02*
D03*
D41*
X48450Y28150D02*
D03*
X47500Y30450D02*
D03*
X49400D02*
D03*
D42*
X44400Y20000D02*
D03*
X42700D02*
D03*
X44420Y18100D02*
D03*
X42720D02*
D03*
X44420Y16200D02*
D03*
X42720D02*
D03*
X38500Y27225D02*
D03*
X40200D02*
D03*
D43*
X50672Y23374D02*
D03*
Y24024D02*
D03*
Y24674D02*
D03*
Y25324D02*
D03*
Y25974D02*
D03*
D44*
X53522Y20924D02*
D03*
Y28432D02*
D03*
D45*
Y23524D02*
D03*
Y25824D02*
D03*
X50922Y21174D02*
D03*
Y28174D02*
D03*
D46*
X40200Y27225D02*
X40225Y27200D01*
X41525D01*
X34077Y10851D02*
X35409D01*
X14675Y17710D02*
X14678Y17712D01*
X16009D01*
X48572Y25424D02*
X49122Y25974D01*
X17909Y19013D02*
Y19812D01*
X15072Y19013D02*
X17909D01*
X14675Y19410D02*
X15072Y19013D01*
X51160Y17210D02*
Y17240D01*
Y16928D02*
Y17210D01*
X50257Y16025D02*
X51160Y16928D01*
X46770Y16025D02*
X50257D01*
X50881Y15940D02*
X53700D01*
X50441Y15500D02*
X50881Y15940D01*
X46952Y15500D02*
X50441D01*
X46132Y15387D02*
X46770Y16025D01*
X46750Y15298D02*
X46952Y15500D01*
X46750Y13950D02*
Y15298D01*
X45900Y13100D02*
X46750Y13950D01*
X45850Y13100D02*
X45900D01*
X46132Y14882D02*
Y15387D01*
X45850Y14600D02*
X46132Y14882D01*
X45846Y13104D02*
X45850Y13100D01*
X45282Y13104D02*
X45846D01*
X22820Y32600D02*
X29446Y25974D01*
X24090Y32037D02*
X29653Y26474D01*
X25360Y31474D02*
X29860Y26974D01*
X26630Y30911D02*
X30068Y27474D01*
X26630Y30911D02*
Y35140D01*
X30068Y27474D02*
X36485D01*
X25360Y31474D02*
Y32600D01*
X29860Y26974D02*
X36278D01*
X24090Y32037D02*
Y35140D01*
X29653Y26474D02*
X36071D01*
X29446Y25974D02*
X35843D01*
X20113Y29901D02*
X20213Y29801D01*
X11690Y32960D02*
X12150Y32500D01*
X20031Y29819D02*
X20350Y29500D01*
X20031Y29819D02*
X20113Y29901D01*
X46077Y23451D02*
X46300D01*
X46372Y23524D01*
X46872Y24024D01*
X45827Y22651D02*
X45855Y22624D01*
X46872D01*
X46872Y25424D02*
Y26824D01*
X49050Y30116D02*
Y30450D01*
X47722Y24774D02*
Y28788D01*
Y24724D02*
Y24774D01*
X38650Y22399D02*
X38902Y22651D01*
X38650Y21227D02*
Y22399D01*
X37350Y19927D02*
X38650Y21227D01*
X39840Y19800D02*
Y20044D01*
X38150Y21434D02*
Y25809D01*
X36850Y20134D02*
X38150Y21434D01*
X37650Y21641D02*
Y25602D01*
X36350Y20341D02*
X37650Y21641D01*
X37150Y21848D02*
Y25395D01*
X35850Y20548D02*
X37150Y21848D01*
X36650Y22055D02*
Y25167D01*
X35200Y20605D02*
X36650Y22055D01*
X47712Y20364D02*
X48572Y21224D01*
X47712Y19295D02*
Y20364D01*
X46872Y24024D02*
Y25424D01*
X48572Y26824D02*
Y27678D01*
X37350Y18424D02*
Y19927D01*
X36485Y17559D02*
X37350Y18424D01*
X36485Y9925D02*
Y17559D01*
X23481Y4675D02*
X23793Y4987D01*
X27549Y5200D02*
X33684D01*
X27336Y4987D02*
X27549Y5200D01*
X23793Y4987D02*
X27336D01*
X33684Y5200D02*
X35044Y3840D01*
X35327Y15351D02*
X35985Y16009D01*
X35327Y15351D02*
X35975Y14702D01*
X35985Y16009D02*
Y16440D01*
X35542Y16883D02*
X35985Y16440D01*
X34967Y16883D02*
X35542D01*
X34019Y17831D02*
X34967Y16883D01*
X35975Y11315D02*
Y14702D01*
X36310Y9750D02*
X36485Y9925D01*
X35131Y13001D02*
X35202D01*
X35115Y12985D02*
X35131Y13001D01*
X35100Y13000D02*
X35115Y12985D01*
X33772Y9750D02*
X36310D01*
X35610Y10950D02*
X35975Y11315D01*
X33851Y12800D02*
X34025Y12974D01*
Y12800D02*
Y12974D01*
X29900Y11550D02*
X33031D01*
X29400Y11050D02*
X29900Y11550D01*
X33031D02*
X33427Y11154D01*
X29400Y10885D02*
Y11050D01*
X33427Y10096D02*
X33772Y9750D01*
X33427Y10096D02*
Y11154D01*
X28597Y11002D02*
X29996Y12400D01*
X30000D01*
X28050Y11002D02*
X28597D01*
X28000D02*
X28050D01*
X32800Y10885D02*
X32820D01*
X35409Y10851D02*
X35559Y11001D01*
X35610Y10950D01*
X37310Y10450D02*
Y10950D01*
X34019Y17831D02*
Y19320D01*
X34700Y20002D01*
Y20812D01*
X35127Y21239D01*
Y21676D01*
X35200Y19500D02*
Y20605D01*
X35850Y19231D02*
Y20548D01*
X36350Y19024D02*
Y20341D01*
X36850Y18631D02*
Y20134D01*
X34700Y18081D02*
Y18100D01*
X35500Y18200D02*
X35526D01*
X34669Y18900D02*
X34719Y18850D01*
X35469D02*
X35850Y19231D01*
X34719Y18850D02*
X35469D01*
X35769Y17550D02*
X36850Y18631D01*
X35231Y17550D02*
X35769D01*
X34700Y18081D02*
X35231Y17550D01*
X24676Y21676D02*
X24850Y21850D01*
X34953D01*
X35127Y21676D01*
X34300Y23050D02*
X34669D01*
X15100Y12229D02*
X15921Y13050D01*
X22477D01*
X22851Y12676D01*
X14800Y13738D02*
X15057D01*
X14712Y12907D02*
X14933D01*
X15057Y13738D02*
X15369Y14050D01*
X23875D01*
X14933Y12907D02*
X15576Y13550D01*
X23140D01*
X23485Y13205D01*
X22851Y12676D02*
X22877Y12650D01*
X15000Y14600D02*
X24041D01*
X25825Y12816D01*
Y12100D02*
Y12816D01*
X23875Y14050D02*
X25175Y12750D01*
Y11606D02*
Y12750D01*
Y11606D02*
X25530Y11251D01*
X26401D01*
X18969Y8250D02*
X22476D01*
X18894D02*
X18969D01*
X22476D02*
X22626Y8400D01*
X39840Y20044D02*
X40020Y20224D01*
X27880Y6500D02*
X36300D01*
X26100Y8280D02*
X27880Y6500D01*
X35843Y25974D02*
X36650Y25167D01*
X36071Y26474D02*
X37150Y25395D01*
X36278Y26974D02*
X37650Y25602D01*
X36485Y27474D02*
X38150Y25809D01*
X8650Y29400D02*
X8700Y29450D01*
X47722Y28788D02*
X49050Y30116D01*
X15100Y11785D02*
Y12229D01*
X15270Y30451D02*
X15800Y29921D01*
Y29600D02*
Y29921D01*
Y29600D02*
X16100Y29300D01*
X13712Y30451D02*
X15270D01*
X16294Y30150D02*
X19865D01*
X15492Y30951D02*
X16294Y30150D01*
X13919Y30951D02*
X15492D01*
X19865Y30150D02*
X20113Y29901D01*
X13013Y31150D02*
X13712Y30451D01*
X12370Y32500D02*
X13919Y30951D01*
X12150Y32500D02*
X12370D01*
X10215Y31150D02*
X13013D01*
X9250Y30185D02*
X10215Y31150D01*
X44600Y14000D02*
X44812Y14213D01*
X45463D01*
X45850Y14600D01*
X45002Y11600D02*
X45850D01*
X43902Y12700D02*
X45002Y11600D01*
X41000Y12700D02*
X43902D01*
X45178Y10100D02*
X45850D01*
X43848Y11430D02*
X45178Y10100D01*
X43540Y11430D02*
X43848D01*
X35044Y3840D02*
X36170D01*
X41450Y20000D02*
X42950D01*
X35526Y18200D02*
X36350Y19024D01*
X21900Y20950D02*
X22578D01*
X22667Y21038D01*
X28900Y29881D02*
Y29900D01*
X41420Y16200D02*
X42970D01*
X41420Y18100D02*
X42970D01*
X39976Y16244D02*
X40020Y16200D01*
X46872Y21224D02*
X46872Y21224D01*
X46872Y21224D02*
Y22624D01*
X48572D02*
X49571Y23623D01*
Y23671D01*
X49924Y24024D01*
X50672D01*
X48572Y24024D02*
X49222Y24674D01*
X50672D01*
X46872Y25424D02*
X46872Y25424D01*
X49122Y25974D02*
X50672D01*
X49362Y19614D02*
X50922Y21174D01*
X49362Y19245D02*
Y19614D01*
X49017Y18900D02*
X49362Y19245D01*
X48122Y18900D02*
X49017D01*
X48048Y18974D02*
X48122Y18900D01*
X48033Y18974D02*
X48048D01*
X47712Y19295D02*
X48033Y18974D01*
X48562Y19824D02*
X49500Y20762D01*
Y22500D01*
X33200Y22800D02*
X33300Y22700D01*
Y22700D02*
Y22700D01*
X27860Y23840D02*
X27900D01*
X26700Y23700D02*
X26710Y23710D01*
X25600Y23500D02*
Y23600D01*
X25600Y23500D02*
X25600Y23500D01*
X24100Y23840D02*
Y23950D01*
X49500Y22500D02*
X50374Y23374D01*
X50672D01*
X21900Y22650D02*
X22350Y22200D01*
X23100D01*
X3426Y12290D02*
X4800D01*
X4800Y12290D01*
X2840Y12876D02*
X3426Y12290D01*
X2800Y11900D02*
X2800Y11900D01*
Y12000D01*
X2340Y12460D02*
X2800Y12000D01*
X2340Y12460D02*
Y18260D01*
X1300Y19300D02*
X2340Y18260D01*
X1300Y19300D02*
Y19640D01*
X2840Y12876D02*
Y16640D01*
X3840Y17640D01*
Y18370D01*
X7400Y29400D02*
X8650D01*
X6000Y28550D02*
X6550D01*
X7400Y29400D01*
X6000Y28550D02*
Y29850D01*
Y22550D02*
Y23840D01*
X6610D02*
X7400Y23050D01*
X6000Y23840D02*
X6610D01*
X7400Y23050D02*
X7600Y22850D01*
X8800D01*
D47*
X41600Y24400D02*
Y25248D01*
X28900Y29900D02*
X30353Y28447D01*
X47650Y14700D02*
X51160D01*
X27900Y30900D02*
X28900Y29900D01*
X27900Y30900D02*
Y32600D01*
X41600Y25248D02*
X43225Y26873D01*
Y27200D01*
X43200Y24400D02*
Y25250D01*
X43975Y26025D01*
X30353Y28447D02*
X43225D01*
X44200D01*
X43225Y27200D02*
Y28447D01*
X18040Y35100D02*
X18240Y35300D01*
X22325D01*
X7400Y22200D02*
Y23050D01*
X8700Y29000D02*
Y29450D01*
X7675Y31760D02*
X9250Y30185D01*
X7675Y31760D02*
Y35075D01*
X8990Y36390D01*
X47550Y14600D02*
X47650Y14700D01*
X46412Y8930D02*
X46483Y9000D01*
X46412Y5423D02*
Y8930D01*
X44830Y3840D02*
X46412Y5423D01*
X47550Y10067D02*
Y10100D01*
X46483Y9000D02*
X47550Y10067D01*
X45217Y9000D02*
X46483D01*
X44810Y9408D02*
X45217Y9000D01*
X44790Y9408D02*
X44810D01*
X47550Y13100D02*
Y14600D01*
Y11600D02*
Y13100D01*
Y10100D02*
Y11600D01*
X26000Y2590D02*
X27860Y4450D01*
X30480D01*
X31090Y3840D01*
X27210Y36390D02*
X27900Y35700D01*
X8990Y36390D02*
X27210Y36390D01*
X41000Y10160D02*
X41020Y10140D01*
X44058D01*
X44790Y9408D01*
X16060Y3840D02*
X17430D01*
X15450Y4450D02*
X16060Y3840D01*
X13850Y4450D02*
X15450D01*
X5040Y2590D02*
X11990D01*
X27900Y32600D02*
Y35700D01*
X18680Y2590D02*
X26000D01*
X44220Y4450D02*
X44830Y3840D01*
X42719Y4450D02*
X44220D01*
X42719Y4450D02*
X42719Y4450D01*
X41601Y4450D02*
X42719D01*
X39741Y2590D02*
X41601Y4450D01*
X32340Y2590D02*
X39741D01*
X31090Y3840D02*
X32340Y2590D01*
X17430Y3840D02*
X18680Y2590D01*
X11990D02*
X13850Y4450D01*
X3790Y3840D02*
X5040Y2590D01*
D48*
X52450Y3840D02*
D03*
X51180Y1300D02*
D03*
X49910Y3840D02*
D03*
X48640Y1300D02*
D03*
X47370Y3840D02*
D03*
X46100Y1300D02*
D03*
X44830Y3840D02*
D03*
X43560Y1300D02*
D03*
X38710Y3840D02*
D03*
X37440Y1300D02*
D03*
X36170Y3840D02*
D03*
X34900Y1300D02*
D03*
X33630Y3840D02*
D03*
X32360Y1300D02*
D03*
X31090Y3840D02*
D03*
X29820Y1300D02*
D03*
X25050Y3840D02*
D03*
X23780Y1300D02*
D03*
X22510Y3840D02*
D03*
X21240Y1300D02*
D03*
X19970Y3840D02*
D03*
X18700Y1300D02*
D03*
X17430Y3840D02*
D03*
X16160Y1300D02*
D03*
X11410Y3840D02*
D03*
X10140Y1300D02*
D03*
X8870Y3840D02*
D03*
X7600Y1300D02*
D03*
X6330Y3840D02*
D03*
X5060Y1300D02*
D03*
X3790Y3840D02*
D03*
X2520Y1300D02*
D03*
X43540Y8890D02*
D03*
X41000Y10160D02*
D03*
X43540Y11430D02*
D03*
X41000Y12700D02*
D03*
X53700Y13400D02*
D03*
X51160Y14670D02*
D03*
X53700Y15940D02*
D03*
X51160Y17210D02*
D03*
X36460Y32600D02*
D03*
X37730Y35140D02*
D03*
X39000Y32600D02*
D03*
X40270Y35140D02*
D03*
X41540Y32600D02*
D03*
X42810Y35140D02*
D03*
X44080Y32600D02*
D03*
X45350Y35140D02*
D03*
X35190D02*
D03*
X33920Y32600D02*
D03*
X22820D02*
D03*
X24090Y35140D02*
D03*
X25360Y32600D02*
D03*
X26630Y35140D02*
D03*
X27900Y32600D02*
D03*
X29170Y35140D02*
D03*
X1260Y28210D02*
D03*
X3800Y26940D02*
D03*
X1260Y25670D02*
D03*
X3800Y24400D02*
D03*
X3840Y13290D02*
D03*
X1300Y14560D02*
D03*
X3840Y15830D02*
D03*
X1300Y17100D02*
D03*
X3840Y18370D02*
D03*
X1300Y19640D02*
D03*
X9150Y32560D02*
D03*
X10420Y35100D02*
D03*
X11690Y32560D02*
D03*
X12960Y35100D02*
D03*
X14230Y32560D02*
D03*
X15500Y35100D02*
D03*
X16770Y32560D02*
D03*
X18040Y35100D02*
D03*
D49*
X17117Y15450D02*
D03*
X13488Y7991D02*
D03*
X15446D02*
D03*
X34527Y15107D02*
D03*
X31910Y15550D02*
D03*
X31875Y16350D02*
D03*
X13251Y19976D02*
D03*
X15639Y20037D02*
D03*
X45282Y13104D02*
D03*
X24800Y29252D02*
D03*
X46077Y23451D02*
D03*
X45827Y22651D02*
D03*
X44377Y24776D02*
D03*
X38902Y22651D02*
D03*
X47722Y24774D02*
D03*
X47150Y30450D02*
D03*
X23481Y4675D02*
D03*
X35327Y15351D02*
D03*
X33977Y14526D02*
D03*
X34475Y16025D02*
D03*
X35202Y13001D02*
D03*
X34025Y12800D02*
D03*
X32850Y12225D02*
D03*
X31475Y12350D02*
D03*
X29400Y10885D02*
D03*
X32720Y10860D02*
D03*
X34077Y10851D02*
D03*
X37160Y10450D02*
D03*
X34700Y18100D02*
D03*
X35500Y18200D02*
D03*
X34669Y18900D02*
D03*
X35200Y19500D02*
D03*
X41275Y26200D02*
D03*
X44416Y27275D02*
D03*
X39975Y26200D02*
D03*
X40625Y26200D02*
D03*
X41700Y24525D02*
D03*
X35127Y21676D02*
D03*
X24676D02*
D03*
X35860Y23250D02*
D03*
X27336Y11670D02*
D03*
X13050Y20815D02*
D03*
X22851Y12676D02*
D03*
X23485Y13205D02*
D03*
X25825Y12100D02*
D03*
X15000Y14600D02*
D03*
X18969Y8250D02*
D03*
X22626Y8400D02*
D03*
X26401Y11251D02*
D03*
X39840Y19800D02*
D03*
X24137Y10949D02*
D03*
X36300Y6500D02*
D03*
X33516Y8229D02*
D03*
X23100Y33900D02*
D03*
X22100D02*
D03*
X21000D02*
D03*
X36000Y24895D02*
D03*
X17250Y21200D02*
D03*
X7158Y20567D02*
D03*
X32720Y15334D02*
D03*
X33900Y20836D02*
D03*
X52000Y24500D02*
D03*
Y25400D02*
D03*
Y26300D02*
D03*
Y27400D02*
D03*
Y28400D02*
D03*
X52148Y19095D02*
D03*
X51100Y19137D02*
D03*
X50100Y19095D02*
D03*
X45200Y27275D02*
D03*
X14800Y13738D02*
D03*
X15001Y29801D02*
D03*
X14797Y28600D02*
D03*
X12700Y28888D02*
D03*
X14201Y29701D02*
D03*
X4800Y31000D02*
D03*
X12000Y26500D02*
D03*
X15000D02*
D03*
X28436Y8100D02*
D03*
X14500Y7997D02*
D03*
X16200Y15471D02*
D03*
X14712Y12907D02*
D03*
X14135Y21200D02*
D03*
X15100Y11785D02*
D03*
X44600Y14000D02*
D03*
X26100Y8280D02*
D03*
X41700Y23800D02*
D03*
X22667Y21038D02*
D03*
X23025Y15400D02*
D03*
X19919Y15305D02*
D03*
X30800Y23090D02*
D03*
X29400Y22968D02*
D03*
X9800Y22600D02*
D03*
X9800Y24800D02*
D03*
X12700Y30500D02*
D03*
Y29688D02*
D03*
X12000Y23500D02*
D03*
Y25000D02*
D03*
X13500Y23500D02*
D03*
X15000D02*
D03*
Y25000D02*
D03*
X13500Y26500D02*
D03*
Y25000D02*
D03*
X39976Y16244D02*
D03*
X40000Y18100D02*
D03*
X28050Y11002D02*
D03*
X34669Y23050D02*
D03*
X33300Y22700D02*
D03*
X32000Y23100D02*
D03*
X27860Y23840D02*
D03*
X26710Y23710D02*
D03*
X25600Y23500D02*
D03*
X24100Y23950D02*
D03*
X23100Y22200D02*
D03*
X17500Y25900D02*
D03*
X18400Y24700D02*
D03*
X17200Y24500D02*
D03*
X18800Y23700D02*
D03*
X16300Y22100D02*
D03*
X4800Y12290D02*
D03*
X2800Y11900D02*
D03*
D50*
X43975Y26025D02*
D03*
X22325Y35300D02*
D03*
X8700Y29000D02*
D03*
X44200Y28447D02*
D03*
X28900Y29881D02*
D03*
X46700Y19800D02*
D03*
X7400Y22200D02*
D03*
M02*
