M48
;Layer_Color=9474304
;FILE_FORMAT=4:3
METRIC,TZ
;TYPE=PLATED
T1F00S00C0.300
T2F00S00C0.500
T3F00S00C0.800
;TYPE=NON_PLATED
T4F00S00C1.500
T5F00S00C3.000
%
T01
X13488Y7991
X14500Y7997
X15446Y7991
X18969Y8250
X22626Y8400
X26100Y8280
X28436Y8100
X33516Y8229
X36300Y6500
X23481Y4675
X50100Y19095
X51100Y19137
X52148Y19095
X52000Y24500
Y25400
Y26300
Y27400
Y28400
X47150Y30450
X45200Y27275
X44416
X44377Y24776
X41700Y24525
Y23800
X41275Y26200
X40625
X39975Y26200
X38902Y22651
X35860Y23250
X34669Y23050
X33300Y22700
X32000Y23100
X30800Y23090
X29400Y22968
X27860Y23840
X26710Y23710
X25600Y23500
X24100Y23950
X23100Y22200
X22667Y21038
X24676Y21676
X24800Y29252
X23100Y33900
X22100
X21000
X15001Y29801
X14201Y29701
X12700Y29688
Y28888
Y30500
X14797Y28600
X15000Y26500
Y25000
Y23500
X13500
Y25000
Y26500
X12000
Y25000
Y23500
X9800Y22600
X9800Y24800
X13050Y20815
X13251Y19976
X14135Y21200
X15639Y20037
X16300Y22100
X17250Y21200
X17200Y24500
X18400Y24700
X18800Y23700
X17500Y25900
X17117Y15450
X16200Y15471
X15000Y14600
X14800Y13738
X14712Y12907
X15100Y11785
X19919Y15305
X23025Y15400
X23485Y13205
X22851Y12676
X24137Y10949
X26401Y11251
X27336Y11670
X28050Y11002
X29400Y10885
X32720Y10860
X34077Y10851
X34025Y12800
X35202Y13001
X35327Y15351
X34527Y15107
X34475Y16025
X33977Y14526
X32720Y15334
X31910Y15550
X31875Y16350
X31475Y12350
X32850Y12225
X37160Y10450
X39976Y16244
X40000Y18100
X39840Y19800
X35200Y19500
X34669Y18900
X34700Y18100
X35500Y18200
X35127Y21676
X33900Y20836
X36000Y24895
X46077Y23451
X45827Y22651
X47722Y24774
X44600Y14000
X45282Y13104
X25825Y12100
X4800Y12290
X2800Y11900
X7158Y20567
X4800Y31000
T02
X22325Y35300
X28900Y29881
X44200Y28447
X43975Y26025
X46700Y19800
X7400Y22200
X8700Y29000
T03
X2520Y1300
X5060
X7600
X8870Y3840
X6330
X3790
X11410
X10140Y1300
X16160
X18700
X21240
X23780
X25050Y3840
X22510
X19970
X17430
X31090
X33630
X36170
X38710
X37440Y1300
X34900
X32360
X29820
X43560
X46100
X48640
X47370Y3840
X44830
X43540Y8890
X49910Y3840
X52450
X51180Y1300
X51160Y14670
Y17210
X53700Y15940
Y13400
X43540Y11430
X41000Y10160
Y12700
X41540Y32600
X39000
X36460
X33920
X35190Y35140
X37730
X40270
X42810
X45350
X44080Y32600
X27900
X25360
X22820
X24090Y35140
X26630
X29170
X18040Y35100
X15500
X12960
X10420
X11690Y32560
X14230
X16770
X9150
X3800Y26940
Y24400
X1260Y25670
Y28210
X1300Y19640
Y17100
Y14560
X3840Y13290
Y15830
Y18370
T04
X1120Y3100
X14760
X28420
X42160
X41740Y7490
X51900Y12000
X46750Y33340
X30570
X19440Y33300
X3060Y29610
X3100Y21040
T05
X3000Y8000
X52000
Y34000
X3000
M30
